<svg width="50.5mm" height="128.5mm">
<g transform="scale(1,-1)"><circle cx="7.649528054mm" cy="-125.50115mm" r="1.6mm" stroke-width="1"/>
<circle cx="43.209528054mm" cy="-125.50115mm" r="1.6mm" stroke-width="1"/>
<circle cx="5.35699992370606mm" cy="-112.509999866486mm" r="3.4mm" stroke-width="1"/>
<circle cx="18.3744998474121mm" cy="-112.509999866486mm" r="3.4mm" stroke-width="1"/>
<circle cx="31.7095008392334mm" cy="-112.509999866486mm" r="3.4mm" stroke-width="1"/>
<circle cx="45.3619990844727mm" cy="-112.509999866486mm" r="3.4mm" stroke-width="1"/>
<circle cx="5.35699992370606mm" cy="-97.9049998474121mm" r="3.4mm" stroke-width="1"/>
<circle cx="18.3744998474121mm" cy="-97.9049998474121mm" r="3.4mm" stroke-width="1"/>
<circle cx="31.7095008392334mm" cy="-97.9049998474121mm" r="3.4mm" stroke-width="1"/>
<circle cx="45.3619990844727mm" cy="-97.9049998474121mm" r="3.4mm" stroke-width="1"/>
<circle cx="5.35699992370606mm" cy="-83.3000003051758mm" r="3.4mm" stroke-width="1"/>
<circle cx="18.3744998474121mm" cy="-83.3000003051758mm" r="3.4mm" stroke-width="1"/>
<circle cx="31.7095008392334mm" cy="-83.3000003051758mm" r="3.4mm" stroke-width="1"/>
<circle cx="45.3619990844727mm" cy="-83.3000003051758mm" r="3.4mm" stroke-width="1"/>
<circle cx="24.4069991607666mm" cy="-69.9650012207031mm" r="2.667mm" stroke-width="1"/>
<circle cx="42.8219981689453mm" cy="-67.4250003051758mm" r="2.54mm" stroke-width="1"/>
<circle cx="34.5670009155273mm" cy="-66.1549998474121mm" r="1.5mm" stroke-width="1"/>
<circle cx="9.16700034332276mm" cy="-63.6149989318848mm" r="4.5mm" stroke-width="1"/>
<circle cx="21.2319999237061mm" cy="-64.2500010681152mm" r="1.5mm" stroke-width="1"/>
<circle cx="27.708999206543mm" cy="-64.2500010681152mm" r="1.5mm" stroke-width="1"/>
<circle cx="42.8219981689453mm" cy="-58.5350009155273mm" r="2.54mm" stroke-width="1"/>
<circle cx="34.5670009155273mm" cy="-57.2650004577637mm" r="1.5mm" stroke-width="1"/>
<circle cx="25.6769996185303mm" cy="-51.5500003051758mm" r="4.5mm" stroke-width="1"/>
<circle cx="9.16700034332276mm" cy="-40.7550021362305mm" r="4.5mm" stroke-width="1"/>
<circle cx="42.1869998474121mm" cy="-40.7550021362305mm" r="4.5mm" stroke-width="1"/>
<circle cx="25.6769996185303mm" cy="-29.9599963378906mm" r="4.5mm" stroke-width="1"/>
<circle cx="9.18199973297119mm" cy="-19.045003051758mm" r="3.6195mm" stroke-width="1"/>
<circle cx="22.5020003814697mm" cy="-19.87mm" r="1.5mm" stroke-width="1"/>
<circle cx="28.9789996643066mm" cy="-19.87mm" r="1.5mm" stroke-width="1"/>
<circle cx="42.1869998474121mm" cy="-19.164998168945mm" r="4.5mm" stroke-width="1"/>
<circle cx="7.649528054mm" cy="-3.0014mm" r="1.6mm" stroke-width="1"/>
<circle cx="43.209528054mm" cy="-3.0014mm" r="1.6mm" stroke-width="1"/>
</g>
</svg>
