  0
SECTION
  2
HEADER
  9
$ANGBASE
  50
0.0
  9
$ANGDIR
  70
1
  9
$MEASUREMENT
  70
0
  9
$INSUNITS
  70
1
  0
ENDSEC
  0
SECTION
  2
TABLES
  0
TABLE
  2
LTYPE
  70
4
  0
LTYPE
  5
40F
  2
CONTINUOUS
  70
0
  3
Solid line
  72
65
  73
0
  40
0.0
  0
LTYPE
  5
410
  2
DASHDOT
 70
0
  3
Dash Dot ____ _ ____ _
 72
65
 73
4
 40
2.0
 49
1.25
 49
-0.25
 49
0.25
 49
-0.25
  0
LTYPE
  5
411
  2
DASHED
 70
0
  3
Dashed __ __ __ __ __
 72
65
 73
2
 40
0.75
 49
0.5
 49
-0.25
  0
LTYPE
  5
43B
  2
DOTTED
 70
0
  3
Dotted .  .  .  .
 72
65
 73
2
 40
0.2
 49
0.0
 49
-0.2
  0
ENDTAB
  0
TABLE
  2
STYLE
  70
4
  0
STYLE
  2
KICAD
  70
0
  40
0
  41
1
  42
1
  50
0
  71
0
  3
isocp.shx
  0
STYLE
  2
KICADB
  70
0
  40
0
  41
1
  42
1
  50
0
  71
0
  3
isocp.shx
  0
STYLE
  2
KICADI
  70
0
  40
0
  41
1
  42
1
  50
15
  71
0
  3
isocp.shx
  0
STYLE
  2
KICADBI
  70
0
  40
0
  41
1
  42
1
  50
15
  71
0
  3
isocp.shx
  0
ENDTAB
  0
TABLE
  2
LAYER
  70
1
  0
LAYER
  2
User.Drawings
  70
0
  62
9
  420
12763842
  6
CONTINUOUS
  0
ENDTAB
  0
ENDSEC
  0
SECTION
  2
ENTITIES
0
LINE
8
User.Drawings
6
CONTINUOUS
10
5.0718940551181104
20
-4.2997749999999995
11
5.0522090157480317
21
-4.2997749999999995
0
LINE
8
User.Drawings
6
CONTINUOUS
10
5.0522090157480317
20
-4.2997749999999995
11
5.0522090157480317
21
-4.2922759448818892
0
LINE
8
User.Drawings
6
CONTINUOUS
10
5.0522090157480317
20
-4.2922759448818892
11
5.0531464173228349
21
-4.2904011811023617
0
LINE
8
User.Drawings
6
CONTINUOUS
10
5.0531464173228349
20
-4.2904011811023617
11
5.0540837795275593
21
-4.2894637795275585
0
LINE
8
User.Drawings
6
CONTINUOUS
10
5.0540837795275593
20
-4.2894637795275585
11
5.0559585433070868
21
-4.2885264173228341
0
LINE
8
User.Drawings
6
CONTINUOUS
10
5.0559585433070868
20
-4.2885264173228341
11
5.0587707086614175
21
-4.2885264173228341
0
LINE
8
User.Drawings
6
CONTINUOUS
10
5.0587707086614175
20
-4.2885264173228341
11
5.0606454724409451
21
-4.2894637795275585
0
LINE
8
User.Drawings
6
CONTINUOUS
10
5.0606454724409451
20
-4.2894637795275585
11
5.0615828346456695
21
-4.2904011811023617
0
LINE
8
User.Drawings
6
CONTINUOUS
10
5.0615828346456695
20
-4.2904011811023617
11
5.0625202362204726
21
-4.2922759448818892
0
LINE
8
User.Drawings
6
CONTINUOUS
10
5.0625202362204726
20
-4.2922759448818892
11
5.0625202362204726
21
-4.2997749999999995
0
LINE
8
User.Drawings
6
CONTINUOUS
10
5.0700192913385829
20
-4.2688413779527554
11
5.070956692913386
21
-4.2697787401574798
0
LINE
8
User.Drawings
6
CONTINUOUS
10
5.070956692913386
20
-4.2697787401574798
11
5.0718940551181104
21
-4.2725909055118105
0
LINE
8
User.Drawings
6
CONTINUOUS
10
5.0718940551181104
20
-4.2725909055118105
11
5.0718940551181104
21
-4.2744656692913381
0
LINE
8
User.Drawings
6
CONTINUOUS
10
5.0718940551181104
20
-4.2744656692913381
11
5.070956692913386
21
-4.27727779527559
0
LINE
8
User.Drawings
6
CONTINUOUS
10
5.070956692913386
20
-4.27727779527559
11
5.0690818897637797
21
-4.2791525590551176
0
LINE
8
User.Drawings
6
CONTINUOUS
10
5.0690818897637797
20
-4.2791525590551176
11
5.0672071259842522
21
-4.2800899606299208
0
LINE
8
User.Drawings
6
CONTINUOUS
10
5.0672071259842522
20
-4.2800899606299208
11
5.063457598425197
21
-4.2810273228346452
0
LINE
8
User.Drawings
6
CONTINUOUS
10
5.063457598425197
20
-4.2810273228346452
11
5.0606454724409451
21
-4.2810273228346452
0
LINE
8
User.Drawings
6
CONTINUOUS
10
5.0606454724409451
20
-4.2810273228346452
11
5.05689594488189
21
-4.2800899606299208
0
LINE
8
User.Drawings
6
CONTINUOUS
10
5.05689594488189
20
-4.2800899606299208
11
5.0550211811023624
21
-4.2791525590551176
0
LINE
8
User.Drawings
6
CONTINUOUS
10
5.0550211811023624
20
-4.2791525590551176
11
5.0531464173228349
21
-4.27727779527559
0
LINE
8
User.Drawings
6
CONTINUOUS
10
5.0531464173228349
20
-4.27727779527559
11
5.0522090157480317
21
-4.2744656692913381
0
LINE
8
User.Drawings
6
CONTINUOUS
10
5.0522090157480317
20
-4.2744656692913381
11
5.0522090157480317
21
-4.2725909055118105
0
LINE
8
User.Drawings
6
CONTINUOUS
10
5.0522090157480317
20
-4.2725909055118105
11
5.0531464173228349
21
-4.2697787401574798
0
LINE
8
User.Drawings
6
CONTINUOUS
10
5.0531464173228349
20
-4.2697787401574798
11
5.0540837795275593
21
-4.2688413779527554
0
LINE
8
User.Drawings
6
CONTINUOUS
10
5.0615828346456695
20
-4.2538432283464562
11
5.0625202362204726
21
-4.2510311023622043
0
LINE
8
User.Drawings
6
CONTINUOUS
10
5.0625202362204726
20
-4.2510311023622043
11
5.063457598425197
21
-4.2500937007874011
0
LINE
8
User.Drawings
6
CONTINUOUS
10
5.063457598425197
20
-4.2500937007874011
11
5.0653323622047246
21
-4.2491563385826767
0
LINE
8
User.Drawings
6
CONTINUOUS
10
5.0653323622047246
20
-4.2491563385826767
11
5.0681445275590553
21
-4.2491563385826767
0
LINE
8
User.Drawings
6
CONTINUOUS
10
5.0681445275590553
20
-4.2491563385826767
11
5.0700192913385829
21
-4.2500937007874011
0
LINE
8
User.Drawings
6
CONTINUOUS
10
5.0700192913385829
20
-4.2500937007874011
11
5.070956692913386
21
-4.2510311023622043
0
LINE
8
User.Drawings
6
CONTINUOUS
10
5.070956692913386
20
-4.2510311023622043
11
5.0718940551181104
21
-4.2529058661417318
0
LINE
8
User.Drawings
6
CONTINUOUS
10
5.0718940551181104
20
-4.2529058661417318
11
5.0718940551181104
21
-4.260404921259842
0
LINE
8
User.Drawings
6
CONTINUOUS
10
5.0718940551181104
20
-4.260404921259842
11
5.0522090157480317
21
-4.260404921259842
0
LINE
8
User.Drawings
6
CONTINUOUS
10
5.0522090157480317
20
-4.260404921259842
11
5.0522090157480317
21
-4.2538432283464562
0
LINE
8
User.Drawings
6
CONTINUOUS
10
5.0522090157480317
20
-4.2538432283464562
11
5.0531464173228349
21
-4.2519684645669287
0
LINE
8
User.Drawings
6
CONTINUOUS
10
5.0531464173228349
20
-4.2519684645669287
11
5.0540837795275593
21
-4.2510311023622043
0
LINE
8
User.Drawings
6
CONTINUOUS
10
5.0540837795275593
20
-4.2510311023622043
11
5.0559585433070868
21
-4.2500937007874011
0
LINE
8
User.Drawings
6
CONTINUOUS
10
5.0559585433070868
20
-4.2500937007874011
11
5.0578333070866144
21
-4.2500937007874011
0
LINE
8
User.Drawings
6
CONTINUOUS
10
5.0578333070866144
20
-4.2500937007874011
11
5.0597080708661419
21
-4.2510311023622043
0
LINE
8
User.Drawings
6
CONTINUOUS
10
5.0597080708661419
20
-4.2510311023622043
11
5.0606454724409451
21
-4.2519684645669287
0
LINE
8
User.Drawings
6
CONTINUOUS
10
5.0606454724409451
20
-4.2519684645669287
11
5.0615828346456695
21
-4.2538432283464562
0
LINE
8
User.Drawings
6
CONTINUOUS
10
5.0615828346456695
20
-4.2538432283464562
11
5.0615828346456695
21
-4.260404921259842
0
LINE
8
User.Drawings
6
CONTINUOUS
10
5.0615828346456695
20
-4.2257217716535429
11
5.0615828346456695
21
-4.2191600787401571
0
LINE
8
User.Drawings
6
CONTINUOUS
10
5.0718940551181104
20
-4.2163479527559051
11
5.0718940551181104
21
-4.2257217716535429
0
LINE
8
User.Drawings
6
CONTINUOUS
10
5.0718940551181104
20
-4.2257217716535429
11
5.0522090157480317
21
-4.2257217716535429
0
LINE
8
User.Drawings
6
CONTINUOUS
10
5.0522090157480317
20
-4.2257217716535429
11
5.0522090157480317
21
-4.2163479527559051
0
LINE
8
User.Drawings
6
CONTINUOUS
10
5.0718940551181104
20
-4.1994750393700784
11
5.0522090157480317
21
-4.1994750393700784
0
LINE
8
User.Drawings
6
CONTINUOUS
10
5.070956692913386
20
-4.1994750393700784
11
5.0718940551181104
21
-4.2013498031496059
0
LINE
8
User.Drawings
6
CONTINUOUS
10
5.0718940551181104
20
-4.2013498031496059
11
5.0718940551181104
21
-4.205099330708661
0
LINE
8
User.Drawings
6
CONTINUOUS
10
5.0718940551181104
20
-4.205099330708661
11
5.070956692913386
21
-4.2069740944881886
0
LINE
8
User.Drawings
6
CONTINUOUS
10
5.070956692913386
20
-4.2069740944881886
11
5.0700192913385829
21
-4.2079114960629918
0
LINE
8
User.Drawings
6
CONTINUOUS
10
5.0700192913385829
20
-4.2079114960629918
11
5.0681445275590553
21
-4.2088488582677162
0
LINE
8
User.Drawings
6
CONTINUOUS
10
5.0681445275590553
20
-4.2088488582677162
11
5.0625202362204726
21
-4.2088488582677162
0
LINE
8
User.Drawings
6
CONTINUOUS
10
5.0625202362204726
20
-4.2088488582677162
11
5.0606454724409451
21
-4.2079114960629918
0
LINE
8
User.Drawings
6
CONTINUOUS
10
5.0606454724409451
20
-4.2079114960629918
11
5.0597080708661419
21
-4.2069740944881886
0
LINE
8
User.Drawings
6
CONTINUOUS
10
5.0597080708661419
20
-4.2069740944881886
11
5.0587707086614175
21
-4.205099330708661
0
LINE
8
User.Drawings
6
CONTINUOUS
10
5.0587707086614175
20
-4.205099330708661
11
5.0587707086614175
21
-4.2013498031496059
0
LINE
8
User.Drawings
6
CONTINUOUS
10
5.0587707086614175
20
-4.2013498031496059
11
5.0597080708661419
21
-4.1994750393700784
0
LINE
8
User.Drawings
6
CONTINUOUS
10
5.0587707086614175
20
-4.1816647637795272
11
5.0747062204724411
21
-4.1816647637795272
0
LINE
8
User.Drawings
6
CONTINUOUS
10
5.0747062204724411
20
-4.1816647637795272
11
5.0765809842519687
21
-4.1826021653543304
0
LINE
8
User.Drawings
6
CONTINUOUS
10
5.0765809842519687
20
-4.1826021653543304
11
5.0775183464566931
21
-4.1835395275590548
0
LINE
8
User.Drawings
6
CONTINUOUS
10
5.0775183464566931
20
-4.1835395275590548
11
5.0784557480314962
21
-4.1854142913385823
0
LINE
8
User.Drawings
6
CONTINUOUS
10
5.0784557480314962
20
-4.1854142913385823
11
5.0784557480314962
21
-4.188226456692913
0
LINE
8
User.Drawings
6
CONTINUOUS
10
5.0784557480314962
20
-4.188226456692913
11
5.0775183464566931
21
-4.1901012204724406
0
LINE
8
User.Drawings
6
CONTINUOUS
10
5.070956692913386
20
-4.1816647637795272
11
5.0718940551181104
21
-4.1835395275590548
0
LINE
8
User.Drawings
6
CONTINUOUS
10
5.0718940551181104
20
-4.1835395275590548
11
5.0718940551181104
21
-4.1872890551181099
0
LINE
8
User.Drawings
6
CONTINUOUS
10
5.0718940551181104
20
-4.1872890551181099
11
5.070956692913386
21
-4.1891638188976374
0
LINE
8
User.Drawings
6
CONTINUOUS
10
5.070956692913386
20
-4.1891638188976374
11
5.0700192913385829
21
-4.1901012204724406
0
LINE
8
User.Drawings
6
CONTINUOUS
10
5.0700192913385829
20
-4.1901012204724406
11
5.0681445275590553
21
-4.191038582677165
0
LINE
8
User.Drawings
6
CONTINUOUS
10
5.0681445275590553
20
-4.191038582677165
11
5.0625202362204726
21
-4.191038582677165
0
LINE
8
User.Drawings
6
CONTINUOUS
10
5.0625202362204726
20
-4.191038582677165
11
5.0606454724409451
21
-4.1901012204724406
0
LINE
8
User.Drawings
6
CONTINUOUS
10
5.0606454724409451
20
-4.1901012204724406
11
5.0597080708661419
21
-4.1891638188976374
0
LINE
8
User.Drawings
6
CONTINUOUS
10
5.0597080708661419
20
-4.1891638188976374
11
5.0587707086614175
21
-4.1872890551181099
0
LINE
8
User.Drawings
6
CONTINUOUS
10
5.0587707086614175
20
-4.1872890551181099
11
5.0587707086614175
21
-4.1835395275590548
0
LINE
8
User.Drawings
6
CONTINUOUS
10
5.0587707086614175
20
-4.1835395275590548
11
5.0597080708661419
21
-4.1816647637795272
0
LINE
8
User.Drawings
6
CONTINUOUS
10
5.070956692913386
20
-4.1647918897637792
11
5.0718940551181104
21
-4.1666666535433068
0
LINE
8
User.Drawings
6
CONTINUOUS
10
5.0718940551181104
20
-4.1666666535433068
11
5.0718940551181104
21
-4.1704161811023619
0
LINE
8
User.Drawings
6
CONTINUOUS
10
5.0718940551181104
20
-4.1704161811023619
11
5.070956692913386
21
-4.1722909448818895
0
LINE
8
User.Drawings
6
CONTINUOUS
10
5.070956692913386
20
-4.1722909448818895
11
5.0690818897637797
21
-4.1732283070866139
0
LINE
8
User.Drawings
6
CONTINUOUS
10
5.0690818897637797
20
-4.1732283070866139
11
5.0615828346456695
21
-4.1732283070866139
0
LINE
8
User.Drawings
6
CONTINUOUS
10
5.0615828346456695
20
-4.1732283070866139
11
5.0597080708661419
21
-4.1722909448818895
0
LINE
8
User.Drawings
6
CONTINUOUS
10
5.0597080708661419
20
-4.1722909448818895
11
5.0587707086614175
21
-4.1704161811023619
0
LINE
8
User.Drawings
6
CONTINUOUS
10
5.0587707086614175
20
-4.1704161811023619
11
5.0587707086614175
21
-4.1666666535433068
0
LINE
8
User.Drawings
6
CONTINUOUS
10
5.0587707086614175
20
-4.1666666535433068
11
5.0597080708661419
21
-4.1647918897637792
0
LINE
8
User.Drawings
6
CONTINUOUS
10
5.0597080708661419
20
-4.1647918897637792
11
5.0615828346456695
21
-4.1638544881889761
0
LINE
8
User.Drawings
6
CONTINUOUS
10
5.0615828346456695
20
-4.1638544881889761
11
5.063457598425197
21
-4.1638544881889761
0
LINE
8
User.Drawings
6
CONTINUOUS
10
5.063457598425197
20
-4.1638544881889761
11
5.0653323622047246
21
-4.1732283070866139
0
CIRCLE
8
User.Drawings
10
3.352755905511811
20
-4.4897637795275589
40
0.1
0
CIRCLE
8
User.Drawings
10
4.1515940944881891
20
-1.6141732283464567
40
0.125
0
CIRCLE
8
User.Drawings
10
4.1515940944881891
20
-2.7165354330708662
40
0.125
0
CIRCLE
8
User.Drawings
10
3.8773814960629922
20
-3.8121948818897637
40
0.125
0
CIRCLE
8
User.Drawings
10
2.9508066929133858
20
-2.1653543307086616
40
0.125
0
CIRCLE
8
User.Drawings
10
3.5019877952755905
20
-1.6141732283464567
40
0.125
0
CIRCLE
8
User.Drawings
10
2.9508066929133858
20
-2.7165354330708662
40
0.125
0
CIRCLE
8
User.Drawings
10
3.5019877952755905
20
-3.2677165354330708
40
0.125
0
CIRCLE
8
User.Drawings
10
2.9508066929133858
20
-3.2677165354330708
40
0.125
0
CIRCLE
8
User.Drawings
10
4.9212598425196852
20
-2.5984251968503935
40
0.0590551181102362
0
CIRCLE
8
User.Drawings
10
4.9212598425196852
20
-2.0472440944881889
40
0.0590551181102362
0
CIRCLE
8
User.Drawings
10
4.1515940944881891
20
-3.2677165354330708
40
0.125
0
CIRCLE
8
User.Drawings
10
3.7527559055118109
20
-4.4897637795275589
40
0.1
0
CIRCLE
8
User.Drawings
10
3.1043307086614171
20
-3.8121948818897637
40
0.1476377952755905
0
CIRCLE
8
User.Drawings
10
2.9527559055118111
20
-4.4897637795275589
40
0.1
0
CIRCLE
8
User.Drawings
10
3.7598425196850394
20
-1.4960629921259843
40
0.0590551181102362
0
CIRCLE
8
User.Drawings
10
4.6437200787401576
20
-1.6141732283464567
40
0.125
0
CIRCLE
8
User.Drawings
10
3.2086614173228347
20
-2.5984251968503935
40
0.0590551181102362
0
CIRCLE
8
User.Drawings
10
4.1527559055118113
20
-4.4897637795275589
40
0.1
0
LINE
8
User.Drawings
6
CONTINUOUS
10
2.7125984251968505
20
-0.9153543307086613
11
5.0984251968503935
21
-0.9153543307086613
0
LINE
8
User.Drawings
6
CONTINUOUS
10
5.0984251968503935
20
-0.9153543307086613
11
5.0984251968503935
21
-5.9744094488188972
0
LINE
8
User.Drawings
6
CONTINUOUS
10
5.0984251968503935
20
-5.9744094488188972
11
2.7125984251968505
21
-5.9744094488188972
0
LINE
8
User.Drawings
6
CONTINUOUS
10
2.7125984251968505
20
-5.9744094488188972
11
2.7125984251968505
21
-0.9153543307086613
0
LINE
8
User.Drawings
6
CONTINUOUS
10
3.0689649212598424
20
-0.9647144488188976
11
3.0779000787401576
21
-0.9658907874015747
0
LINE
8
User.Drawings
6
CONTINUOUS
10
3.0779000787401576
20
-0.9658907874015747
11
3.0866052362204726
21
-0.9682233070866142
0
LINE
8
User.Drawings
6
CONTINUOUS
10
3.0866052362204726
20
-0.9682233070866142
11
3.0949314566929131
21
-0.9716721653543307
0
LINE
8
User.Drawings
6
CONTINUOUS
10
3.0949314566929131
20
-0.9716721653543307
11
3.1027362992125984
21
-0.9761782677165354
0
LINE
8
User.Drawings
6
CONTINUOUS
10
3.1027362992125984
20
-0.9761782677165354
11
3.1098861811023619
21
-0.9816645669291338
0
LINE
8
User.Drawings
6
CONTINUOUS
10
3.1098861811023619
20
-0.9816645669291338
11
3.1162588188976379
21
-0.9880372047244095
0
LINE
8
User.Drawings
6
CONTINUOUS
10
3.1162588188976379
20
-0.9880372047244095
11
3.121745118110236
21
-0.9951870866141732
0
LINE
8
User.Drawings
6
CONTINUOUS
10
3.121745118110236
20
-0.9951870866141732
11
3.1262512204724411
21
-1.0029919291338583
0
LINE
8
User.Drawings
6
CONTINUOUS
10
3.1262512204724411
20
-1.0029919291338583
11
3.1297000787401572
21
-1.0113181496062993
0
LINE
8
User.Drawings
6
CONTINUOUS
10
3.1297000787401572
20
-1.0113181496062993
11
3.1320325984251967
21
-1.020023307086614
0
LINE
8
User.Drawings
6
CONTINUOUS
10
3.1320325984251967
20
-1.020023307086614
11
3.1332089370078737
21
-1.0289584645669292
0
LINE
8
User.Drawings
6
CONTINUOUS
10
3.1332089370078737
20
-1.0289584645669292
11
3.1332089370078737
21
-1.0379706692913386
0
LINE
8
User.Drawings
6
CONTINUOUS
10
3.1332089370078737
20
-1.0379706692913386
11
3.1320325984251967
21
-1.0469058267716536
0
LINE
8
User.Drawings
6
CONTINUOUS
10
3.1320325984251967
20
-1.0469058267716536
11
3.1297000787401572
21
-1.0556109842519685
0
LINE
8
User.Drawings
6
CONTINUOUS
10
3.1297000787401572
20
-1.0556109842519685
11
3.1262512204724411
21
-1.0639372047244093
0
LINE
8
User.Drawings
6
CONTINUOUS
10
3.1262512204724411
20
-1.0639372047244093
11
3.121745118110236
21
-1.0717420472440944
0
LINE
8
User.Drawings
6
CONTINUOUS
10
3.121745118110236
20
-1.0717420472440944
11
3.1162588188976379
21
-1.0788919291338583
0
LINE
8
User.Drawings
6
CONTINUOUS
10
3.1162588188976379
20
-1.0788919291338583
11
3.1098861811023619
21
-1.0852645669291339
0
LINE
8
User.Drawings
6
CONTINUOUS
10
3.1098861811023619
20
-1.0852645669291339
11
3.1027362992125984
21
-1.0907508661417322
0
LINE
8
User.Drawings
6
CONTINUOUS
10
3.1027362992125984
20
-1.0907508661417322
11
3.0949314566929131
21
-1.0952569685039371
0
LINE
8
User.Drawings
6
CONTINUOUS
10
3.0949314566929131
20
-1.0952569685039371
11
3.0866052362204726
21
-1.0987058267716536
0
LINE
8
User.Drawings
6
CONTINUOUS
10
3.0866052362204726
20
-1.0987058267716536
11
3.0779000787401576
21
-1.1010383464566929
0
LINE
8
User.Drawings
6
CONTINUOUS
10
3.0779000787401576
20
-1.1010383464566929
11
3.0689649212598424
21
-1.1022146850393701
0
LINE
8
User.Drawings
6
CONTINUOUS
10
3.0689649212598424
20
-1.1022146850393701
11
3.0644588188976378
21
-1.1023622047244095
0
LINE
8
User.Drawings
6
CONTINUOUS
10
3.0644588188976378
20
-1.1023622047244095
11
2.9530414960629923
21
-1.1023622047244095
0
LINE
8
User.Drawings
6
CONTINUOUS
10
2.9530414960629923
20
-1.1023622047244095
11
2.9485353937007872
21
-1.1022146850393701
0
LINE
8
User.Drawings
6
CONTINUOUS
10
2.9485353937007872
20
-1.1022146850393701
11
2.9396002362204725
21
-1.1010383464566929
0
LINE
8
User.Drawings
6
CONTINUOUS
10
2.9396002362204725
20
-1.1010383464566929
11
2.9308950787401575
21
-1.0987058267716536
0
LINE
8
User.Drawings
6
CONTINUOUS
10
2.9308950787401575
20
-1.0987058267716536
11
2.9225688582677165
21
-1.0952569685039371
0
LINE
8
User.Drawings
6
CONTINUOUS
10
2.9225688582677165
20
-1.0952569685039371
11
2.9147640157480312
21
-1.0907508661417322
0
LINE
8
User.Drawings
6
CONTINUOUS
10
2.9147640157480312
20
-1.0907508661417322
11
2.9076141338582677
21
-1.0852645669291339
0
LINE
8
User.Drawings
6
CONTINUOUS
10
2.9076141338582677
20
-1.0852645669291339
11
2.9012414960629922
21
-1.0788919291338583
0
LINE
8
User.Drawings
6
CONTINUOUS
10
2.9012414960629922
20
-1.0788919291338583
11
2.8957551968503936
21
-1.0717420472440944
0
LINE
8
User.Drawings
6
CONTINUOUS
10
2.8957551968503936
20
-1.0717420472440944
11
2.891249094488189
21
-1.0639372047244093
0
LINE
8
User.Drawings
6
CONTINUOUS
10
2.891249094488189
20
-1.0639372047244093
11
2.8878002362204724
21
-1.0556109842519685
0
LINE
8
User.Drawings
6
CONTINUOUS
10
2.8878002362204724
20
-1.0556109842519685
11
2.885467716535433
21
-1.0469058267716536
0
LINE
8
User.Drawings
6
CONTINUOUS
10
2.885467716535433
20
-1.0469058267716536
11
2.8842913779527559
21
-1.0379706692913386
0
LINE
8
User.Drawings
6
CONTINUOUS
10
2.8842913779527559
20
-1.0379706692913386
11
2.8842913779527559
21
-1.0289584645669292
0
LINE
8
User.Drawings
6
CONTINUOUS
10
2.8842913779527559
20
-1.0289584645669292
11
2.885467716535433
21
-1.020023307086614
0
LINE
8
User.Drawings
6
CONTINUOUS
10
2.885467716535433
20
-1.020023307086614
11
2.8878002362204724
21
-1.0113181496062993
0
LINE
8
User.Drawings
6
CONTINUOUS
10
2.8878002362204724
20
-1.0113181496062993
11
2.891249094488189
21
-1.0029919291338583
0
LINE
8
User.Drawings
6
CONTINUOUS
10
2.891249094488189
20
-1.0029919291338583
11
2.8957551968503936
21
-0.9951870866141732
0
LINE
8
User.Drawings
6
CONTINUOUS
10
2.8957551968503936
20
-0.9951870866141732
11
2.9012414960629922
21
-0.9880372047244095
0
LINE
8
User.Drawings
6
CONTINUOUS
10
2.9012414960629922
20
-0.9880372047244095
11
2.9076141338582677
21
-0.9816645669291338
0
LINE
8
User.Drawings
6
CONTINUOUS
10
2.9076141338582677
20
-0.9816645669291338
11
2.9147640157480312
21
-0.9761782677165354
0
LINE
8
User.Drawings
6
CONTINUOUS
10
2.9147640157480312
20
-0.9761782677165354
11
2.9225688582677165
21
-0.9716721653543307
0
LINE
8
User.Drawings
6
CONTINUOUS
10
2.9225688582677165
20
-0.9716721653543307
11
2.9308950787401575
21
-0.9682233070866142
0
LINE
8
User.Drawings
6
CONTINUOUS
10
2.9308950787401575
20
-0.9682233070866142
11
2.9396002362204725
21
-0.9658907874015747
0
LINE
8
User.Drawings
6
CONTINUOUS
10
2.9396002362204725
20
-0.9658907874015747
11
2.9485353937007872
21
-0.9647144488188976
0
LINE
8
User.Drawings
6
CONTINUOUS
10
2.9485353937007872
20
-0.9647144488188976
11
2.9530414960629923
21
-0.9645669291338582
0
LINE
8
User.Drawings
6
CONTINUOUS
10
2.9530414960629923
20
-0.9645669291338582
11
3.0644588188976378
21
-0.9645669291338582
0
LINE
8
User.Drawings
6
CONTINUOUS
10
3.0644588188976378
20
-0.9645669291338582
11
3.0689649212598424
21
-0.9647144488188976
0
LINE
8
User.Drawings
6
CONTINUOUS
10
3.0689649212598424
20
-5.7875490944881891
11
3.0779000787401576
21
-5.7887254330708657
0
LINE
8
User.Drawings
6
CONTINUOUS
10
3.0779000787401576
20
-5.7887254330708657
11
3.0866052362204726
21
-5.7910579527559056
0
LINE
8
User.Drawings
6
CONTINUOUS
10
3.0866052362204726
20
-5.7910579527559056
11
3.0949314566929131
21
-5.7945068110236218
0
LINE
8
User.Drawings
6
CONTINUOUS
10
3.0949314566929131
20
-5.7945068110236218
11
3.1027362992125984
21
-5.7990129133858268
0
LINE
8
User.Drawings
6
CONTINUOUS
10
3.1027362992125984
20
-5.7990129133858268
11
3.1098861811023619
21
-5.8044992125984249
0
LINE
8
User.Drawings
6
CONTINUOUS
10
3.1098861811023619
20
-5.8044992125984249
11
3.1162588188976379
21
-5.8108718503937009
0
LINE
8
User.Drawings
6
CONTINUOUS
10
3.1162588188976379
20
-5.8108718503937009
11
3.121745118110236
21
-5.8180217322834649
0
LINE
8
User.Drawings
6
CONTINUOUS
10
3.121745118110236
20
-5.8180217322834649
11
3.1262512204724411
21
-5.8258265748031492
0
LINE
8
User.Drawings
6
CONTINUOUS
10
3.1262512204724411
20
-5.8258265748031492
11
3.1297000787401572
21
-5.8341527952755907
0
LINE
8
User.Drawings
6
CONTINUOUS
10
3.1297000787401572
20
-5.8341527952755907
11
3.1320325984251967
21
-5.8428579527559057
0
LINE
8
User.Drawings
6
CONTINUOUS
10
3.1320325984251967
20
-5.8428579527559057
11
3.1332089370078737
21
-5.85179311023622
0
LINE
8
User.Drawings
6
CONTINUOUS
10
3.1332089370078737
20
-5.85179311023622
11
3.1332089370078737
21
-5.8608053149606301
0
LINE
8
User.Drawings
6
CONTINUOUS
10
3.1332089370078737
20
-5.8608053149606301
11
3.1320325984251967
21
-5.8697404724409443
0
LINE
8
User.Drawings
6
CONTINUOUS
10
3.1320325984251967
20
-5.8697404724409443
11
3.1297000787401572
21
-5.8784456299212593
0
LINE
8
User.Drawings
6
CONTINUOUS
10
3.1297000787401572
20
-5.8784456299212593
11
3.1262512204724411
21
-5.8867718503937008
0
LINE
8
User.Drawings
6
CONTINUOUS
10
3.1262512204724411
20
-5.8867718503937008
11
3.121745118110236
21
-5.894576692913386
0
LINE
8
User.Drawings
6
CONTINUOUS
10
3.121745118110236
20
-5.894576692913386
11
3.1162588188976379
21
-5.9017265748031491
0
LINE
8
User.Drawings
6
CONTINUOUS
10
3.1162588188976379
20
-5.9017265748031491
11
3.1098861811023619
21
-5.9080992125984251
0
LINE
8
User.Drawings
6
CONTINUOUS
10
3.1098861811023619
20
-5.9080992125984251
11
3.1027362992125984
21
-5.9135855118110232
0
LINE
8
User.Drawings
6
CONTINUOUS
10
3.1027362992125984
20
-5.9135855118110232
11
3.0949314566929131
21
-5.9180916141732283
0
LINE
8
User.Drawings
6
CONTINUOUS
10
3.0949314566929131
20
-5.9180916141732283
11
3.0866052362204726
21
-5.9215404724409444
0
LINE
8
User.Drawings
6
CONTINUOUS
10
3.0866052362204726
20
-5.9215404724409444
11
3.0779000787401576
21
-5.9238729921259843
0
LINE
8
User.Drawings
6
CONTINUOUS
10
3.0779000787401576
20
-5.9238729921259843
11
3.0689649212598424
21
-5.9250493307086609
0
LINE
8
User.Drawings
6
CONTINUOUS
10
3.0689649212598424
20
-5.9250493307086609
11
3.0644588188976378
21
-5.9251968503937009
0
LINE
8
User.Drawings
6
CONTINUOUS
10
3.0644588188976378
20
-5.9251968503937009
11
2.9530414960629923
21
-5.9251968503937009
0
LINE
8
User.Drawings
6
CONTINUOUS
10
2.9530414960629923
20
-5.9251968503937009
11
2.9485353937007872
21
-5.9250493307086609
0
LINE
8
User.Drawings
6
CONTINUOUS
10
2.9485353937007872
20
-5.9250493307086609
11
2.9396002362204725
21
-5.9238729921259843
0
LINE
8
User.Drawings
6
CONTINUOUS
10
2.9396002362204725
20
-5.9238729921259843
11
2.9308950787401575
21
-5.9215404724409444
0
LINE
8
User.Drawings
6
CONTINUOUS
10
2.9308950787401575
20
-5.9215404724409444
11
2.9225688582677165
21
-5.9180916141732283
0
LINE
8
User.Drawings
6
CONTINUOUS
10
2.9225688582677165
20
-5.9180916141732283
11
2.9147640157480312
21
-5.9135855118110232
0
LINE
8
User.Drawings
6
CONTINUOUS
10
2.9147640157480312
20
-5.9135855118110232
11
2.9076141338582677
21
-5.9080992125984251
0
LINE
8
User.Drawings
6
CONTINUOUS
10
2.9076141338582677
20
-5.9080992125984251
11
2.9012414960629922
21
-5.9017265748031491
0
LINE
8
User.Drawings
6
CONTINUOUS
10
2.9012414960629922
20
-5.9017265748031491
11
2.8957551968503936
21
-5.894576692913386
0
LINE
8
User.Drawings
6
CONTINUOUS
10
2.8957551968503936
20
-5.894576692913386
11
2.891249094488189
21
-5.8867718503937008
0
LINE
8
User.Drawings
6
CONTINUOUS
10
2.891249094488189
20
-5.8867718503937008
11
2.8878002362204724
21
-5.8784456299212593
0
LINE
8
User.Drawings
6
CONTINUOUS
10
2.8878002362204724
20
-5.8784456299212593
11
2.885467716535433
21
-5.8697404724409443
0
LINE
8
User.Drawings
6
CONTINUOUS
10
2.885467716535433
20
-5.8697404724409443
11
2.8842913779527559
21
-5.8608053149606301
0
LINE
8
User.Drawings
6
CONTINUOUS
10
2.8842913779527559
20
-5.8608053149606301
11
2.8842913779527559
21
-5.85179311023622
0
LINE
8
User.Drawings
6
CONTINUOUS
10
2.8842913779527559
20
-5.85179311023622
11
2.885467716535433
21
-5.8428579527559057
0
LINE
8
User.Drawings
6
CONTINUOUS
10
2.885467716535433
20
-5.8428579527559057
11
2.8878002362204724
21
-5.8341527952755907
0
LINE
8
User.Drawings
6
CONTINUOUS
10
2.8878002362204724
20
-5.8341527952755907
11
2.891249094488189
21
-5.8258265748031492
0
LINE
8
User.Drawings
6
CONTINUOUS
10
2.891249094488189
20
-5.8258265748031492
11
2.8957551968503936
21
-5.8180217322834649
0
LINE
8
User.Drawings
6
CONTINUOUS
10
2.8957551968503936
20
-5.8180217322834649
11
2.9012414960629922
21
-5.8108718503937009
0
LINE
8
User.Drawings
6
CONTINUOUS
10
2.9012414960629922
20
-5.8108718503937009
11
2.9076141338582677
21
-5.8044992125984249
0
LINE
8
User.Drawings
6
CONTINUOUS
10
2.9076141338582677
20
-5.8044992125984249
11
2.9147640157480312
21
-5.7990129133858268
0
LINE
8
User.Drawings
6
CONTINUOUS
10
2.9147640157480312
20
-5.7990129133858268
11
2.9225688582677165
21
-5.7945068110236218
0
LINE
8
User.Drawings
6
CONTINUOUS
10
2.9225688582677165
20
-5.7945068110236218
11
2.9308950787401575
21
-5.7910579527559056
0
LINE
8
User.Drawings
6
CONTINUOUS
10
2.9308950787401575
20
-5.7910579527559056
11
2.9396002362204725
21
-5.7887254330708657
0
LINE
8
User.Drawings
6
CONTINUOUS
10
2.9396002362204725
20
-5.7887254330708657
11
2.9485353937007872
21
-5.7875490944881891
0
LINE
8
User.Drawings
6
CONTINUOUS
10
2.9485353937007872
20
-5.7875490944881891
11
2.9530414960629923
21
-5.7874015748031491
0
LINE
8
User.Drawings
6
CONTINUOUS
10
2.9530414960629923
20
-5.7874015748031491
11
3.0644588188976378
21
-5.7874015748031491
0
LINE
8
User.Drawings
6
CONTINUOUS
10
3.0644588188976378
20
-5.7874015748031491
11
3.0689649212598424
21
-5.7875490944881891
0
LINE
8
User.Drawings
6
CONTINUOUS
10
4.8622047244094491
20
-0.9647144488188976
11
4.8711398818897633
21
-0.9658907874015747
0
LINE
8
User.Drawings
6
CONTINUOUS
10
4.8711398818897633
20
-0.9658907874015747
11
4.8798450393700783
21
-0.9682233070866142
0
LINE
8
User.Drawings
6
CONTINUOUS
10
4.8798450393700783
20
-0.9682233070866142
11
4.8881712598425198
21
-0.9716721653543307
0
LINE
8
User.Drawings
6
CONTINUOUS
10
4.8881712598425198
20
-0.9716721653543307
11
4.895976102362205
21
-0.9761782677165354
0
LINE
8
User.Drawings
6
CONTINUOUS
10
4.895976102362205
20
-0.9761782677165354
11
4.9031259842519681
21
-0.9816645669291338
0
LINE
8
User.Drawings
6
CONTINUOUS
10
4.9031259842519681
20
-0.9816645669291338
11
4.9094986220472441
21
-0.9880372047244095
0
LINE
8
User.Drawings
6
CONTINUOUS
10
4.9094986220472441
20
-0.9880372047244095
11
4.9149849212598422
21
-0.9951870866141732
0
LINE
8
User.Drawings
6
CONTINUOUS
10
4.9149849212598422
20
-0.9951870866141732
11
4.9194910236220473
21
-1.0029919291338583
0
LINE
8
User.Drawings
6
CONTINUOUS
10
4.9194910236220473
20
-1.0029919291338583
11
4.9229398818897634
21
-1.0113181496062993
0
LINE
8
User.Drawings
6
CONTINUOUS
10
4.9229398818897634
20
-1.0113181496062993
11
4.9252724015748033
21
-1.020023307086614
0
LINE
8
User.Drawings
6
CONTINUOUS
10
4.9252724015748033
20
-1.020023307086614
11
4.9264487401574799
21
-1.0289584645669292
0
LINE
8
User.Drawings
6
CONTINUOUS
10
4.9264487401574799
20
-1.0289584645669292
11
4.9264487401574799
21
-1.0379706692913386
0
LINE
8
User.Drawings
6
CONTINUOUS
10
4.9264487401574799
20
-1.0379706692913386
11
4.9252724015748033
21
-1.0469058267716536
0
LINE
8
User.Drawings
6
CONTINUOUS
10
4.9252724015748033
20
-1.0469058267716536
11
4.9229398818897634
21
-1.0556109842519685
0
LINE
8
User.Drawings
6
CONTINUOUS
10
4.9229398818897634
20
-1.0556109842519685
11
4.9194910236220473
21
-1.0639372047244093
0
LINE
8
User.Drawings
6
CONTINUOUS
10
4.9194910236220473
20
-1.0639372047244093
11
4.9149849212598422
21
-1.0717420472440944
0
LINE
8
User.Drawings
6
CONTINUOUS
10
4.9149849212598422
20
-1.0717420472440944
11
4.9094986220472441
21
-1.0788919291338583
0
LINE
8
User.Drawings
6
CONTINUOUS
10
4.9094986220472441
20
-1.0788919291338583
11
4.9031259842519681
21
-1.0852645669291339
0
LINE
8
User.Drawings
6
CONTINUOUS
10
4.9031259842519681
20
-1.0852645669291339
11
4.895976102362205
21
-1.0907508661417322
0
LINE
8
User.Drawings
6
CONTINUOUS
10
4.895976102362205
20
-1.0907508661417322
11
4.8881712598425198
21
-1.0952569685039371
0
LINE
8
User.Drawings
6
CONTINUOUS
10
4.8881712598425198
20
-1.0952569685039371
11
4.8798450393700783
21
-1.0987058267716536
0
LINE
8
User.Drawings
6
CONTINUOUS
10
4.8798450393700783
20
-1.0987058267716536
11
4.8711398818897633
21
-1.1010383464566929
0
LINE
8
User.Drawings
6
CONTINUOUS
10
4.8711398818897633
20
-1.1010383464566929
11
4.8622047244094491
21
-1.1022146850393701
0
LINE
8
User.Drawings
6
CONTINUOUS
10
4.8622047244094491
20
-1.1022146850393701
11
4.857698622047244
21
-1.1023622047244095
0
LINE
8
User.Drawings
6
CONTINUOUS
10
4.857698622047244
20
-1.1023622047244095
11
4.7462812992125984
21
-1.1023622047244095
0
LINE
8
User.Drawings
6
CONTINUOUS
10
4.7462812992125984
20
-1.1023622047244095
11
4.7417751968503934
21
-1.1022146850393701
0
LINE
8
User.Drawings
6
CONTINUOUS
10
4.7417751968503934
20
-1.1022146850393701
11
4.7328400393700782
21
-1.1010383464566929
0
LINE
8
User.Drawings
6
CONTINUOUS
10
4.7328400393700782
20
-1.1010383464566929
11
4.7241348818897633
21
-1.0987058267716536
0
LINE
8
User.Drawings
6
CONTINUOUS
10
4.7241348818897633
20
-1.0987058267716536
11
4.7158086614173227
21
-1.0952569685039371
0
LINE
8
User.Drawings
6
CONTINUOUS
10
4.7158086614173227
20
-1.0952569685039371
11
4.7080038188976374
21
-1.0907508661417322
0
LINE
8
User.Drawings
6
CONTINUOUS
10
4.7080038188976374
20
-1.0907508661417322
11
4.7008539370078744
21
-1.0852645669291339
0
LINE
8
User.Drawings
6
CONTINUOUS
10
4.7008539370078744
20
-1.0852645669291339
11
4.6944812992125984
21
-1.0788919291338583
0
LINE
8
User.Drawings
6
CONTINUOUS
10
4.6944812992125984
20
-1.0788919291338583
11
4.6889950000000002
21
-1.0717420472440944
0
LINE
8
User.Drawings
6
CONTINUOUS
10
4.6889950000000002
20
-1.0717420472440944
11
4.6844888976377952
21
-1.0639372047244093
0
LINE
8
User.Drawings
6
CONTINUOUS
10
4.6844888976377952
20
-1.0639372047244093
11
4.6810400393700791
21
-1.0556109842519685
0
LINE
8
User.Drawings
6
CONTINUOUS
10
4.6810400393700791
20
-1.0556109842519685
11
4.6787075196850392
21
-1.0469058267716536
0
LINE
8
User.Drawings
6
CONTINUOUS
10
4.6787075196850392
20
-1.0469058267716536
11
4.6775311811023617
21
-1.0379706692913386
0
LINE
8
User.Drawings
6
CONTINUOUS
10
4.6775311811023617
20
-1.0379706692913386
11
4.6775311811023617
21
-1.0289584645669292
0
LINE
8
User.Drawings
6
CONTINUOUS
10
4.6775311811023617
20
-1.0289584645669292
11
4.6787075196850392
21
-1.020023307086614
0
LINE
8
User.Drawings
6
CONTINUOUS
10
4.6787075196850392
20
-1.020023307086614
11
4.6810400393700791
21
-1.0113181496062993
0
LINE
8
User.Drawings
6
CONTINUOUS
10
4.6810400393700791
20
-1.0113181496062993
11
4.6844888976377952
21
-1.0029919291338583
0
LINE
8
User.Drawings
6
CONTINUOUS
10
4.6844888976377952
20
-1.0029919291338583
11
4.6889950000000002
21
-0.9951870866141732
0
LINE
8
User.Drawings
6
CONTINUOUS
10
4.6889950000000002
20
-0.9951870866141732
11
4.6944812992125984
21
-0.9880372047244095
0
LINE
8
User.Drawings
6
CONTINUOUS
10
4.6944812992125984
20
-0.9880372047244095
11
4.7008539370078744
21
-0.9816645669291338
0
LINE
8
User.Drawings
6
CONTINUOUS
10
4.7008539370078744
20
-0.9816645669291338
11
4.7080038188976374
21
-0.9761782677165354
0
LINE
8
User.Drawings
6
CONTINUOUS
10
4.7080038188976374
20
-0.9761782677165354
11
4.7158086614173227
21
-0.9716721653543307
0
LINE
8
User.Drawings
6
CONTINUOUS
10
4.7158086614173227
20
-0.9716721653543307
11
4.7241348818897633
21
-0.9682233070866142
0
LINE
8
User.Drawings
6
CONTINUOUS
10
4.7241348818897633
20
-0.9682233070866142
11
4.7328400393700782
21
-0.9658907874015747
0
LINE
8
User.Drawings
6
CONTINUOUS
10
4.7328400393700782
20
-0.9658907874015747
11
4.7417751968503934
21
-0.9647144488188976
0
LINE
8
User.Drawings
6
CONTINUOUS
10
4.7417751968503934
20
-0.9647144488188976
11
4.7462812992125984
21
-0.9645669291338582
0
LINE
8
User.Drawings
6
CONTINUOUS
10
4.7462812992125984
20
-0.9645669291338582
11
4.857698622047244
21
-0.9645669291338582
0
LINE
8
User.Drawings
6
CONTINUOUS
10
4.857698622047244
20
-0.9645669291338582
11
4.8622047244094491
21
-0.9647144488188976
0
LINE
8
User.Drawings
6
CONTINUOUS
10
4.8622047244094491
20
-5.7875490944881891
11
4.8711398818897633
21
-5.7887254330708657
0
LINE
8
User.Drawings
6
CONTINUOUS
10
4.8711398818897633
20
-5.7887254330708657
11
4.8798450393700783
21
-5.7910579527559056
0
LINE
8
User.Drawings
6
CONTINUOUS
10
4.8798450393700783
20
-5.7910579527559056
11
4.8881712598425198
21
-5.7945068110236218
0
LINE
8
User.Drawings
6
CONTINUOUS
10
4.8881712598425198
20
-5.7945068110236218
11
4.895976102362205
21
-5.7990129133858268
0
LINE
8
User.Drawings
6
CONTINUOUS
10
4.895976102362205
20
-5.7990129133858268
11
4.9031259842519681
21
-5.8044992125984249
0
LINE
8
User.Drawings
6
CONTINUOUS
10
4.9031259842519681
20
-5.8044992125984249
11
4.9094986220472441
21
-5.8108718503937009
0
LINE
8
User.Drawings
6
CONTINUOUS
10
4.9094986220472441
20
-5.8108718503937009
11
4.9149849212598422
21
-5.8180217322834649
0
LINE
8
User.Drawings
6
CONTINUOUS
10
4.9149849212598422
20
-5.8180217322834649
11
4.9194910236220473
21
-5.8258265748031492
0
LINE
8
User.Drawings
6
CONTINUOUS
10
4.9194910236220473
20
-5.8258265748031492
11
4.9229398818897634
21
-5.8341527952755907
0
LINE
8
User.Drawings
6
CONTINUOUS
10
4.9229398818897634
20
-5.8341527952755907
11
4.9252724015748033
21
-5.8428579527559057
0
LINE
8
User.Drawings
6
CONTINUOUS
10
4.9252724015748033
20
-5.8428579527559057
11
4.9264487401574799
21
-5.85179311023622
0
LINE
8
User.Drawings
6
CONTINUOUS
10
4.9264487401574799
20
-5.85179311023622
11
4.9264487401574799
21
-5.8608053149606301
0
LINE
8
User.Drawings
6
CONTINUOUS
10
4.9264487401574799
20
-5.8608053149606301
11
4.9252724015748033
21
-5.8697404724409443
0
LINE
8
User.Drawings
6
CONTINUOUS
10
4.9252724015748033
20
-5.8697404724409443
11
4.9229398818897634
21
-5.8784456299212593
0
LINE
8
User.Drawings
6
CONTINUOUS
10
4.9229398818897634
20
-5.8784456299212593
11
4.9194910236220473
21
-5.8867718503937008
0
LINE
8
User.Drawings
6
CONTINUOUS
10
4.9194910236220473
20
-5.8867718503937008
11
4.9149849212598422
21
-5.894576692913386
0
LINE
8
User.Drawings
6
CONTINUOUS
10
4.9149849212598422
20
-5.894576692913386
11
4.9094986220472441
21
-5.9017265748031491
0
LINE
8
User.Drawings
6
CONTINUOUS
10
4.9094986220472441
20
-5.9017265748031491
11
4.9031259842519681
21
-5.9080992125984251
0
LINE
8
User.Drawings
6
CONTINUOUS
10
4.9031259842519681
20
-5.9080992125984251
11
4.895976102362205
21
-5.9135855118110232
0
LINE
8
User.Drawings
6
CONTINUOUS
10
4.895976102362205
20
-5.9135855118110232
11
4.8881712598425198
21
-5.9180916141732283
0
LINE
8
User.Drawings
6
CONTINUOUS
10
4.8881712598425198
20
-5.9180916141732283
11
4.8798450393700783
21
-5.9215404724409444
0
LINE
8
User.Drawings
6
CONTINUOUS
10
4.8798450393700783
20
-5.9215404724409444
11
4.8711398818897633
21
-5.9238729921259843
0
LINE
8
User.Drawings
6
CONTINUOUS
10
4.8711398818897633
20
-5.9238729921259843
11
4.8622047244094491
21
-5.9250493307086609
0
LINE
8
User.Drawings
6
CONTINUOUS
10
4.8622047244094491
20
-5.9250493307086609
11
4.857698622047244
21
-5.9251968503937009
0
LINE
8
User.Drawings
6
CONTINUOUS
10
4.857698622047244
20
-5.9251968503937009
11
4.7462812992125984
21
-5.9251968503937009
0
LINE
8
User.Drawings
6
CONTINUOUS
10
4.7462812992125984
20
-5.9251968503937009
11
4.7417751968503934
21
-5.9250493307086609
0
LINE
8
User.Drawings
6
CONTINUOUS
10
4.7417751968503934
20
-5.9250493307086609
11
4.7328400393700782
21
-5.9238729921259843
0
LINE
8
User.Drawings
6
CONTINUOUS
10
4.7328400393700782
20
-5.9238729921259843
11
4.7241348818897633
21
-5.9215404724409444
0
LINE
8
User.Drawings
6
CONTINUOUS
10
4.7241348818897633
20
-5.9215404724409444
11
4.7158086614173227
21
-5.9180916141732283
0
LINE
8
User.Drawings
6
CONTINUOUS
10
4.7158086614173227
20
-5.9180916141732283
11
4.7080038188976374
21
-5.9135855118110232
0
LINE
8
User.Drawings
6
CONTINUOUS
10
4.7080038188976374
20
-5.9135855118110232
11
4.7008539370078744
21
-5.9080992125984251
0
LINE
8
User.Drawings
6
CONTINUOUS
10
4.7008539370078744
20
-5.9080992125984251
11
4.6944812992125984
21
-5.9017265748031491
0
LINE
8
User.Drawings
6
CONTINUOUS
10
4.6944812992125984
20
-5.9017265748031491
11
4.6889950000000002
21
-5.894576692913386
0
LINE
8
User.Drawings
6
CONTINUOUS
10
4.6889950000000002
20
-5.894576692913386
11
4.6844888976377952
21
-5.8867718503937008
0
LINE
8
User.Drawings
6
CONTINUOUS
10
4.6844888976377952
20
-5.8867718503937008
11
4.6810400393700791
21
-5.8784456299212593
0
LINE
8
User.Drawings
6
CONTINUOUS
10
4.6810400393700791
20
-5.8784456299212593
11
4.6787075196850392
21
-5.8697404724409443
0
LINE
8
User.Drawings
6
CONTINUOUS
10
4.6787075196850392
20
-5.8697404724409443
11
4.6775311811023617
21
-5.8608053149606301
0
LINE
8
User.Drawings
6
CONTINUOUS
10
4.6775311811023617
20
-5.8608053149606301
11
4.6775311811023617
21
-5.85179311023622
0
LINE
8
User.Drawings
6
CONTINUOUS
10
4.6775311811023617
20
-5.85179311023622
11
4.6787075196850392
21
-5.8428579527559057
0
LINE
8
User.Drawings
6
CONTINUOUS
10
4.6787075196850392
20
-5.8428579527559057
11
4.6810400393700791
21
-5.8341527952755907
0
LINE
8
User.Drawings
6
CONTINUOUS
10
4.6810400393700791
20
-5.8341527952755907
11
4.6844888976377952
21
-5.8258265748031492
0
LINE
8
User.Drawings
6
CONTINUOUS
10
4.6844888976377952
20
-5.8258265748031492
11
4.6889950000000002
21
-5.8180217322834649
0
LINE
8
User.Drawings
6
CONTINUOUS
10
4.6889950000000002
20
-5.8180217322834649
11
4.6944812992125984
21
-5.8108718503937009
0
LINE
8
User.Drawings
6
CONTINUOUS
10
4.6944812992125984
20
-5.8108718503937009
11
4.7008539370078744
21
-5.8044992125984249
0
LINE
8
User.Drawings
6
CONTINUOUS
10
4.7008539370078744
20
-5.8044992125984249
11
4.7080038188976374
21
-5.7990129133858268
0
LINE
8
User.Drawings
6
CONTINUOUS
10
4.7080038188976374
20
-5.7990129133858268
11
4.7158086614173227
21
-5.7945068110236218
0
LINE
8
User.Drawings
6
CONTINUOUS
10
4.7158086614173227
20
-5.7945068110236218
11
4.7241348818897633
21
-5.7910579527559056
0
LINE
8
User.Drawings
6
CONTINUOUS
10
4.7241348818897633
20
-5.7910579527559056
11
4.7328400393700782
21
-5.7887254330708657
0
LINE
8
User.Drawings
6
CONTINUOUS
10
4.7328400393700782
20
-5.7887254330708657
11
4.7417751968503934
21
-5.7875490944881891
0
LINE
8
User.Drawings
6
CONTINUOUS
10
4.7417751968503934
20
-5.7875490944881891
11
4.7462812992125984
21
-5.7874015748031491
0
LINE
8
User.Drawings
6
CONTINUOUS
10
4.7462812992125984
20
-5.7874015748031491
11
4.857698622047244
21
-5.7874015748031491
0
LINE
8
User.Drawings
6
CONTINUOUS
10
4.857698622047244
20
-5.7874015748031491
11
4.8622047244094491
21
-5.7875490944881891
0
CIRCLE
8
User.Drawings
10
3.3661417322834644
20
-4.9212598425196852
40
0.1023622047244094
0
CIRCLE
8
User.Drawings
10
3.7598425196850394
20
-2.0472440944881889
40
0.0590551181102362
0
CIRCLE
8
User.Drawings
10
3.2086614173228347
20
-1.4960629921259843
40
0.0590551181102362
0
CIRCLE
8
User.Drawings
10
4.6437200787401576
20
-2.1653543307086616
40
0.125
0
CIRCLE
8
User.Drawings
10
4.1511216535433073
20
-2.1653543307086616
40
0.125
0
CIRCLE
8
User.Drawings
10
4.9212598425196852
20
-1.4960629921259843
40
0.0590551181102362
0
CIRCLE
8
User.Drawings
10
3.7598425196850394
20
-3.1496062992125982
40
0.0590551181102362
0
CIRCLE
8
User.Drawings
10
4.6437200787401576
20
-2.7165354330708662
40
0.125
0
CIRCLE
8
User.Drawings
10
3.5019877952755905
20
-2.1653543307086616
40
0.125
0
CIRCLE
8
User.Drawings
10
4.5273814960629917
20
-3.8121948818897637
40
0.125
0
CIRCLE
8
User.Drawings
10
3.2086614173228347
20
-2.0472440944881889
40
0.0590551181102362
0
CIRCLE
8
User.Drawings
10
4.7653543307086617
20
-4.9409448818897639
40
0.1
0
LINE
8
User.Drawings
6
CONTINUOUS
10
3.2362204724409449
20
-5.278051181102362
11
4.6362204724409448
21
-5.278051181102362
0
LINE
8
User.Drawings
6
CONTINUOUS
10
4.6362204724409448
20
-5.278051181102362
11
4.6362204724409448
21
-5.403051181102362
0
LINE
8
User.Drawings
6
CONTINUOUS
10
4.6362204724409448
20
-5.403051181102362
11
3.2362204724409449
21
-5.403051181102362
0
LINE
8
User.Drawings
6
CONTINUOUS
10
3.2362204724409449
20
-5.403051181102362
11
3.2362204724409449
21
-5.278051181102362
0
CIRCLE
8
User.Drawings
10
3.1362204724409448
20
-5.340551181102362
40
0.0625
0
CIRCLE
8
User.Drawings
10
4.7362204724409445
20
-5.340551181102362
40
0.0625
0
CIRCLE
8
User.Drawings
10
2.9508066929133858
20
-1.6141732283464567
40
0.125
0
CIRCLE
8
User.Drawings
10
4.9212598425196852
20
-3.1496062992125982
40
0.0590551181102362
0
CIRCLE
8
User.Drawings
10
3.5019877952755905
20
-2.7165354330708662
40
0.125
0
CIRCLE
8
User.Drawings
10
3.2086614173228347
20
-3.1496062992125982
40
0.0590551181102362
0
CIRCLE
8
User.Drawings
10
4.7653543307086617
20
-4.5669291338582676
40
0.1
0
CIRCLE
8
User.Drawings
10
4.6437200787401576
20
-3.2677165354330708
40
0.125
0
CIRCLE
8
User.Drawings
10
3.7598425196850394
20
-2.5984251968503935
40
0.0590551181102362
0
LINE
8
User.Drawings
6
CONTINUOUS
10
5.0856299212598426
20
-4.4291338582677167
11
5.0856299212598426
21
-4.0354330708661417
  0
ENDSEC
  0
EOF
