  0
SECTION
  2
HEADER
  9
$ANGBASE
  50
0.0
  9
$ANGDIR
  70
1
  9
$MEASUREMENT
  70
1
  9
$INSUNITS
  70
4
  0
ENDSEC
  0
SECTION
  2
TABLES
  0
TABLE
  2
LTYPE
  70
4
  0
LTYPE
  5
40F
  2
CONTINUOUS
  70
0
  3
Solid line
  72
65
  73
0
  40
0.0
  0
LTYPE
  5
410
  2
DASHDOT
 70
0
  3
Dash Dot ____ _ ____ _
 72
65
 73
4
 40
2.0
 49
1.25
 49
-0.25
 49
0.25
 49
-0.25
  0
LTYPE
  5
411
  2
DASHED
 70
0
  3
Dashed __ __ __ __ __
 72
65
 73
2
 40
0.75
 49
0.5
 49
-0.25
  0
LTYPE
  5
43B
  2
DOTTED
 70
0
  3
Dotted .  .  .  .
 72
65
 73
2
 40
0.2
 49
0.0
 49
-0.2
  0
ENDTAB
  0
TABLE
  2
STYLE
  70
4
  0
STYLE
  2
KICAD
  70
0
  40
0
  41
1
  42
1
  50
0
  71
0
  3
isocp.shx
  0
STYLE
  2
KICADB
  70
0
  40
0
  41
1
  42
1
  50
0
  71
0
  3
isocp.shx
  0
STYLE
  2
KICADI
  70
0
  40
0
  41
1
  42
1
  50
15
  71
0
  3
isocp.shx
  0
STYLE
  2
KICADBI
  70
0
  40
0
  41
1
  42
1
  50
15
  71
0
  3
isocp.shx
  0
ENDTAB
  0
TABLE
  2
LAYER
  70
1
  0
LAYER
  2
User.Drawings
  70
0
  62
9
  420
12763842
  6
CONTINUOUS
  0
ENDTAB
  0
ENDSEC
  0
SECTION
  2
ENTITIES
0
LINE
8
User.Drawings
6
CONTINUOUS
10
172.4377089999999839
20
-77.6393249999999995
11
171.9377089999999839
21
-77.6393249999999995
0
LINE
8
User.Drawings
6
CONTINUOUS
10
171.9377089999999839
20
-77.6393249999999995
11
171.9377089999999839
21
-77.4488489999999956
0
LINE
8
User.Drawings
6
CONTINUOUS
10
171.9377089999999839
20
-77.4488489999999956
11
171.9615189999999814
21
-77.4012299999999982
0
LINE
8
User.Drawings
6
CONTINUOUS
10
171.9615189999999814
20
-77.4012299999999982
11
171.9853279999999813
21
-77.3774200000000008
0
LINE
8
User.Drawings
6
CONTINUOUS
10
171.9853279999999813
20
-77.3774200000000008
11
172.0329469999999787
21
-77.3536110000000008
0
LINE
8
User.Drawings
6
CONTINUOUS
10
172.0329469999999787
20
-77.3536110000000008
11
172.104376000000002
21
-77.3536110000000008
0
LINE
8
User.Drawings
6
CONTINUOUS
10
172.104376000000002
20
-77.3536110000000008
11
172.1519949999999994
21
-77.3774200000000008
0
LINE
8
User.Drawings
6
CONTINUOUS
10
172.1519949999999994
20
-77.3774200000000008
11
172.1758039999999994
21
-77.4012299999999982
0
LINE
8
User.Drawings
6
CONTINUOUS
10
172.1758039999999994
20
-77.4012299999999982
11
172.1996139999999968
21
-77.4488489999999956
0
LINE
8
User.Drawings
6
CONTINUOUS
10
172.1996139999999968
20
-77.4488489999999956
11
172.1996139999999968
21
-77.6393249999999995
0
LINE
8
User.Drawings
6
CONTINUOUS
10
172.3900899999999865
20
-76.8536110000000008
11
172.4138999999999839
21
-76.8774200000000008
0
LINE
8
User.Drawings
6
CONTINUOUS
10
172.4138999999999839
20
-76.8774200000000008
11
172.4377089999999839
21
-76.9488489999999956
0
LINE
8
User.Drawings
6
CONTINUOUS
10
172.4377089999999839
20
-76.9488489999999956
11
172.4377089999999839
21
-76.996467999999993
0
LINE
8
User.Drawings
6
CONTINUOUS
10
172.4377089999999839
20
-76.996467999999993
11
172.4138999999999839
21
-77.0678959999999904
0
LINE
8
User.Drawings
6
CONTINUOUS
10
172.4138999999999839
20
-77.0678959999999904
11
172.3662799999999891
21
-77.115515000000002
0
LINE
8
User.Drawings
6
CONTINUOUS
10
172.3662799999999891
20
-77.115515000000002
11
172.3186609999999916
21
-77.1393249999999995
0
LINE
8
User.Drawings
6
CONTINUOUS
10
172.3186609999999916
20
-77.1393249999999995
11
172.2234229999999968
21
-77.1631339999999994
0
LINE
8
User.Drawings
6
CONTINUOUS
10
172.2234229999999968
20
-77.1631339999999994
11
172.1519949999999994
21
-77.1631339999999994
0
LINE
8
User.Drawings
6
CONTINUOUS
10
172.1519949999999994
20
-77.1631339999999994
11
172.0567570000000046
21
-77.1393249999999995
0
LINE
8
User.Drawings
6
CONTINUOUS
10
172.0567570000000046
20
-77.1393249999999995
11
172.0091379999999788
21
-77.115515000000002
0
LINE
8
User.Drawings
6
CONTINUOUS
10
172.0091379999999788
20
-77.115515000000002
11
171.9615189999999814
21
-77.0678959999999904
0
LINE
8
User.Drawings
6
CONTINUOUS
10
171.9615189999999814
20
-77.0678959999999904
11
171.9377089999999839
21
-76.996467999999993
0
LINE
8
User.Drawings
6
CONTINUOUS
10
171.9377089999999839
20
-76.996467999999993
11
171.9377089999999839
21
-76.9488489999999956
0
LINE
8
User.Drawings
6
CONTINUOUS
10
171.9377089999999839
20
-76.9488489999999956
11
171.9615189999999814
21
-76.8774200000000008
0
LINE
8
User.Drawings
6
CONTINUOUS
10
171.9615189999999814
20
-76.8774200000000008
11
171.9853279999999813
21
-76.8536110000000008
0
LINE
8
User.Drawings
6
CONTINUOUS
10
172.1758039999999994
20
-76.4726579999999956
11
172.1996139999999968
21
-76.4012299999999982
0
LINE
8
User.Drawings
6
CONTINUOUS
10
172.1996139999999968
20
-76.4012299999999982
11
172.2234229999999968
21
-76.3774200000000008
0
LINE
8
User.Drawings
6
CONTINUOUS
10
172.2234229999999968
20
-76.3774200000000008
11
172.2710419999999942
21
-76.3536110000000008
0
LINE
8
User.Drawings
6
CONTINUOUS
10
172.2710419999999942
20
-76.3536110000000008
11
172.3424709999999891
21
-76.3536110000000008
0
LINE
8
User.Drawings
6
CONTINUOUS
10
172.3424709999999891
20
-76.3536110000000008
11
172.3900899999999865
21
-76.3774200000000008
0
LINE
8
User.Drawings
6
CONTINUOUS
10
172.3900899999999865
20
-76.3774200000000008
11
172.4138999999999839
21
-76.4012299999999982
0
LINE
8
User.Drawings
6
CONTINUOUS
10
172.4138999999999839
20
-76.4012299999999982
11
172.4377089999999839
21
-76.4488489999999956
0
LINE
8
User.Drawings
6
CONTINUOUS
10
172.4377089999999839
20
-76.4488489999999956
11
172.4377089999999839
21
-76.6393249999999995
0
LINE
8
User.Drawings
6
CONTINUOUS
10
172.4377089999999839
20
-76.6393249999999995
11
171.9377089999999839
21
-76.6393249999999995
0
LINE
8
User.Drawings
6
CONTINUOUS
10
171.9377089999999839
20
-76.6393249999999995
11
171.9377089999999839
21
-76.4726579999999956
0
LINE
8
User.Drawings
6
CONTINUOUS
10
171.9377089999999839
20
-76.4726579999999956
11
171.9615189999999814
21
-76.4250389999999982
0
LINE
8
User.Drawings
6
CONTINUOUS
10
171.9615189999999814
20
-76.4250389999999982
11
171.9853279999999813
21
-76.4012299999999982
0
LINE
8
User.Drawings
6
CONTINUOUS
10
171.9853279999999813
20
-76.4012299999999982
11
172.0329469999999787
21
-76.3774200000000008
0
LINE
8
User.Drawings
6
CONTINUOUS
10
172.0329469999999787
20
-76.3774200000000008
11
172.0805660000000046
21
-76.3774200000000008
0
LINE
8
User.Drawings
6
CONTINUOUS
10
172.0805660000000046
20
-76.3774200000000008
11
172.128185000000002
21
-76.4012299999999982
0
LINE
8
User.Drawings
6
CONTINUOUS
10
172.128185000000002
20
-76.4012299999999982
11
172.1519949999999994
21
-76.4250389999999982
0
LINE
8
User.Drawings
6
CONTINUOUS
10
172.1519949999999994
20
-76.4250389999999982
11
172.1758039999999994
21
-76.4726579999999956
0
LINE
8
User.Drawings
6
CONTINUOUS
10
172.1758039999999994
20
-76.4726579999999956
11
172.1758039999999994
21
-76.6393249999999995
0
LINE
8
User.Drawings
6
CONTINUOUS
10
172.1758039999999994
20
-75.7583729999999917
11
172.1758039999999994
21
-75.5917060000000021
0
LINE
8
User.Drawings
6
CONTINUOUS
10
172.4377089999999839
20
-75.5202779999999905
11
172.4377089999999839
21
-75.7583729999999917
0
LINE
8
User.Drawings
6
CONTINUOUS
10
172.4377089999999839
20
-75.7583729999999917
11
171.9377089999999839
21
-75.7583729999999917
0
LINE
8
User.Drawings
6
CONTINUOUS
10
171.9377089999999839
20
-75.7583729999999917
11
171.9377089999999839
21
-75.5202779999999905
0
LINE
8
User.Drawings
6
CONTINUOUS
10
172.4377089999999839
20
-75.0917060000000021
11
171.9377089999999839
21
-75.0917060000000021
0
LINE
8
User.Drawings
6
CONTINUOUS
10
172.4138999999999839
20
-75.0917060000000021
11
172.4377089999999839
21
-75.1393249999999995
0
LINE
8
User.Drawings
6
CONTINUOUS
10
172.4377089999999839
20
-75.1393249999999995
11
172.4377089999999839
21
-75.2345629999999943
0
LINE
8
User.Drawings
6
CONTINUOUS
10
172.4377089999999839
20
-75.2345629999999943
11
172.4138999999999839
21
-75.2821819999999917
0
LINE
8
User.Drawings
6
CONTINUOUS
10
172.4138999999999839
20
-75.2821819999999917
11
172.3900899999999865
21
-75.3059920000000034
0
LINE
8
User.Drawings
6
CONTINUOUS
10
172.3900899999999865
20
-75.3059920000000034
11
172.3424709999999891
21
-75.3298010000000033
0
LINE
8
User.Drawings
6
CONTINUOUS
10
172.3424709999999891
20
-75.3298010000000033
11
172.1996139999999968
21
-75.3298010000000033
0
LINE
8
User.Drawings
6
CONTINUOUS
10
172.1996139999999968
20
-75.3298010000000033
11
172.1519949999999994
21
-75.3059920000000034
0
LINE
8
User.Drawings
6
CONTINUOUS
10
172.1519949999999994
20
-75.3059920000000034
11
172.128185000000002
21
-75.2821819999999917
0
LINE
8
User.Drawings
6
CONTINUOUS
10
172.128185000000002
20
-75.2821819999999917
11
172.104376000000002
21
-75.2345629999999943
0
LINE
8
User.Drawings
6
CONTINUOUS
10
172.104376000000002
20
-75.2345629999999943
11
172.104376000000002
21
-75.1393249999999995
0
LINE
8
User.Drawings
6
CONTINUOUS
10
172.104376000000002
20
-75.1393249999999995
11
172.128185000000002
21
-75.0917060000000021
0
LINE
8
User.Drawings
6
CONTINUOUS
10
172.104376000000002
20
-74.6393249999999995
11
172.5091379999999788
21
-74.6393249999999995
0
LINE
8
User.Drawings
6
CONTINUOUS
10
172.5091379999999788
20
-74.6393249999999995
11
172.5567570000000046
21
-74.6631349999999969
0
LINE
8
User.Drawings
6
CONTINUOUS
10
172.5567570000000046
20
-74.6631349999999969
11
172.5805660000000046
21
-74.6869439999999969
0
LINE
8
User.Drawings
6
CONTINUOUS
10
172.5805660000000046
20
-74.6869439999999969
11
172.604376000000002
21
-74.7345629999999943
0
LINE
8
User.Drawings
6
CONTINUOUS
10
172.604376000000002
20
-74.7345629999999943
11
172.604376000000002
21
-74.8059920000000034
0
LINE
8
User.Drawings
6
CONTINUOUS
10
172.604376000000002
20
-74.8059920000000034
11
172.5805660000000046
21
-74.8536110000000008
0
LINE
8
User.Drawings
6
CONTINUOUS
10
172.4138999999999839
20
-74.6393249999999995
11
172.4377089999999839
21
-74.6869439999999969
0
LINE
8
User.Drawings
6
CONTINUOUS
10
172.4377089999999839
20
-74.6869439999999969
11
172.4377089999999839
21
-74.7821819999999917
0
LINE
8
User.Drawings
6
CONTINUOUS
10
172.4377089999999839
20
-74.7821819999999917
11
172.4138999999999839
21
-74.8298010000000033
0
LINE
8
User.Drawings
6
CONTINUOUS
10
172.4138999999999839
20
-74.8298010000000033
11
172.3900899999999865
21
-74.8536110000000008
0
LINE
8
User.Drawings
6
CONTINUOUS
10
172.3900899999999865
20
-74.8536110000000008
11
172.3424709999999891
21
-74.8774200000000008
0
LINE
8
User.Drawings
6
CONTINUOUS
10
172.3424709999999891
20
-74.8774200000000008
11
172.1996139999999968
21
-74.8774200000000008
0
LINE
8
User.Drawings
6
CONTINUOUS
10
172.1996139999999968
20
-74.8774200000000008
11
172.1519949999999994
21
-74.8536110000000008
0
LINE
8
User.Drawings
6
CONTINUOUS
10
172.1519949999999994
20
-74.8536110000000008
11
172.128185000000002
21
-74.8298010000000033
0
LINE
8
User.Drawings
6
CONTINUOUS
10
172.128185000000002
20
-74.8298010000000033
11
172.104376000000002
21
-74.7821819999999917
0
LINE
8
User.Drawings
6
CONTINUOUS
10
172.104376000000002
20
-74.7821819999999917
11
172.104376000000002
21
-74.6869439999999969
0
LINE
8
User.Drawings
6
CONTINUOUS
10
172.104376000000002
20
-74.6869439999999969
11
172.128185000000002
21
-74.6393249999999995
0
LINE
8
User.Drawings
6
CONTINUOUS
10
172.4138999999999839
20
-74.2107539999999943
11
172.4377089999999839
21
-74.2583729999999917
0
LINE
8
User.Drawings
6
CONTINUOUS
10
172.4377089999999839
20
-74.2583729999999917
11
172.4377089999999839
21
-74.3536110000000008
0
LINE
8
User.Drawings
6
CONTINUOUS
10
172.4377089999999839
20
-74.3536110000000008
11
172.4138999999999839
21
-74.4012299999999982
0
LINE
8
User.Drawings
6
CONTINUOUS
10
172.4138999999999839
20
-74.4012299999999982
11
172.3662799999999891
21
-74.4250389999999982
0
LINE
8
User.Drawings
6
CONTINUOUS
10
172.3662799999999891
20
-74.4250389999999982
11
172.1758039999999994
21
-74.4250389999999982
0
LINE
8
User.Drawings
6
CONTINUOUS
10
172.1758039999999994
20
-74.4250389999999982
11
172.128185000000002
21
-74.4012299999999982
0
LINE
8
User.Drawings
6
CONTINUOUS
10
172.128185000000002
20
-74.4012299999999982
11
172.104376000000002
21
-74.3536110000000008
0
LINE
8
User.Drawings
6
CONTINUOUS
10
172.104376000000002
20
-74.3536110000000008
11
172.104376000000002
21
-74.2583729999999917
0
LINE
8
User.Drawings
6
CONTINUOUS
10
172.104376000000002
20
-74.2583729999999917
11
172.128185000000002
21
-74.2107539999999943
0
LINE
8
User.Drawings
6
CONTINUOUS
10
172.128185000000002
20
-74.2107539999999943
11
172.1758039999999994
21
-74.1869439999999969
0
LINE
8
User.Drawings
6
CONTINUOUS
10
172.1758039999999994
20
-74.1869439999999969
11
172.2234229999999968
21
-74.1869439999999969
0
LINE
8
User.Drawings
6
CONTINUOUS
10
172.2234229999999968
20
-74.1869439999999969
11
172.2710419999999942
21
-74.4250389999999982
0
CIRCLE
8
User.Drawings
10
127.6368539999999996
20
-152.5060399999999845
40
3.1749999999999998
0
CIRCLE
8
User.Drawings
10
149.2763640000000009
20
-76.3060399999999959
40
3.75
0
CIRCLE
8
User.Drawings
10
157.4818539999999985
20
-110.9135399999999976
40
3.1749999999999998
0
CIRCLE
8
User.Drawings
10
165.7863639999999918
20
-89.0060399999999987
40
3.75
0
CIRCLE
8
User.Drawings
10
157.4818539999999985
20
-138.8535399999999811
40
3.1749999999999998
0
CIRCLE
8
User.Drawings
10
167.3243539999999996
20
-110.9135399999999976
40
3.1749999999999998
0
CIRCLE
8
User.Drawings
10
140.7038639999999816
20
-70.5910399999999925
40
1.5
0
CIRCLE
8
User.Drawings
10
147.6393539999999973
20
-152.5060399999999845
40
3.1749999999999998
0
CIRCLE
8
User.Drawings
10
127.6368539999999996
20
-138.8535399999999811
40
3.1749999999999998
0
CIRCLE
8
User.Drawings
10
129.2738640000000032
20
-69.9560400000000016
40
1.5
0
CIRCLE
8
User.Drawings
10
147.6393539999999973
20
-124.566040000000001
40
3.1749999999999998
0
CIRCLE
8
User.Drawings
10
160.3888639999999839
20
-132.1860399999999913
40
1.5
0
CIRCLE
8
User.Drawings
10
160.3888639999999839
20
-118.2160399999999925
40
1.5
0
CIRCLE
8
User.Drawings
10
147.6393539999999973
20
-138.8535399999999811
40
3.1749999999999998
0
CIRCLE
8
User.Drawings
10
167.3243539999999996
20
-138.8535399999999811
40
3.1749999999999998
0
CIRCLE
8
User.Drawings
10
131.2188639999999964
20
-95.9910399999999981
40
2.54
0
CIRCLE
8
User.Drawings
10
167.3243539999999996
20
-152.5060399999999845
40
3.1749999999999998
0
CIRCLE
8
User.Drawings
10
137.7968539999999962
20
-138.8535399999999811
40
3.1749999999999998
0
LINE
8
User.Drawings
6
CONTINUOUS
10
122.7515999999999963
20
-40.2330399999999955
11
173.4316000000000031
21
-40.2330399999999955
0
LINE
8
User.Drawings
6
CONTINUOUS
10
122.7515999999999963
20
-168.7330399999999884
11
122.7515999999999963
21
-40.2330399999999955
0
LINE
8
User.Drawings
6
CONTINUOUS
10
173.4316000000000031
20
-40.2330399999999955
11
173.4316000000000031
21
-168.7330399999999884
0
LINE
8
User.Drawings
6
CONTINUOUS
10
173.4316000000000031
20
-168.7330399999999884
11
122.7515999999999963
21
-168.7330399999999884
0
LINE
8
User.Drawings
6
CONTINUOUS
10
131.7723609999999894
20
-41.4577589999999958
11
131.9993139999999983
21
-41.4876379999999969
0
LINE
8
User.Drawings
6
CONTINUOUS
10
131.9993139999999983
20
-41.4876379999999969
11
132.2204250000000059
21
-41.5468839999999986
0
LINE
8
User.Drawings
6
CONTINUOUS
10
132.2204250000000059
20
-41.5468839999999986
11
132.4319109999999853
21
-41.634484999999998
0
LINE
8
User.Drawings
6
CONTINUOUS
10
132.4319109999999853
20
-41.634484999999998
11
132.6301540000000045
21
-41.7489399999999975
0
LINE
8
User.Drawings
6
CONTINUOUS
10
132.6301540000000045
20
-41.7489399999999975
11
132.81176099999999
21
-41.8882919999999999
0
LINE
8
User.Drawings
6
CONTINUOUS
10
132.81176099999999
20
-41.8882919999999999
11
132.9736259999999959
21
-42.0501569999999987
0
LINE
8
User.Drawings
6
CONTINUOUS
10
132.9736259999999959
20
-42.0501569999999987
11
133.1129779999999982
21
-42.2317639999999983
0
LINE
8
User.Drawings
6
CONTINUOUS
10
133.1129779999999982
20
-42.2317639999999983
11
133.2274329999999907
21
-42.4300069999999963
0
LINE
8
User.Drawings
6
CONTINUOUS
10
133.2274329999999907
20
-42.4300069999999963
11
133.3150339999999971
21
-42.641492999999997
0
LINE
8
User.Drawings
6
CONTINUOUS
10
133.3150339999999971
20
-42.641492999999997
11
133.3742799999999988
21
-42.8626039999999975
0
LINE
8
User.Drawings
6
CONTINUOUS
10
133.3742799999999988
20
-42.8626039999999975
11
133.4041589999999928
21
-43.0895569999999992
0
LINE
8
User.Drawings
6
CONTINUOUS
10
133.4041589999999928
20
-43.0895569999999992
11
133.4041589999999928
21
-43.3184669999999983
0
LINE
8
User.Drawings
6
CONTINUOUS
10
133.4041589999999928
20
-43.3184669999999983
11
133.3742799999999988
21
-43.54542
0
LINE
8
User.Drawings
6
CONTINUOUS
10
133.3742799999999988
20
-43.54542
11
133.3150339999999971
21
-43.7665310000000005
0
LINE
8
User.Drawings
6
CONTINUOUS
10
133.3150339999999971
20
-43.7665310000000005
11
133.2274329999999907
21
-43.9780170000000012
0
LINE
8
User.Drawings
6
CONTINUOUS
10
133.2274329999999907
20
-43.9780170000000012
11
133.1129779999999982
21
-44.1762599999999992
0
LINE
8
User.Drawings
6
CONTINUOUS
10
133.1129779999999982
20
-44.1762599999999992
11
132.9736259999999959
21
-44.3578669999999988
0
LINE
8
User.Drawings
6
CONTINUOUS
10
132.9736259999999959
20
-44.3578669999999988
11
132.81176099999999
21
-44.5197319999999976
0
LINE
8
User.Drawings
6
CONTINUOUS
10
132.81176099999999
20
-44.5197319999999976
11
132.6301540000000045
21
-44.659084
0
LINE
8
User.Drawings
6
CONTINUOUS
10
132.6301540000000045
20
-44.659084
11
132.4319109999999853
21
-44.7735389999999995
0
LINE
8
User.Drawings
6
CONTINUOUS
10
132.4319109999999853
20
-44.7735389999999995
11
132.2204250000000059
21
-44.8611399999999989
0
LINE
8
User.Drawings
6
CONTINUOUS
10
132.2204250000000059
20
-44.8611399999999989
11
131.9993139999999983
21
-44.9203860000000006
0
LINE
8
User.Drawings
6
CONTINUOUS
10
131.9993139999999983
20
-44.9203860000000006
11
131.7723609999999894
21
-44.9502649999999946
0
LINE
8
User.Drawings
6
CONTINUOUS
10
131.7723609999999894
20
-44.9502649999999946
11
131.657905999999997
21
-44.9540119999999987
0
LINE
8
User.Drawings
6
CONTINUOUS
10
131.657905999999997
20
-44.9540119999999987
11
128.8279059999999845
21
-44.9540119999999987
0
LINE
8
User.Drawings
6
CONTINUOUS
10
128.8279059999999845
20
-44.9540119999999987
11
128.7134509999999921
21
-44.9502649999999946
0
LINE
8
User.Drawings
6
CONTINUOUS
10
128.7134509999999921
20
-44.9502649999999946
11
128.4864979999999832
21
-44.9203860000000006
0
LINE
8
User.Drawings
6
CONTINUOUS
10
128.4864979999999832
20
-44.9203860000000006
11
128.265387000000004
21
-44.8611399999999989
0
LINE
8
User.Drawings
6
CONTINUOUS
10
128.265387000000004
20
-44.8611399999999989
11
128.0539009999999962
21
-44.7735389999999995
0
LINE
8
User.Drawings
6
CONTINUOUS
10
128.0539009999999962
20
-44.7735389999999995
11
127.8556579999999911
21
-44.659084
0
LINE
8
User.Drawings
6
CONTINUOUS
10
127.8556579999999911
20
-44.659084
11
127.6740509999999915
21
-44.5197319999999976
0
LINE
8
User.Drawings
6
CONTINUOUS
10
127.6740509999999915
20
-44.5197319999999976
11
127.5121859999999998
21
-44.3578669999999988
0
LINE
8
User.Drawings
6
CONTINUOUS
10
127.5121859999999998
20
-44.3578669999999988
11
127.3728339999999974
21
-44.1762599999999992
0
LINE
8
User.Drawings
6
CONTINUOUS
10
127.3728339999999974
20
-44.1762599999999992
11
127.2583789999999908
21
-43.9780170000000012
0
LINE
8
User.Drawings
6
CONTINUOUS
10
127.2583789999999908
20
-43.9780170000000012
11
127.1707779999999985
21
-43.7665310000000005
0
LINE
8
User.Drawings
6
CONTINUOUS
10
127.1707779999999985
20
-43.7665310000000005
11
127.1115319999999969
21
-43.54542
0
LINE
8
User.Drawings
6
CONTINUOUS
10
127.1115319999999969
20
-43.54542
11
127.0816529999999887
21
-43.3184669999999983
0
LINE
8
User.Drawings
6
CONTINUOUS
10
127.0816529999999887
20
-43.3184669999999983
11
127.0816529999999887
21
-43.0895569999999992
0
LINE
8
User.Drawings
6
CONTINUOUS
10
127.0816529999999887
20
-43.0895569999999992
11
127.1115319999999969
21
-42.8626039999999975
0
LINE
8
User.Drawings
6
CONTINUOUS
10
127.1115319999999969
20
-42.8626039999999975
11
127.1707779999999985
21
-42.641492999999997
0
LINE
8
User.Drawings
6
CONTINUOUS
10
127.1707779999999985
20
-42.641492999999997
11
127.2583789999999908
21
-42.4300069999999963
0
LINE
8
User.Drawings
6
CONTINUOUS
10
127.2583789999999908
20
-42.4300069999999963
11
127.3728339999999974
21
-42.2317639999999983
0
LINE
8
User.Drawings
6
CONTINUOUS
10
127.3728339999999974
20
-42.2317639999999983
11
127.5121859999999998
21
-42.0501569999999987
0
LINE
8
User.Drawings
6
CONTINUOUS
10
127.5121859999999998
20
-42.0501569999999987
11
127.6740509999999915
21
-41.8882919999999999
0
LINE
8
User.Drawings
6
CONTINUOUS
10
127.6740509999999915
20
-41.8882919999999999
11
127.8556579999999911
21
-41.7489399999999975
0
LINE
8
User.Drawings
6
CONTINUOUS
10
127.8556579999999911
20
-41.7489399999999975
11
128.0539009999999962
21
-41.634484999999998
0
LINE
8
User.Drawings
6
CONTINUOUS
10
128.0539009999999962
20
-41.634484999999998
11
128.265387000000004
21
-41.5468839999999986
0
LINE
8
User.Drawings
6
CONTINUOUS
10
128.265387000000004
20
-41.5468839999999986
11
128.4864979999999832
21
-41.4876379999999969
0
LINE
8
User.Drawings
6
CONTINUOUS
10
128.4864979999999832
20
-41.4876379999999969
11
128.7134509999999921
21
-41.4577589999999958
0
LINE
8
User.Drawings
6
CONTINUOUS
10
128.7134509999999921
20
-41.4577589999999958
11
128.8279059999999845
21
-41.4540119999999987
0
LINE
8
User.Drawings
6
CONTINUOUS
10
128.8279059999999845
20
-41.4540119999999987
11
131.657905999999997
21
-41.4540119999999987
0
LINE
8
User.Drawings
6
CONTINUOUS
10
131.657905999999997
20
-41.4540119999999987
11
131.7723609999999894
21
-41.4577589999999958
0
LINE
8
User.Drawings
6
CONTINUOUS
10
131.7723609999999894
20
-163.961371999999983
11
131.9993139999999983
21
-163.9912510000000054
0
LINE
8
User.Drawings
6
CONTINUOUS
10
131.9993139999999983
20
-163.9912510000000054
11
132.2204250000000059
21
-164.0504969999999787
0
LINE
8
User.Drawings
6
CONTINUOUS
10
132.2204250000000059
20
-164.0504969999999787
11
132.4319109999999853
21
-164.1380979999999852
0
LINE
8
User.Drawings
6
CONTINUOUS
10
132.4319109999999853
20
-164.1380979999999852
11
132.6301540000000045
21
-164.252553000000006
0
LINE
8
User.Drawings
6
CONTINUOUS
10
132.6301540000000045
20
-164.252553000000006
11
132.81176099999999
21
-164.39190499999998
0
LINE
8
User.Drawings
6
CONTINUOUS
10
132.81176099999999
20
-164.39190499999998
11
132.9736259999999959
21
-164.5537699999999859
0
LINE
8
User.Drawings
6
CONTINUOUS
10
132.9736259999999959
20
-164.5537699999999859
11
133.1129779999999982
21
-164.7353769999999997
0
LINE
8
User.Drawings
6
CONTINUOUS
10
133.1129779999999982
20
-164.7353769999999997
11
133.2274329999999907
21
-164.9336199999999906
0
LINE
8
User.Drawings
6
CONTINUOUS
10
133.2274329999999907
20
-164.9336199999999906
11
133.3150339999999971
21
-165.1451059999999984
0
LINE
8
User.Drawings
6
CONTINUOUS
10
133.3150339999999971
20
-165.1451059999999984
11
133.3742799999999988
21
-165.366217000000006
0
LINE
8
User.Drawings
6
CONTINUOUS
10
133.3742799999999988
20
-165.366217000000006
11
133.4041589999999928
21
-165.5931699999999864
0
LINE
8
User.Drawings
6
CONTINUOUS
10
133.4041589999999928
20
-165.5931699999999864
11
133.4041589999999928
21
-165.8220799999999997
0
LINE
8
User.Drawings
6
CONTINUOUS
10
133.4041589999999928
20
-165.8220799999999997
11
133.3742799999999988
21
-166.0490329999999801
0
LINE
8
User.Drawings
6
CONTINUOUS
10
133.3742799999999988
20
-166.0490329999999801
11
133.3150339999999971
21
-166.2701439999999877
0
LINE
8
User.Drawings
6
CONTINUOUS
10
133.3150339999999971
20
-166.2701439999999877
11
133.2274329999999907
21
-166.4816299999999956
0
LINE
8
User.Drawings
6
CONTINUOUS
10
133.2274329999999907
20
-166.4816299999999956
11
133.1129779999999982
21
-166.6798729999999864
0
LINE
8
User.Drawings
6
CONTINUOUS
10
133.1129779999999982
20
-166.6798729999999864
11
132.9736259999999959
21
-166.8614800000000002
0
LINE
8
User.Drawings
6
CONTINUOUS
10
132.9736259999999959
20
-166.8614800000000002
11
132.81176099999999
21
-167.0233450000000062
0
LINE
8
User.Drawings
6
CONTINUOUS
10
132.81176099999999
20
-167.0233450000000062
11
132.6301540000000045
21
-167.1626969999999801
0
LINE
8
User.Drawings
6
CONTINUOUS
10
132.6301540000000045
20
-167.1626969999999801
11
132.4319109999999853
21
-167.277152000000001
0
LINE
8
User.Drawings
6
CONTINUOUS
10
132.4319109999999853
20
-167.277152000000001
11
132.2204250000000059
21
-167.364752999999979
0
LINE
8
User.Drawings
6
CONTINUOUS
10
132.2204250000000059
20
-167.364752999999979
11
131.9993139999999983
21
-167.4239989999999807
0
LINE
8
User.Drawings
6
CONTINUOUS
10
131.9993139999999983
20
-167.4239989999999807
11
131.7723609999999894
21
-167.4538780000000031
0
LINE
8
User.Drawings
6
CONTINUOUS
10
131.7723609999999894
20
-167.4538780000000031
11
131.657905999999997
21
-167.4576249999999789
0
LINE
8
User.Drawings
6
CONTINUOUS
10
131.657905999999997
20
-167.4576249999999789
11
128.8279059999999845
21
-167.4576249999999789
0
LINE
8
User.Drawings
6
CONTINUOUS
10
128.8279059999999845
20
-167.4576249999999789
11
128.7134509999999921
21
-167.4538780000000031
0
LINE
8
User.Drawings
6
CONTINUOUS
10
128.7134509999999921
20
-167.4538780000000031
11
128.4864979999999832
21
-167.4239989999999807
0
LINE
8
User.Drawings
6
CONTINUOUS
10
128.4864979999999832
20
-167.4239989999999807
11
128.265387000000004
21
-167.364752999999979
0
LINE
8
User.Drawings
6
CONTINUOUS
10
128.265387000000004
20
-167.364752999999979
11
128.0539009999999962
21
-167.277152000000001
0
LINE
8
User.Drawings
6
CONTINUOUS
10
128.0539009999999962
20
-167.277152000000001
11
127.8556579999999911
21
-167.1626969999999801
0
LINE
8
User.Drawings
6
CONTINUOUS
10
127.8556579999999911
20
-167.1626969999999801
11
127.6740509999999915
21
-167.0233450000000062
0
LINE
8
User.Drawings
6
CONTINUOUS
10
127.6740509999999915
20
-167.0233450000000062
11
127.5121859999999998
21
-166.8614800000000002
0
LINE
8
User.Drawings
6
CONTINUOUS
10
127.5121859999999998
20
-166.8614800000000002
11
127.3728339999999974
21
-166.6798729999999864
0
LINE
8
User.Drawings
6
CONTINUOUS
10
127.3728339999999974
20
-166.6798729999999864
11
127.2583789999999908
21
-166.4816299999999956
0
LINE
8
User.Drawings
6
CONTINUOUS
10
127.2583789999999908
20
-166.4816299999999956
11
127.1707779999999985
21
-166.2701439999999877
0
LINE
8
User.Drawings
6
CONTINUOUS
10
127.1707779999999985
20
-166.2701439999999877
11
127.1115319999999969
21
-166.0490329999999801
0
LINE
8
User.Drawings
6
CONTINUOUS
10
127.1115319999999969
20
-166.0490329999999801
11
127.0816529999999887
21
-165.8220799999999997
0
LINE
8
User.Drawings
6
CONTINUOUS
10
127.0816529999999887
20
-165.8220799999999997
11
127.0816529999999887
21
-165.5931699999999864
0
LINE
8
User.Drawings
6
CONTINUOUS
10
127.0816529999999887
20
-165.5931699999999864
11
127.1115319999999969
21
-165.366217000000006
0
LINE
8
User.Drawings
6
CONTINUOUS
10
127.1115319999999969
20
-165.366217000000006
11
127.1707779999999985
21
-165.1451059999999984
0
LINE
8
User.Drawings
6
CONTINUOUS
10
127.1707779999999985
20
-165.1451059999999984
11
127.2583789999999908
21
-164.9336199999999906
0
LINE
8
User.Drawings
6
CONTINUOUS
10
127.2583789999999908
20
-164.9336199999999906
11
127.3728339999999974
21
-164.7353769999999997
0
LINE
8
User.Drawings
6
CONTINUOUS
10
127.3728339999999974
20
-164.7353769999999997
11
127.5121859999999998
21
-164.5537699999999859
0
LINE
8
User.Drawings
6
CONTINUOUS
10
127.5121859999999998
20
-164.5537699999999859
11
127.6740509999999915
21
-164.39190499999998
0
LINE
8
User.Drawings
6
CONTINUOUS
10
127.6740509999999915
20
-164.39190499999998
11
127.8556579999999911
21
-164.252553000000006
0
LINE
8
User.Drawings
6
CONTINUOUS
10
127.8556579999999911
20
-164.252553000000006
11
128.0539009999999962
21
-164.1380979999999852
0
LINE
8
User.Drawings
6
CONTINUOUS
10
128.0539009999999962
20
-164.1380979999999852
11
128.265387000000004
21
-164.0504969999999787
0
LINE
8
User.Drawings
6
CONTINUOUS
10
128.265387000000004
20
-164.0504969999999787
11
128.4864979999999832
21
-163.9912510000000054
0
LINE
8
User.Drawings
6
CONTINUOUS
10
128.4864979999999832
20
-163.9912510000000054
11
128.7134509999999921
21
-163.961371999999983
0
LINE
8
User.Drawings
6
CONTINUOUS
10
128.7134509999999921
20
-163.961371999999983
11
128.8279059999999845
21
-163.9576249999999789
0
LINE
8
User.Drawings
6
CONTINUOUS
10
128.8279059999999845
20
-163.9576249999999789
11
131.657905999999997
21
-163.9576249999999789
0
LINE
8
User.Drawings
6
CONTINUOUS
10
131.657905999999997
20
-163.9576249999999789
11
131.7723609999999894
21
-163.961371999999983
0
LINE
8
User.Drawings
6
CONTINUOUS
10
167.3836149999999918
20
-41.4577589999999958
11
167.6105680000000007
21
-41.4876379999999969
0
LINE
8
User.Drawings
6
CONTINUOUS
10
167.6105680000000007
20
-41.4876379999999969
11
167.8316789999999799
21
-41.5468839999999986
0
LINE
8
User.Drawings
6
CONTINUOUS
10
167.8316789999999799
20
-41.5468839999999986
11
168.0431649999999877
21
-41.634484999999998
0
LINE
8
User.Drawings
6
CONTINUOUS
10
168.0431649999999877
20
-41.634484999999998
11
168.2414079999999785
21
-41.7489399999999975
0
LINE
8
User.Drawings
6
CONTINUOUS
10
168.2414079999999785
20
-41.7489399999999975
11
168.4230149999999924
21
-41.8882919999999999
0
LINE
8
User.Drawings
6
CONTINUOUS
10
168.4230149999999924
20
-41.8882919999999999
11
168.5848799999999983
21
-42.0501569999999987
0
LINE
8
User.Drawings
6
CONTINUOUS
10
168.5848799999999983
20
-42.0501569999999987
11
168.7242320000000007
21
-42.2317639999999983
0
LINE
8
User.Drawings
6
CONTINUOUS
10
168.7242320000000007
20
-42.2317639999999983
11
168.8386869999999931
21
-42.4300069999999963
0
LINE
8
User.Drawings
6
CONTINUOUS
10
168.8386869999999931
20
-42.4300069999999963
11
168.9262879999999996
21
-42.641492999999997
0
LINE
8
User.Drawings
6
CONTINUOUS
10
168.9262879999999996
20
-42.641492999999997
11
168.9855340000000012
21
-42.8626039999999975
0
LINE
8
User.Drawings
6
CONTINUOUS
10
168.9855340000000012
20
-42.8626039999999975
11
169.0154129999999952
21
-43.0895569999999992
0
LINE
8
User.Drawings
6
CONTINUOUS
10
169.0154129999999952
20
-43.0895569999999992
11
169.0154129999999952
21
-43.3184669999999983
0
LINE
8
User.Drawings
6
CONTINUOUS
10
169.0154129999999952
20
-43.3184669999999983
11
168.9855340000000012
21
-43.54542
0
LINE
8
User.Drawings
6
CONTINUOUS
10
168.9855340000000012
20
-43.54542
11
168.9262879999999996
21
-43.7665310000000005
0
LINE
8
User.Drawings
6
CONTINUOUS
10
168.9262879999999996
20
-43.7665310000000005
11
168.8386869999999931
21
-43.9780170000000012
0
LINE
8
User.Drawings
6
CONTINUOUS
10
168.8386869999999931
20
-43.9780170000000012
11
168.7242320000000007
21
-44.1762599999999992
0
LINE
8
User.Drawings
6
CONTINUOUS
10
168.7242320000000007
20
-44.1762599999999992
11
168.5848799999999983
21
-44.3578669999999988
0
LINE
8
User.Drawings
6
CONTINUOUS
10
168.5848799999999983
20
-44.3578669999999988
11
168.4230149999999924
21
-44.5197319999999976
0
LINE
8
User.Drawings
6
CONTINUOUS
10
168.4230149999999924
20
-44.5197319999999976
11
168.2414079999999785
21
-44.659084
0
LINE
8
User.Drawings
6
CONTINUOUS
10
168.2414079999999785
20
-44.659084
11
168.0431649999999877
21
-44.7735389999999995
0
LINE
8
User.Drawings
6
CONTINUOUS
10
168.0431649999999877
20
-44.7735389999999995
11
167.8316789999999799
21
-44.8611399999999989
0
LINE
8
User.Drawings
6
CONTINUOUS
10
167.8316789999999799
20
-44.8611399999999989
11
167.6105680000000007
21
-44.9203860000000006
0
LINE
8
User.Drawings
6
CONTINUOUS
10
167.6105680000000007
20
-44.9203860000000006
11
167.3836149999999918
21
-44.9502649999999946
0
LINE
8
User.Drawings
6
CONTINUOUS
10
167.3836149999999918
20
-44.9502649999999946
11
167.2691599999999994
21
-44.9540119999999987
0
LINE
8
User.Drawings
6
CONTINUOUS
10
167.2691599999999994
20
-44.9540119999999987
11
164.4391599999999869
21
-44.9540119999999987
0
LINE
8
User.Drawings
6
CONTINUOUS
10
164.4391599999999869
20
-44.9540119999999987
11
164.3247049999999945
21
-44.9502649999999946
0
LINE
8
User.Drawings
6
CONTINUOUS
10
164.3247049999999945
20
-44.9502649999999946
11
164.0977519999999856
21
-44.9203860000000006
0
LINE
8
User.Drawings
6
CONTINUOUS
10
164.0977519999999856
20
-44.9203860000000006
11
163.8766410000000064
21
-44.8611399999999989
0
LINE
8
User.Drawings
6
CONTINUOUS
10
163.8766410000000064
20
-44.8611399999999989
11
163.6651549999999986
21
-44.7735389999999995
0
LINE
8
User.Drawings
6
CONTINUOUS
10
163.6651549999999986
20
-44.7735389999999995
11
163.4669119999999793
21
-44.659084
0
LINE
8
User.Drawings
6
CONTINUOUS
10
163.4669119999999793
20
-44.659084
11
163.2853049999999939
21
-44.5197319999999976
0
LINE
8
User.Drawings
6
CONTINUOUS
10
163.2853049999999939
20
-44.5197319999999976
11
163.123439999999988
21
-44.3578669999999988
0
LINE
8
User.Drawings
6
CONTINUOUS
10
163.123439999999988
20
-44.3578669999999988
11
162.9840879999999856
21
-44.1762599999999992
0
LINE
8
User.Drawings
6
CONTINUOUS
10
162.9840879999999856
20
-44.1762599999999992
11
162.8696329999999932
21
-43.9780170000000012
0
LINE
8
User.Drawings
6
CONTINUOUS
10
162.8696329999999932
20
-43.9780170000000012
11
162.7820319999999867
21
-43.7665310000000005
0
LINE
8
User.Drawings
6
CONTINUOUS
10
162.7820319999999867
20
-43.7665310000000005
11
162.7227859999999851
21
-43.54542
0
LINE
8
User.Drawings
6
CONTINUOUS
10
162.7227859999999851
20
-43.54542
11
162.6929069999999911
21
-43.3184669999999983
0
LINE
8
User.Drawings
6
CONTINUOUS
10
162.6929069999999911
20
-43.3184669999999983
11
162.6929069999999911
21
-43.0895569999999992
0
LINE
8
User.Drawings
6
CONTINUOUS
10
162.6929069999999911
20
-43.0895569999999992
11
162.7227859999999851
21
-42.8626039999999975
0
LINE
8
User.Drawings
6
CONTINUOUS
10
162.7227859999999851
20
-42.8626039999999975
11
162.7820319999999867
21
-42.641492999999997
0
LINE
8
User.Drawings
6
CONTINUOUS
10
162.7820319999999867
20
-42.641492999999997
11
162.8696329999999932
21
-42.4300069999999963
0
LINE
8
User.Drawings
6
CONTINUOUS
10
162.8696329999999932
20
-42.4300069999999963
11
162.9840879999999856
21
-42.2317639999999983
0
LINE
8
User.Drawings
6
CONTINUOUS
10
162.9840879999999856
20
-42.2317639999999983
11
163.123439999999988
21
-42.0501569999999987
0
LINE
8
User.Drawings
6
CONTINUOUS
10
163.123439999999988
20
-42.0501569999999987
11
163.2853049999999939
21
-41.8882919999999999
0
LINE
8
User.Drawings
6
CONTINUOUS
10
163.2853049999999939
20
-41.8882919999999999
11
163.4669119999999793
21
-41.7489399999999975
0
LINE
8
User.Drawings
6
CONTINUOUS
10
163.4669119999999793
20
-41.7489399999999975
11
163.6651549999999986
21
-41.634484999999998
0
LINE
8
User.Drawings
6
CONTINUOUS
10
163.6651549999999986
20
-41.634484999999998
11
163.8766410000000064
21
-41.5468839999999986
0
LINE
8
User.Drawings
6
CONTINUOUS
10
163.8766410000000064
20
-41.5468839999999986
11
164.0977519999999856
21
-41.4876379999999969
0
LINE
8
User.Drawings
6
CONTINUOUS
10
164.0977519999999856
20
-41.4876379999999969
11
164.3247049999999945
21
-41.4577589999999958
0
LINE
8
User.Drawings
6
CONTINUOUS
10
164.3247049999999945
20
-41.4577589999999958
11
164.4391599999999869
21
-41.4540119999999987
0
LINE
8
User.Drawings
6
CONTINUOUS
10
164.4391599999999869
20
-41.4540119999999987
11
167.2691599999999994
21
-41.4540119999999987
0
LINE
8
User.Drawings
6
CONTINUOUS
10
167.2691599999999994
20
-41.4540119999999987
11
167.3836149999999918
21
-41.4577589999999958
0
LINE
8
User.Drawings
6
CONTINUOUS
10
167.3836149999999918
20
-163.961371999999983
11
167.6105680000000007
21
-163.9912510000000054
0
LINE
8
User.Drawings
6
CONTINUOUS
10
167.6105680000000007
20
-163.9912510000000054
11
167.8316789999999799
21
-164.0504969999999787
0
LINE
8
User.Drawings
6
CONTINUOUS
10
167.8316789999999799
20
-164.0504969999999787
11
168.0431649999999877
21
-164.1380979999999852
0
LINE
8
User.Drawings
6
CONTINUOUS
10
168.0431649999999877
20
-164.1380979999999852
11
168.2414079999999785
21
-164.252553000000006
0
LINE
8
User.Drawings
6
CONTINUOUS
10
168.2414079999999785
20
-164.252553000000006
11
168.4230149999999924
21
-164.39190499999998
0
LINE
8
User.Drawings
6
CONTINUOUS
10
168.4230149999999924
20
-164.39190499999998
11
168.5848799999999983
21
-164.5537699999999859
0
LINE
8
User.Drawings
6
CONTINUOUS
10
168.5848799999999983
20
-164.5537699999999859
11
168.7242320000000007
21
-164.7353769999999997
0
LINE
8
User.Drawings
6
CONTINUOUS
10
168.7242320000000007
20
-164.7353769999999997
11
168.8386869999999931
21
-164.9336199999999906
0
LINE
8
User.Drawings
6
CONTINUOUS
10
168.8386869999999931
20
-164.9336199999999906
11
168.9262879999999996
21
-165.1451059999999984
0
LINE
8
User.Drawings
6
CONTINUOUS
10
168.9262879999999996
20
-165.1451059999999984
11
168.9855340000000012
21
-165.366217000000006
0
LINE
8
User.Drawings
6
CONTINUOUS
10
168.9855340000000012
20
-165.366217000000006
11
169.0154129999999952
21
-165.5931699999999864
0
LINE
8
User.Drawings
6
CONTINUOUS
10
169.0154129999999952
20
-165.5931699999999864
11
169.0154129999999952
21
-165.8220799999999997
0
LINE
8
User.Drawings
6
CONTINUOUS
10
169.0154129999999952
20
-165.8220799999999997
11
168.9855340000000012
21
-166.0490329999999801
0
LINE
8
User.Drawings
6
CONTINUOUS
10
168.9855340000000012
20
-166.0490329999999801
11
168.9262879999999996
21
-166.2701439999999877
0
LINE
8
User.Drawings
6
CONTINUOUS
10
168.9262879999999996
20
-166.2701439999999877
11
168.8386869999999931
21
-166.4816299999999956
0
LINE
8
User.Drawings
6
CONTINUOUS
10
168.8386869999999931
20
-166.4816299999999956
11
168.7242320000000007
21
-166.6798729999999864
0
LINE
8
User.Drawings
6
CONTINUOUS
10
168.7242320000000007
20
-166.6798729999999864
11
168.5848799999999983
21
-166.8614800000000002
0
LINE
8
User.Drawings
6
CONTINUOUS
10
168.5848799999999983
20
-166.8614800000000002
11
168.4230149999999924
21
-167.0233450000000062
0
LINE
8
User.Drawings
6
CONTINUOUS
10
168.4230149999999924
20
-167.0233450000000062
11
168.2414079999999785
21
-167.1626969999999801
0
LINE
8
User.Drawings
6
CONTINUOUS
10
168.2414079999999785
20
-167.1626969999999801
11
168.0431649999999877
21
-167.277152000000001
0
LINE
8
User.Drawings
6
CONTINUOUS
10
168.0431649999999877
20
-167.277152000000001
11
167.8316789999999799
21
-167.364752999999979
0
LINE
8
User.Drawings
6
CONTINUOUS
10
167.8316789999999799
20
-167.364752999999979
11
167.6105680000000007
21
-167.4239989999999807
0
LINE
8
User.Drawings
6
CONTINUOUS
10
167.6105680000000007
20
-167.4239989999999807
11
167.3836149999999918
21
-167.4538780000000031
0
LINE
8
User.Drawings
6
CONTINUOUS
10
167.3836149999999918
20
-167.4538780000000031
11
167.2691599999999994
21
-167.4576249999999789
0
LINE
8
User.Drawings
6
CONTINUOUS
10
167.2691599999999994
20
-167.4576249999999789
11
164.4391599999999869
21
-167.4576249999999789
0
LINE
8
User.Drawings
6
CONTINUOUS
10
164.4391599999999869
20
-167.4576249999999789
11
164.3247049999999945
21
-167.4538780000000031
0
LINE
8
User.Drawings
6
CONTINUOUS
10
164.3247049999999945
20
-167.4538780000000031
11
164.0977519999999856
21
-167.4239989999999807
0
LINE
8
User.Drawings
6
CONTINUOUS
10
164.0977519999999856
20
-167.4239989999999807
11
163.8766410000000064
21
-167.364752999999979
0
LINE
8
User.Drawings
6
CONTINUOUS
10
163.8766410000000064
20
-167.364752999999979
11
163.6651549999999986
21
-167.277152000000001
0
LINE
8
User.Drawings
6
CONTINUOUS
10
163.6651549999999986
20
-167.277152000000001
11
163.4669119999999793
21
-167.1626969999999801
0
LINE
8
User.Drawings
6
CONTINUOUS
10
163.4669119999999793
20
-167.1626969999999801
11
163.2853049999999939
21
-167.0233450000000062
0
LINE
8
User.Drawings
6
CONTINUOUS
10
163.2853049999999939
20
-167.0233450000000062
11
163.123439999999988
21
-166.8614800000000002
0
LINE
8
User.Drawings
6
CONTINUOUS
10
163.123439999999988
20
-166.8614800000000002
11
162.9840879999999856
21
-166.6798729999999864
0
LINE
8
User.Drawings
6
CONTINUOUS
10
162.9840879999999856
20
-166.6798729999999864
11
162.8696329999999932
21
-166.4816299999999956
0
LINE
8
User.Drawings
6
CONTINUOUS
10
162.8696329999999932
20
-166.4816299999999956
11
162.7820319999999867
21
-166.2701439999999877
0
LINE
8
User.Drawings
6
CONTINUOUS
10
162.7820319999999867
20
-166.2701439999999877
11
162.7227859999999851
21
-166.0490329999999801
0
LINE
8
User.Drawings
6
CONTINUOUS
10
162.7227859999999851
20
-166.0490329999999801
11
162.6929069999999911
21
-165.8220799999999997
0
LINE
8
User.Drawings
6
CONTINUOUS
10
162.6929069999999911
20
-165.8220799999999997
11
162.6929069999999911
21
-165.5931699999999864
0
LINE
8
User.Drawings
6
CONTINUOUS
10
162.6929069999999911
20
-165.5931699999999864
11
162.7227859999999851
21
-165.366217000000006
0
LINE
8
User.Drawings
6
CONTINUOUS
10
162.7227859999999851
20
-165.366217000000006
11
162.7820319999999867
21
-165.1451059999999984
0
LINE
8
User.Drawings
6
CONTINUOUS
10
162.7820319999999867
20
-165.1451059999999984
11
162.8696329999999932
21
-164.9336199999999906
0
LINE
8
User.Drawings
6
CONTINUOUS
10
162.8696329999999932
20
-164.9336199999999906
11
162.9840879999999856
21
-164.7353769999999997
0
LINE
8
User.Drawings
6
CONTINUOUS
10
162.9840879999999856
20
-164.7353769999999997
11
163.123439999999988
21
-164.5537699999999859
0
LINE
8
User.Drawings
6
CONTINUOUS
10
163.123439999999988
20
-164.5537699999999859
11
163.2853049999999939
21
-164.39190499999998
0
LINE
8
User.Drawings
6
CONTINUOUS
10
163.2853049999999939
20
-164.39190499999998
11
163.4669119999999793
21
-164.252553000000006
0
LINE
8
User.Drawings
6
CONTINUOUS
10
163.4669119999999793
20
-164.252553000000006
11
163.6651549999999986
21
-164.1380979999999852
0
LINE
8
User.Drawings
6
CONTINUOUS
10
163.6651549999999986
20
-164.1380979999999852
11
163.8766410000000064
21
-164.0504969999999787
0
LINE
8
User.Drawings
6
CONTINUOUS
10
163.8766410000000064
20
-164.0504969999999787
11
164.0977519999999856
21
-163.9912510000000054
0
LINE
8
User.Drawings
6
CONTINUOUS
10
164.0977519999999856
20
-163.9912510000000054
11
164.3247049999999945
21
-163.961371999999983
0
LINE
8
User.Drawings
6
CONTINUOUS
10
164.3247049999999945
20
-163.961371999999983
11
164.4391599999999869
21
-163.9576249999999789
0
LINE
8
User.Drawings
6
CONTINUOUS
10
164.4391599999999869
20
-163.9576249999999789
11
167.2691599999999994
21
-163.9576249999999789
0
LINE
8
User.Drawings
6
CONTINUOUS
10
167.2691599999999994
20
-163.9576249999999789
11
167.3836149999999918
21
-163.961371999999983
0
CIRCLE
8
User.Drawings
10
146.1013639999999896
20
-61.0660399999999939
40
1.5
0
CIRCLE
8
User.Drawings
10
160.3888639999999839
20
-146.1560399999999902
40
1.5
0
CIRCLE
8
User.Drawings
10
131.2188639999999964
20
-85.8310400000000016
40
2.54
0
CIRCLE
8
User.Drawings
10
157.4818539999999985
20
-124.566040000000001
40
3.1749999999999998
0
CIRCLE
8
User.Drawings
10
147.6393539999999973
20
-110.9135399999999976
40
3.1749999999999998
0
CIRCLE
8
User.Drawings
10
151.816363999999993
20
-61.0660399999999939
40
1.5
0
CIRCLE
8
User.Drawings
10
151.4988639999999975
20
-95.356039999999993
40
2.6000000000000001
0
CIRCLE
8
User.Drawings
10
157.4818539999999985
20
-152.5060399999999845
40
3.1749999999999998
0
CIRCLE
8
User.Drawings
10
130.2263639999999896
20
-58.5260399999999947
40
3.75
0
CIRCLE
8
User.Drawings
10
156.8963640000000055
20
-61.0660399999999939
40
1.5
0
CIRCLE
8
User.Drawings
10
127.6368539999999996
20
-124.566040000000001
40
3.1749999999999998
0
CIRCLE
8
User.Drawings
10
137.7968539999999962
20
-110.9135399999999976
40
3.1749999999999998
0
CIRCLE
8
User.Drawings
10
137.7968539999999962
20
-152.5060399999999845
40
3.1749999999999998
0
CIRCLE
8
User.Drawings
10
160.3888639999999839
20
-104.8810399999999987
40
1.5
0
CIRCLE
8
User.Drawings
10
167.3243539999999996
20
-124.566040000000001
40
3.1749999999999998
0
CIRCLE
8
User.Drawings
10
140.0688639999999907
20
-61.0660399999999939
40
1.5
0
CIRCLE
8
User.Drawings
10
129.3138639999999953
20
-76.3060399999999959
40
2.54
0
CIRCLE
8
User.Drawings
10
127.6368539999999996
20
-110.9135399999999976
40
3.1749999999999998
0
CIRCLE
8
User.Drawings
10
165.9619999999999891
20
-61.701039999999999
40
3.75
0
LINE
8
User.Drawings
6
CONTINUOUS
10
172.7865999999999929
20
-80.9250399999999956
11
172.7865999999999929
21
-70.9250399999999956
  0
ENDSEC
  0
EOF
