<svg width="30mm" height="128.5mm">
<g transform="scale(1,-1)"><circle cx="7.739528054mm" cy="-125.50115mm" r="1.6mm" stroke-width="1"/>
<circle cx="22.979528054mm" cy="-125.50115mm" r="1.6mm" stroke-width="1"/>
<circle cx="13.2575002441406mm" cy="-114.160999933243mm" r="1.5mm" stroke-width="1"/>
<circle cx="7.03450019454956mm" cy="-113.144999900818mm" r="2.667mm" stroke-width="1"/>
<circle cx="21.7664991149902mm" cy="-109.080999771118mm" r="3.6195mm" stroke-width="1"/>
<circle cx="13.2575002441406mm" cy="-104.000999847412mm" r="1.5mm" stroke-width="1"/>
<circle cx="7.03450019454956mm" cy="-102.985000053406mm" r="2.667mm" stroke-width="1"/>
<circle cx="13.2575002441406mm" cy="-93.841mm" r="1.5mm" stroke-width="1"/>
<circle cx="7.03450019454956mm" cy="-92.8249992523193mm" r="2.667mm" stroke-width="1"/>
<circle cx="25.5765004882813mm" cy="-92.5709995422363mm" r="2.667mm" stroke-width="1"/>
<circle cx="13.2575002441406mm" cy="-83.6810001525879mm" r="1.5mm" stroke-width="1"/>
<circle cx="7.03450019454956mm" cy="-82.6650013122559mm" r="2.667mm" stroke-width="1"/>
<circle cx="24.3065000305176mm" cy="-81.2679981384277mm" r="2.54mm" stroke-width="1"/>
<circle cx="8.17749984359741mm" cy="-68.8219989929199mm" r="3.4mm" stroke-width="1"/>
<circle cx="22.1474996337891mm" cy="-68.8219989929199mm" r="3.4mm" stroke-width="1"/>
<circle cx="8.17749984359741mm" cy="-58.2301983032227mm" r="3.4mm" stroke-width="1"/>
<circle cx="22.1474996337891mm" cy="-58.2301983032227mm" r="3.4mm" stroke-width="1"/>
<circle cx="15.5434995422363mm" cy="-48.7560009155274mm" r="1.5mm" stroke-width="1"/>
<circle cx="7.92350013351441mm" cy="-46.8510021362305mm" r="3.4mm" stroke-width="1"/>
<circle cx="23.0364995727539mm" cy="-46.8510021362305mm" r="3.4mm" stroke-width="1"/>
<circle cx="15.5434995422363mm" cy="-44.6284984741211mm" r="1.5mm" stroke-width="1"/>
<circle cx="15.5434995422363mm" cy="-38.2785mm" r="1.5mm" stroke-width="1"/>
<circle cx="7.92350013351441mm" cy="-36.6909984741211mm" r="3.4mm" stroke-width="1"/>
<circle cx="23.0364995727539mm" cy="-36.6909984741211mm" r="3.4mm" stroke-width="1"/>
<circle cx="15.5434995422363mm" cy="-34.1509975585938mm" r="1.5mm" stroke-width="1"/>
<circle cx="15.5434995422363mm" cy="-28.118496337891mm" r="1.5mm" stroke-width="1"/>
<circle cx="7.92350013351441mm" cy="-26.531002441406mm" r="3.4mm" stroke-width="1"/>
<circle cx="23.0364995727539mm" cy="-26.531002441406mm" r="3.4mm" stroke-width="1"/>
<circle cx="15.5434995422363mm" cy="-23.991001525879mm" r="1.5mm" stroke-width="1"/>
<circle cx="15.5434995422363mm" cy="-17.958500305176mm" r="1.5mm" stroke-width="1"/>
<circle cx="7.92350013351441mm" cy="-16.370998779297mm" r="3.4mm" stroke-width="1"/>
<circle cx="23.0364995727539mm" cy="-16.370998779297mm" r="3.4mm" stroke-width="1"/>
<circle cx="15.5434995422363mm" cy="-13.83099786377mm" r="1.5mm" stroke-width="1"/>
<circle cx="7.739528054mm" cy="-3.0014mm" r="1.6mm" stroke-width="1"/>
<circle cx="22.979528054mm" cy="-3.0014mm" r="1.6mm" stroke-width="1"/>
</g>
</svg>
