  0
SECTION
  2
HEADER
  9
$ACADVER
  1
AC1009
  9
$FILLMODE
 70
0
  9
$EXTMIN
 10
-14.6262497901917
 20
0
 30
0
  9
$EXTMAX
 10
64.4737510681152
 20
128.5
 30
0
  0
ENDSEC
  0
SECTION
  2
TABLES
  0
TABLE
  2
LTYPE
 70
1
  0
LTYPE
  2
CONTINUOUS
 70
64
  3
Solid line
 72
65
 73
0
 40
0
  0
ENDTAB
  0
TABLE
  2
LAYER
 70
255
  0
LAYER
  2
20
 70
64
 62
0
  6
CONTINUOUS
  0
ENDTAB
  0
ENDSEC
  0
SECTION
  2
BLOCKS
  0
ENDSEC
  0
SECTION
  2
ENTITIES
  0
LINE
  8
20
 10
26.1937510681152
 20
92.5709996948242
 30
0
 11
26.1937510681152
 21
95.6189996948242
 31
0
  0
LINE
  8
20
 10
26.1937510681152
 20
95.6189996948242
 30
0
 11
61.7537510681152
 21
95.6189996948242
 31
0
  0
LINE
  8
20
 10
61.7537510681152
 20
95.6189996948242
 30
0
 11
61.7537510681152
 21
92.5709996948242
 31
0
  0
LINE
  8
20
 10
61.7537510681152
 20
92.5709996948242
 30
0
 11
26.1937510681152
 21
92.5709996948242
 31
0
  0
LINE
  8
20
 10
13.4937503051758
 20
92.5709996948242
 30
0
 11
13.4937503051758
 21
95.6189996948242
 31
0
  0
LINE
  8
20
 10
13.4937503051758
 20
95.6189996948242
 30
0
 11
49.0537503051758
 21
95.6189996948242
 31
0
  0
LINE
  8
20
 10
49.0537503051758
 20
95.6189996948242
 30
0
 11
49.0537503051758
 21
92.5709996948242
 31
0
  0
LINE
  8
20
 10
49.0537503051758
 20
92.5709996948242
 30
0
 11
13.4937503051758
 21
92.5709996948242
 31
0
  0
LINE
  8
20
 10
0.793749542236299
 20
92.5709996948242
 30
0
 11
0.793749542236299
 21
95.6189996948242
 31
0
  0
LINE
  8
20
 10
0.793749542236299
 20
95.6189996948242
 30
0
 11
36.3537495422363
 21
95.6189996948242
 31
0
  0
LINE
  8
20
 10
36.3537495422363
 20
95.6189996948242
 30
0
 11
36.3537495422363
 21
92.5709996948242
 31
0
  0
LINE
  8
20
 10
36.3537495422363
 20
92.5709996948242
 30
0
 11
0.793749542236299
 21
92.5709996948242
 31
0
  0
LINE
  8
20
 10
-11.9062497901917
 20
92.5709996948242
 30
0
 11
-11.9062497901917
 21
95.6189996948242
 31
0
  0
LINE
  8
20
 10
-11.9062497901917
 20
95.6189996948242
 30
0
 11
23.6537502098084
 21
95.6189996948242
 31
0
  0
LINE
  8
20
 10
23.6537502098084
 20
95.6189996948242
 30
0
 11
23.6537502098084
 21
92.5709996948242
 31
0
  0
LINE
  8
20
 10
23.6537502098084
 20
92.5709996948242
 30
0
 11
-11.9062497901917
 21
92.5709996948242
 31
0
  0
LINE
  8
20
 10
0.149999999999999
 20
128.5
 30
0
 11
0.149999999999999
 21
0
 31
0
  0
LINE
  8
20
 10
0.149999999999999
 20
0
 30
0
 11
50.65
 21
0
 31
0
  0
LINE
  8
20
 10
50.65
 20
0
 30
0
 11
50.65
 21
128.5
 31
0
  0
LINE
  8
20
 10
50.65
 20
128.5
 30
0
 11
0.149999999999999
 21
128.5
 31
0
  0
CIRCLE
  8
20
 10
7.499528054
 20
125.4986
 30
0
 40
1.6
  0
CIRCLE
  8
20
 10
7.499528054
 20
2.99885
 30
0
 40
1.6
  0
CIRCLE
  8
20
 10
43.059528054
 20
125.4986
 30
0
 40
1.6
  0
CIRCLE
  8
20
 10
43.059528054
 20
2.99885
 30
0
 40
1.6
  0
CIRCLE
  8
20
 10
18.5737495422363
 20
28.6900009155273
 30
0
 40
3.175
  0
CIRCLE
  8
20
 10
6.50874996185303
 20
25.5149997711182
 30
0
 40
3.175
  0
CIRCLE
  8
20
 10
18.5737495422363
 20
17.8949998855591
 30
0
 40
3.175
  0
CIRCLE
  8
20
 10
43.3387489318848
 20
39.1674999237061
 30
0
 40
3.175
  0
CIRCLE
  8
20
 10
18.5737495422363
 20
39.4849990844727
 30
0
 40
3.175
  0
CIRCLE
  8
20
 10
31.2737503051758
 20
36.3099998474121
 30
0
 40
3.175
  0
CIRCLE
  8
20
 10
31.2737503051758
 20
25.5149997711182
 30
0
 40
3.175
  0
CIRCLE
  8
20
 10
31.2737503051758
 20
14.7200001716614
 30
0
 40
3.175
  0
CIRCLE
  8
20
 10
6.50874996185303
 20
36.3099998474121
 30
0
 40
3.175
  0
CIRCLE
  8
20
 10
6.50874996185303
 20
14.7200001716614
 30
0
 40
3.175
  0
CIRCLE
  8
20
 10
64.4737510681152
 20
94.0949996948242
 30
0
 40
1.2
  0
CIRCLE
  8
20
 10
23.4737510681152
 20
94.0949996948242
 30
0
 40
1.2
  0
CIRCLE
  8
20
 10
51.7737503051758
 20
94.0949996948242
 30
0
 40
1.2
  0
CIRCLE
  8
20
 10
10.7737503051758
 20
94.0949996948242
 30
0
 40
1.2
  0
CIRCLE
  8
20
 10
39.0737495422363
 20
94.0949996948242
 30
0
 40
1.2
  0
CIRCLE
  8
20
 10
-1.9262504577637
 20
94.0949996948242
 30
0
 40
1.2
  0
CIRCLE
  8
20
 10
26.3737502098084
 20
94.0949996948242
 30
0
 40
1.2
  0
CIRCLE
  8
20
 10
-14.6262497901917
 20
94.0949996948242
 30
0
 40
1.2
  0
CIRCLE
  8
20
 10
43.3387489318848
 20
28.6900009155273
 30
0
 40
3.175
  0
CIRCLE
  8
20
 10
43.3387489318848
 20
17.8949998855591
 30
0
 40
3.175
  0
CIRCLE
  8
20
 10
5.87375020980835
 20
57.9
 30
0
 40
2.54
  0
CIRCLE
  8
20
 10
31.2737503051758
 20
57.9
 30
0
 40
2.54
  0
CIRCLE
  8
20
 10
18.8912506103516
 20
61.3925003051758
 30
0
 40
2.54
  0
CIRCLE
  8
20
 10
43.9737510681152
 20
61.0749992370605
 30
0
 40
2.54
  0
CIRCLE
  8
20
 10
43.3387489318848
 20
50.2800010681152
 30
0
 40
3.175
  0
CIRCLE
  8
20
 10
31.2737503051758
 20
47.1050018310547
 30
0
 40
3.175
  0
CIRCLE
  8
20
 10
18.5737495422363
 20
50.2800010681152
 30
0
 40
3.175
  0
CIRCLE
  8
20
 10
6.50874996185303
 20
47.1050018310547
 30
0
 40
3.175
  0
ENDSEC
  0
EOF
