<svg width="30mm" height="128.5mm">
<g transform="scale(1,-1)"><circle cx="7.739528054mm" cy="-125.50115mm" r="1.6mm" stroke-width="1"/>
<circle cx="22.979528054mm" cy="-125.50115mm" r="1.6mm" stroke-width="1"/>
<circle cx="5.16124986648559mm" cy="-112.192500114441mm" r="3.4mm" stroke-width="1"/>
<circle cx="24.8462507629395mm" cy="-112.192500114441mm" r="3.4mm" stroke-width="1"/>
<circle cx="5.16124986648559mm" cy="-98.2224998474121mm" r="3.4mm" stroke-width="1"/>
<circle cx="24.8462507629395mm" cy="-98.2224998474121mm" r="3.4mm" stroke-width="1"/>
<circle cx="15.4799997711182mm" cy="-90.3484992980957mm" r="3.4mm" stroke-width="1"/>
<circle cx="5.16124986648559mm" cy="-82.9824981689453mm" r="3.4mm" stroke-width="1"/>
<circle cx="24.8462507629395mm" cy="-82.9824981689453mm" r="3.4mm" stroke-width="1"/>
<circle cx="15.4799997711182mm" cy="-75.8704986572266mm" r="3.4mm" stroke-width="1"/>
<circle cx="4.04999994277954mm" cy="-65.2024993896484mm" r="2.54mm" stroke-width="1"/>
<circle cx="26.9100000762939mm" cy="-65.2024993896484mm" r="2.54mm" stroke-width="1"/>
<circle cx="15.4799997711182mm" cy="-57.5825004577637mm" r="4.5mm" stroke-width="1"/>
<circle cx="15.4799997711182mm" cy="-37.2624969482422mm" r="4.5mm" stroke-width="1"/>
<circle cx="15.4799997711182mm" cy="-19.165000915527mm" r="3.6195mm" stroke-width="1"/>
<circle cx="4.04999994277954mm" cy="-14.402496337891mm" r="1.5mm" stroke-width="1"/>
<circle cx="26.9100000762939mm" cy="-14.402496337891mm" r="1.5mm" stroke-width="1"/>
<circle cx="7.739528054mm" cy="-3.0014mm" r="1.6mm" stroke-width="1"/>
<circle cx="22.979528054mm" cy="-3.0014mm" r="1.6mm" stroke-width="1"/>
</g>
</svg>
