  0
SECTION
  2
HEADER
  9
$ANGBASE
  50
0.0
  9
$ANGDIR
  70
1
  9
$MEASUREMENT
  70
1
  9
$INSUNITS
  70
4
  0
ENDSEC
  0
SECTION
  2
TABLES
  0
TABLE
  2
LTYPE
  70
4
  0
LTYPE
  5
40F
  2
CONTINUOUS
  70
0
  3
Solid line
  72
65
  73
0
  40
0.0
  0
LTYPE
  5
410
  2
DASHDOT
 70
0
  3
Dash Dot ____ _ ____ _
 72
65
 73
4
 40
2.0
 49
1.25
 49
-0.25
 49
0.25
 49
-0.25
  0
LTYPE
  5
411
  2
DASHED
 70
0
  3
Dashed __ __ __ __ __
 72
65
 73
2
 40
0.75
 49
0.5
 49
-0.25
  0
LTYPE
  5
43B
  2
DOTTED
 70
0
  3
Dotted .  .  .  .
 72
65
 73
2
 40
0.2
 49
0.0
 49
-0.2
  0
ENDTAB
  0
TABLE
  2
STYLE
  70
4
  0
STYLE
  2
KICAD
  70
0
  40
0
  41
1
  42
1
  50
0
  71
0
  3
isocp.shx
  0
STYLE
  2
KICADB
  70
0
  40
0
  41
1
  42
1
  50
0
  71
0
  3
isocp.shx
  0
STYLE
  2
KICADI
  70
0
  40
0
  41
1
  42
1
  50
15
  71
0
  3
isocp.shx
  0
STYLE
  2
KICADBI
  70
0
  40
0
  41
1
  42
1
  50
15
  71
0
  3
isocp.shx
  0
ENDTAB
  0
TABLE
  2
LAYER
  70
1
  0
LAYER
  2
User.Drawings
  70
0
  62
9
  420
12763842
  6
CONTINUOUS
  0
ENDTAB
  0
ENDSEC
  0
SECTION
  2
ENTITIES
  0
TEXT
  7
KICAD
  8
User.Drawings
  10
98.8071999999999946
  11
98.8071999999999946
  20
-117.7975999999999885
  21
-117.7975999999999885
  40
0.5
  41
1.
  50
90.00000000
  51
0.00000000
  71
0
  72
1
  73
2
  1
PCB Edge
0
CIRCLE
8
User.Drawings
10
63.3221999999999952
20
-155.5165999999999826
40
2.6000000000000001
0
CIRCLE
8
User.Drawings
10
81.1021999999999963
20
-144.4040999999999997
40
2.6000000000000001
0
CIRCLE
8
User.Drawings
10
64.9719099999999941
20
-59.6950999999999965
40
3.1749999999999998
0
CIRCLE
8
User.Drawings
10
62.1791999999999945
20
-52.519599999999997
40
1.5
0
CIRCLE
8
User.Drawings
10
72.2121999999999957
20
-144.4040999999999997
40
2.6000000000000001
0
CIRCLE
8
User.Drawings
10
65.2767099999999942
20
-87.96159999999999
40
3.1749999999999998
0
CIRCLE
8
User.Drawings
10
75.4367099999999908
20
-87.96159999999999
40
3.1749999999999998
0
CIRCLE
8
User.Drawings
10
72.1805499999999967
20
-52.3671999999999969
40
1.5
0
CIRCLE
8
User.Drawings
10
54.4080899999999943
20
-59.6950999999999965
40
3.1749999999999998
0
CIRCLE
8
User.Drawings
10
88.7222000000000008
20
-104.1871510000000001
40
3.4924999999999997
0
CIRCLE
8
User.Drawings
10
55.0367099999999994
20
-87.96159999999999
40
3.1749999999999998
0
CIRCLE
8
User.Drawings
10
93.167199999999994
20
-139.6415999999999826
40
2.54
0
CIRCLE
8
User.Drawings
10
72.2121999999999957
20
-155.5165999999999826
40
2.6000000000000001
0
CIRCLE
8
User.Drawings
10
54.4321999999999946
20
-133.2915999999999883
40
2.6000000000000001
0
CIRCLE
8
User.Drawings
10
82.442149999999998
20
-52.2655999999999992
40
1.5
0
CIRCLE
8
User.Drawings
10
54.4321999999999946
20
-144.4040999999999997
40
2.6000000000000001
0
CIRCLE
8
User.Drawings
10
81.1021999999999963
20
-155.5165999999999826
40
2.6000000000000001
0
CIRCLE
8
User.Drawings
10
63.3221999999999952
20
-144.4040999999999997
40
2.6000000000000001
0
CIRCLE
8
User.Drawings
10
63.3221999999999952
20
-133.2915999999999883
40
2.6000000000000001
0
CIRCLE
8
User.Drawings
10
85.2919100000000014
20
-73.8815999999999917
40
3.1749999999999998
0
CIRCLE
8
User.Drawings
10
75.1319099999999906
20
-59.6950999999999965
40
3.1749999999999998
0
CIRCLE
8
User.Drawings
10
95.451909999999998
20
-73.8815999999999917
40
3.1749999999999998
0
CIRCLE
8
User.Drawings
10
81.1021999999999963
20
-133.2915999999999883
40
2.6000000000000001
0
CIRCLE
8
User.Drawings
10
75.1319099999999906
20
-73.8815999999999917
40
3.1749999999999998
0
CIRCLE
8
User.Drawings
10
64.9719099999999941
20
-73.8815999999999917
40
3.1749999999999998
0
CIRCLE
8
User.Drawings
10
85.5967100000000016
20
-87.96159999999999
40
3.1749999999999998
0
CIRCLE
8
User.Drawings
10
95.451909999999998
20
-59.6950999999999965
40
3.1749999999999998
0
CIRCLE
8
User.Drawings
10
93.167199999999994
20
-126.8399999999999892
40
2.6000000000000001
0
LINE
8
User.Drawings
6
CONTINUOUS
10
49.3472000000000008
20
-41.2115999999999971
11
100.0271999999999935
21
-41.2115999999999971
0
LINE
8
User.Drawings
6
CONTINUOUS
10
49.3472000000000008
20
-169.7116000000000042
11
49.3472000000000008
21
-41.2115999999999971
0
LINE
8
User.Drawings
6
CONTINUOUS
10
100.0271999999999935
20
-41.2115999999999971
11
100.0271999999999935
21
-169.7116000000000042
0
LINE
8
User.Drawings
6
CONTINUOUS
10
100.0271999999999935
20
-169.7116000000000042
11
49.3472000000000008
21
-169.7116000000000042
0
LINE
8
User.Drawings
6
CONTINUOUS
10
58.367960999999994
20
-42.4363189999999975
11
58.5949139999999957
21
-42.4661979999999986
0
LINE
8
User.Drawings
6
CONTINUOUS
10
58.5949139999999957
20
-42.4661979999999986
11
58.8160249999999962
21
-42.5254440000000002
0
LINE
8
User.Drawings
6
CONTINUOUS
10
58.8160249999999962
20
-42.5254440000000002
11
59.027510999999997
21
-42.6130449999999996
0
LINE
8
User.Drawings
6
CONTINUOUS
10
59.027510999999997
20
-42.6130449999999996
11
59.2257539999999949
21
-42.7274999999999991
0
LINE
8
User.Drawings
6
CONTINUOUS
10
59.2257539999999949
20
-42.7274999999999991
11
59.4073609999999945
21
-42.8668520000000015
0
LINE
8
User.Drawings
6
CONTINUOUS
10
59.4073609999999945
20
-42.8668520000000015
11
59.5692260000000005
21
-43.0287170000000003
0
LINE
8
User.Drawings
6
CONTINUOUS
10
59.5692260000000005
20
-43.0287170000000003
11
59.7085779999999957
21
-43.210324
0
LINE
8
User.Drawings
6
CONTINUOUS
10
59.7085779999999957
20
-43.210324
11
59.8230329999999952
21
-43.4085669999999979
0
LINE
8
User.Drawings
6
CONTINUOUS
10
59.8230329999999952
20
-43.4085669999999979
11
59.9106339999999946
21
-43.6200529999999986
0
LINE
8
User.Drawings
6
CONTINUOUS
10
59.9106339999999946
20
-43.6200529999999986
11
59.9698799999999963
21
-43.8411639999999991
0
LINE
8
User.Drawings
6
CONTINUOUS
10
59.9698799999999963
20
-43.8411639999999991
11
59.9997589999999974
21
-44.0681170000000009
0
LINE
8
User.Drawings
6
CONTINUOUS
10
59.9997589999999974
20
-44.0681170000000009
11
59.9997589999999974
21
-44.2970269999999999
0
LINE
8
User.Drawings
6
CONTINUOUS
10
59.9997589999999974
20
-44.2970269999999999
11
59.9698799999999963
21
-44.5239799999999946
0
LINE
8
User.Drawings
6
CONTINUOUS
10
59.9698799999999963
20
-44.5239799999999946
11
59.9106339999999946
21
-44.7450909999999951
0
LINE
8
User.Drawings
6
CONTINUOUS
10
59.9106339999999946
20
-44.7450909999999951
11
59.8230329999999952
21
-44.9565769999999958
0
LINE
8
User.Drawings
6
CONTINUOUS
10
59.8230329999999952
20
-44.9565769999999958
11
59.7085779999999957
21
-45.1548200000000008
0
LINE
8
User.Drawings
6
CONTINUOUS
10
59.7085779999999957
20
-45.1548200000000008
11
59.5692260000000005
21
-45.3364270000000005
0
LINE
8
User.Drawings
6
CONTINUOUS
10
59.5692260000000005
20
-45.3364270000000005
11
59.4073609999999945
21
-45.4982919999999993
0
LINE
8
User.Drawings
6
CONTINUOUS
10
59.4073609999999945
20
-45.4982919999999993
11
59.2257539999999949
21
-45.6376439999999945
0
LINE
8
User.Drawings
6
CONTINUOUS
10
59.2257539999999949
20
-45.6376439999999945
11
59.027510999999997
21
-45.7520990000000012
0
LINE
8
User.Drawings
6
CONTINUOUS
10
59.027510999999997
20
-45.7520990000000012
11
58.8160249999999962
21
-45.8397000000000006
0
LINE
8
User.Drawings
6
CONTINUOUS
10
58.8160249999999962
20
-45.8397000000000006
11
58.5949139999999957
21
-45.8989459999999951
0
LINE
8
User.Drawings
6
CONTINUOUS
10
58.5949139999999957
20
-45.8989459999999951
11
58.367960999999994
21
-45.9288249999999962
0
LINE
8
User.Drawings
6
CONTINUOUS
10
58.367960999999994
20
-45.9288249999999962
11
58.2535059999999945
21
-45.9325720000000004
0
LINE
8
User.Drawings
6
CONTINUOUS
10
58.2535059999999945
20
-45.9325720000000004
11
55.4235059999999962
21
-45.9325720000000004
0
LINE
8
User.Drawings
6
CONTINUOUS
10
55.4235059999999962
20
-45.9325720000000004
11
55.3090509999999966
21
-45.9288249999999962
0
LINE
8
User.Drawings
6
CONTINUOUS
10
55.3090509999999966
20
-45.9288249999999962
11
55.0820979999999949
21
-45.8989459999999951
0
LINE
8
User.Drawings
6
CONTINUOUS
10
55.0820979999999949
20
-45.8989459999999951
11
54.8609869999999944
21
-45.8397000000000006
0
LINE
8
User.Drawings
6
CONTINUOUS
10
54.8609869999999944
20
-45.8397000000000006
11
54.6495010000000008
21
-45.7520990000000012
0
LINE
8
User.Drawings
6
CONTINUOUS
10
54.6495010000000008
20
-45.7520990000000012
11
54.4512579999999957
21
-45.6376439999999945
0
LINE
8
User.Drawings
6
CONTINUOUS
10
54.4512579999999957
20
-45.6376439999999945
11
54.2696509999999961
21
-45.4982919999999993
0
LINE
8
User.Drawings
6
CONTINUOUS
10
54.2696509999999961
20
-45.4982919999999993
11
54.1077859999999973
21
-45.3364270000000005
0
LINE
8
User.Drawings
6
CONTINUOUS
10
54.1077859999999973
20
-45.3364270000000005
11
53.9684339999999949
21
-45.1548200000000008
0
LINE
8
User.Drawings
6
CONTINUOUS
10
53.9684339999999949
20
-45.1548200000000008
11
53.8539789999999954
21
-44.9565769999999958
0
LINE
8
User.Drawings
6
CONTINUOUS
10
53.8539789999999954
20
-44.9565769999999958
11
53.766377999999996
21
-44.7450909999999951
0
LINE
8
User.Drawings
6
CONTINUOUS
10
53.766377999999996
20
-44.7450909999999951
11
53.7071319999999943
21
-44.5239799999999946
0
LINE
8
User.Drawings
6
CONTINUOUS
10
53.7071319999999943
20
-44.5239799999999946
11
53.6772530000000003
21
-44.2970269999999999
0
LINE
8
User.Drawings
6
CONTINUOUS
10
53.6772530000000003
20
-44.2970269999999999
11
53.6772530000000003
21
-44.0681170000000009
0
LINE
8
User.Drawings
6
CONTINUOUS
10
53.6772530000000003
20
-44.0681170000000009
11
53.7071319999999943
21
-43.8411639999999991
0
LINE
8
User.Drawings
6
CONTINUOUS
10
53.7071319999999943
20
-43.8411639999999991
11
53.766377999999996
21
-43.6200529999999986
0
LINE
8
User.Drawings
6
CONTINUOUS
10
53.766377999999996
20
-43.6200529999999986
11
53.8539789999999954
21
-43.4085669999999979
0
LINE
8
User.Drawings
6
CONTINUOUS
10
53.8539789999999954
20
-43.4085669999999979
11
53.9684339999999949
21
-43.210324
0
LINE
8
User.Drawings
6
CONTINUOUS
10
53.9684339999999949
20
-43.210324
11
54.1077859999999973
21
-43.0287170000000003
0
LINE
8
User.Drawings
6
CONTINUOUS
10
54.1077859999999973
20
-43.0287170000000003
11
54.2696509999999961
21
-42.8668520000000015
0
LINE
8
User.Drawings
6
CONTINUOUS
10
54.2696509999999961
20
-42.8668520000000015
11
54.4512579999999957
21
-42.7274999999999991
0
LINE
8
User.Drawings
6
CONTINUOUS
10
54.4512579999999957
20
-42.7274999999999991
11
54.6495010000000008
21
-42.6130449999999996
0
LINE
8
User.Drawings
6
CONTINUOUS
10
54.6495010000000008
20
-42.6130449999999996
11
54.8609869999999944
21
-42.5254440000000002
0
LINE
8
User.Drawings
6
CONTINUOUS
10
54.8609869999999944
20
-42.5254440000000002
11
55.0820979999999949
21
-42.4661979999999986
0
LINE
8
User.Drawings
6
CONTINUOUS
10
55.0820979999999949
20
-42.4661979999999986
11
55.3090509999999966
21
-42.4363189999999975
0
LINE
8
User.Drawings
6
CONTINUOUS
10
55.3090509999999966
20
-42.4363189999999975
11
55.4235059999999962
21
-42.4325720000000004
0
LINE
8
User.Drawings
6
CONTINUOUS
10
55.4235059999999962
20
-42.4325720000000004
11
58.2535059999999945
21
-42.4325720000000004
0
LINE
8
User.Drawings
6
CONTINUOUS
10
58.2535059999999945
20
-42.4325720000000004
11
58.367960999999994
21
-42.4363189999999975
0
LINE
8
User.Drawings
6
CONTINUOUS
10
58.367960999999994
20
-164.9399319999999989
11
58.5949139999999957
21
-164.9698109999999929
0
LINE
8
User.Drawings
6
CONTINUOUS
10
58.5949139999999957
20
-164.9698109999999929
11
58.8160249999999962
21
-165.0290569999999946
0
LINE
8
User.Drawings
6
CONTINUOUS
10
58.8160249999999962
20
-165.0290569999999946
11
59.027510999999997
21
-165.116658000000001
0
LINE
8
User.Drawings
6
CONTINUOUS
10
59.027510999999997
20
-165.116658000000001
11
59.2257539999999949
21
-165.2311129999999935
0
LINE
8
User.Drawings
6
CONTINUOUS
10
59.2257539999999949
20
-165.2311129999999935
11
59.4073609999999945
21
-165.3704649999999958
0
LINE
8
User.Drawings
6
CONTINUOUS
10
59.4073609999999945
20
-165.3704649999999958
11
59.5692260000000005
21
-165.5323300000000017
0
LINE
8
User.Drawings
6
CONTINUOUS
10
59.5692260000000005
20
-165.5323300000000017
11
59.7085779999999957
21
-165.7139369999999872
0
LINE
8
User.Drawings
6
CONTINUOUS
10
59.7085779999999957
20
-165.7139369999999872
11
59.8230329999999952
21
-165.9121800000000064
0
LINE
8
User.Drawings
6
CONTINUOUS
10
59.8230329999999952
20
-165.9121800000000064
11
59.9106339999999946
21
-166.1236659999999858
0
LINE
8
User.Drawings
6
CONTINUOUS
10
59.9106339999999946
20
-166.1236659999999858
11
59.9698799999999963
21
-166.3447769999999934
0
LINE
8
User.Drawings
6
CONTINUOUS
10
59.9698799999999963
20
-166.3447769999999934
11
59.9997589999999974
21
-166.5717300000000023
0
LINE
8
User.Drawings
6
CONTINUOUS
10
59.9997589999999974
20
-166.5717300000000023
11
59.9997589999999974
21
-166.8006399999999871
0
LINE
8
User.Drawings
6
CONTINUOUS
10
59.9997589999999974
20
-166.8006399999999871
11
59.9698799999999963
21
-167.027592999999996
0
LINE
8
User.Drawings
6
CONTINUOUS
10
59.9698799999999963
20
-167.027592999999996
11
59.9106339999999946
21
-167.2487040000000036
0
LINE
8
User.Drawings
6
CONTINUOUS
10
59.9106339999999946
20
-167.2487040000000036
11
59.8230329999999952
21
-167.460189999999983
0
LINE
8
User.Drawings
6
CONTINUOUS
10
59.8230329999999952
20
-167.460189999999983
11
59.7085779999999957
21
-167.6584330000000023
0
LINE
8
User.Drawings
6
CONTINUOUS
10
59.7085779999999957
20
-167.6584330000000023
11
59.5692260000000005
21
-167.8400399999999877
0
LINE
8
User.Drawings
6
CONTINUOUS
10
59.5692260000000005
20
-167.8400399999999877
11
59.4073609999999945
21
-168.0019049999999936
0
LINE
8
User.Drawings
6
CONTINUOUS
10
59.4073609999999945
20
-168.0019049999999936
11
59.2257539999999949
21
-168.141256999999996
0
LINE
8
User.Drawings
6
CONTINUOUS
10
59.2257539999999949
20
-168.141256999999996
11
59.027510999999997
21
-168.2557119999999884
0
LINE
8
User.Drawings
6
CONTINUOUS
10
59.027510999999997
20
-168.2557119999999884
11
58.8160249999999962
21
-168.3433129999999949
0
LINE
8
User.Drawings
6
CONTINUOUS
10
58.8160249999999962
20
-168.3433129999999949
11
58.5949139999999957
21
-168.4025589999999966
0
LINE
8
User.Drawings
6
CONTINUOUS
10
58.5949139999999957
20
-168.4025589999999966
11
58.367960999999994
21
-168.4324379999999906
0
LINE
8
User.Drawings
6
CONTINUOUS
10
58.367960999999994
20
-168.4324379999999906
11
58.2535059999999945
21
-168.4361849999999947
0
LINE
8
User.Drawings
6
CONTINUOUS
10
58.2535059999999945
20
-168.4361849999999947
11
55.4235059999999962
21
-168.4361849999999947
0
LINE
8
User.Drawings
6
CONTINUOUS
10
55.4235059999999962
20
-168.4361849999999947
11
55.3090509999999966
21
-168.4324379999999906
0
LINE
8
User.Drawings
6
CONTINUOUS
10
55.3090509999999966
20
-168.4324379999999906
11
55.0820979999999949
21
-168.4025589999999966
0
LINE
8
User.Drawings
6
CONTINUOUS
10
55.0820979999999949
20
-168.4025589999999966
11
54.8609869999999944
21
-168.3433129999999949
0
LINE
8
User.Drawings
6
CONTINUOUS
10
54.8609869999999944
20
-168.3433129999999949
11
54.6495010000000008
21
-168.2557119999999884
0
LINE
8
User.Drawings
6
CONTINUOUS
10
54.6495010000000008
20
-168.2557119999999884
11
54.4512579999999957
21
-168.141256999999996
0
LINE
8
User.Drawings
6
CONTINUOUS
10
54.4512579999999957
20
-168.141256999999996
11
54.2696509999999961
21
-168.0019049999999936
0
LINE
8
User.Drawings
6
CONTINUOUS
10
54.2696509999999961
20
-168.0019049999999936
11
54.1077859999999973
21
-167.8400399999999877
0
LINE
8
User.Drawings
6
CONTINUOUS
10
54.1077859999999973
20
-167.8400399999999877
11
53.9684339999999949
21
-167.6584330000000023
0
LINE
8
User.Drawings
6
CONTINUOUS
10
53.9684339999999949
20
-167.6584330000000023
11
53.8539789999999954
21
-167.460189999999983
0
LINE
8
User.Drawings
6
CONTINUOUS
10
53.8539789999999954
20
-167.460189999999983
11
53.766377999999996
21
-167.2487040000000036
0
LINE
8
User.Drawings
6
CONTINUOUS
10
53.766377999999996
20
-167.2487040000000036
11
53.7071319999999943
21
-167.027592999999996
0
LINE
8
User.Drawings
6
CONTINUOUS
10
53.7071319999999943
20
-167.027592999999996
11
53.6772530000000003
21
-166.8006399999999871
0
LINE
8
User.Drawings
6
CONTINUOUS
10
53.6772530000000003
20
-166.8006399999999871
11
53.6772530000000003
21
-166.5717300000000023
0
LINE
8
User.Drawings
6
CONTINUOUS
10
53.6772530000000003
20
-166.5717300000000023
11
53.7071319999999943
21
-166.3447769999999934
0
LINE
8
User.Drawings
6
CONTINUOUS
10
53.7071319999999943
20
-166.3447769999999934
11
53.766377999999996
21
-166.1236659999999858
0
LINE
8
User.Drawings
6
CONTINUOUS
10
53.766377999999996
20
-166.1236659999999858
11
53.8539789999999954
21
-165.9121800000000064
0
LINE
8
User.Drawings
6
CONTINUOUS
10
53.8539789999999954
20
-165.9121800000000064
11
53.9684339999999949
21
-165.7139369999999872
0
LINE
8
User.Drawings
6
CONTINUOUS
10
53.9684339999999949
20
-165.7139369999999872
11
54.1077859999999973
21
-165.5323300000000017
0
LINE
8
User.Drawings
6
CONTINUOUS
10
54.1077859999999973
20
-165.5323300000000017
11
54.2696509999999961
21
-165.3704649999999958
0
LINE
8
User.Drawings
6
CONTINUOUS
10
54.2696509999999961
20
-165.3704649999999958
11
54.4512579999999957
21
-165.2311129999999935
0
LINE
8
User.Drawings
6
CONTINUOUS
10
54.4512579999999957
20
-165.2311129999999935
11
54.6495010000000008
21
-165.116658000000001
0
LINE
8
User.Drawings
6
CONTINUOUS
10
54.6495010000000008
20
-165.116658000000001
11
54.8609869999999944
21
-165.0290569999999946
0
LINE
8
User.Drawings
6
CONTINUOUS
10
54.8609869999999944
20
-165.0290569999999946
11
55.0820979999999949
21
-164.9698109999999929
0
LINE
8
User.Drawings
6
CONTINUOUS
10
55.0820979999999949
20
-164.9698109999999929
11
55.3090509999999966
21
-164.9399319999999989
0
LINE
8
User.Drawings
6
CONTINUOUS
10
55.3090509999999966
20
-164.9399319999999989
11
55.4235059999999962
21
-164.9361849999999947
0
LINE
8
User.Drawings
6
CONTINUOUS
10
55.4235059999999962
20
-164.9361849999999947
11
58.2535059999999945
21
-164.9361849999999947
0
LINE
8
User.Drawings
6
CONTINUOUS
10
58.2535059999999945
20
-164.9361849999999947
11
58.367960999999994
21
-164.9399319999999989
0
LINE
8
User.Drawings
6
CONTINUOUS
10
93.9792149999999964
20
-42.4363189999999975
11
94.206167999999991
21
-42.4661979999999986
0
LINE
8
User.Drawings
6
CONTINUOUS
10
94.206167999999991
20
-42.4661979999999986
11
94.4272789999999986
21
-42.5254440000000002
0
LINE
8
User.Drawings
6
CONTINUOUS
10
94.4272789999999986
20
-42.5254440000000002
11
94.6387649999999923
21
-42.6130449999999996
0
LINE
8
User.Drawings
6
CONTINUOUS
10
94.6387649999999923
20
-42.6130449999999996
11
94.8370079999999973
21
-42.7274999999999991
0
LINE
8
User.Drawings
6
CONTINUOUS
10
94.8370079999999973
20
-42.7274999999999991
11
95.0186149999999969
21
-42.8668520000000015
0
LINE
8
User.Drawings
6
CONTINUOUS
10
95.0186149999999969
20
-42.8668520000000015
11
95.1804799999999886
21
-43.0287170000000003
0
LINE
8
User.Drawings
6
CONTINUOUS
10
95.1804799999999886
20
-43.0287170000000003
11
95.319831999999991
21
-43.210324
0
LINE
8
User.Drawings
6
CONTINUOUS
10
95.319831999999991
20
-43.210324
11
95.4342869999999976
21
-43.4085669999999979
0
LINE
8
User.Drawings
6
CONTINUOUS
10
95.4342869999999976
20
-43.4085669999999979
11
95.5218879999999899
21
-43.6200529999999986
0
LINE
8
User.Drawings
6
CONTINUOUS
10
95.5218879999999899
20
-43.6200529999999986
11
95.5811339999999916
21
-43.8411639999999991
0
LINE
8
User.Drawings
6
CONTINUOUS
10
95.5811339999999916
20
-43.8411639999999991
11
95.6110129999999998
21
-44.0681170000000009
0
LINE
8
User.Drawings
6
CONTINUOUS
10
95.6110129999999998
20
-44.0681170000000009
11
95.6110129999999998
21
-44.2970269999999999
0
LINE
8
User.Drawings
6
CONTINUOUS
10
95.6110129999999998
20
-44.2970269999999999
11
95.5811339999999916
21
-44.5239799999999946
0
LINE
8
User.Drawings
6
CONTINUOUS
10
95.5811339999999916
20
-44.5239799999999946
11
95.5218879999999899
21
-44.7450909999999951
0
LINE
8
User.Drawings
6
CONTINUOUS
10
95.5218879999999899
20
-44.7450909999999951
11
95.4342869999999976
21
-44.9565769999999958
0
LINE
8
User.Drawings
6
CONTINUOUS
10
95.4342869999999976
20
-44.9565769999999958
11
95.319831999999991
21
-45.1548200000000008
0
LINE
8
User.Drawings
6
CONTINUOUS
10
95.319831999999991
20
-45.1548200000000008
11
95.1804799999999886
21
-45.3364270000000005
0
LINE
8
User.Drawings
6
CONTINUOUS
10
95.1804799999999886
20
-45.3364270000000005
11
95.0186149999999969
21
-45.4982919999999993
0
LINE
8
User.Drawings
6
CONTINUOUS
10
95.0186149999999969
20
-45.4982919999999993
11
94.8370079999999973
21
-45.6376439999999945
0
LINE
8
User.Drawings
6
CONTINUOUS
10
94.8370079999999973
20
-45.6376439999999945
11
94.6387649999999923
21
-45.7520990000000012
0
LINE
8
User.Drawings
6
CONTINUOUS
10
94.6387649999999923
20
-45.7520990000000012
11
94.4272789999999986
21
-45.8397000000000006
0
LINE
8
User.Drawings
6
CONTINUOUS
10
94.4272789999999986
20
-45.8397000000000006
11
94.206167999999991
21
-45.8989459999999951
0
LINE
8
User.Drawings
6
CONTINUOUS
10
94.206167999999991
20
-45.8989459999999951
11
93.9792149999999964
21
-45.9288249999999962
0
LINE
8
User.Drawings
6
CONTINUOUS
10
93.9792149999999964
20
-45.9288249999999962
11
93.8647599999999898
21
-45.9325720000000004
0
LINE
8
User.Drawings
6
CONTINUOUS
10
93.8647599999999898
20
-45.9325720000000004
11
91.0347599999999915
21
-45.9325720000000004
0
LINE
8
User.Drawings
6
CONTINUOUS
10
91.0347599999999915
20
-45.9325720000000004
11
90.920304999999999
21
-45.9288249999999962
0
LINE
8
User.Drawings
6
CONTINUOUS
10
90.920304999999999
20
-45.9288249999999962
11
90.6933519999999902
21
-45.8989459999999951
0
LINE
8
User.Drawings
6
CONTINUOUS
10
90.6933519999999902
20
-45.8989459999999951
11
90.4722409999999968
21
-45.8397000000000006
0
LINE
8
User.Drawings
6
CONTINUOUS
10
90.4722409999999968
20
-45.8397000000000006
11
90.260754999999989
21
-45.7520990000000012
0
LINE
8
User.Drawings
6
CONTINUOUS
10
90.260754999999989
20
-45.7520990000000012
11
90.0625119999999981
21
-45.6376439999999945
0
LINE
8
User.Drawings
6
CONTINUOUS
10
90.0625119999999981
20
-45.6376439999999945
11
89.8809049999999985
21
-45.4982919999999993
0
LINE
8
User.Drawings
6
CONTINUOUS
10
89.8809049999999985
20
-45.4982919999999993
11
89.7190399999999926
21
-45.3364270000000005
0
LINE
8
User.Drawings
6
CONTINUOUS
10
89.7190399999999926
20
-45.3364270000000005
11
89.5796879999999902
21
-45.1548200000000008
0
LINE
8
User.Drawings
6
CONTINUOUS
10
89.5796879999999902
20
-45.1548200000000008
11
89.4652329999999978
21
-44.9565769999999958
0
LINE
8
User.Drawings
6
CONTINUOUS
10
89.4652329999999978
20
-44.9565769999999958
11
89.3776319999999913
21
-44.7450909999999951
0
LINE
8
User.Drawings
6
CONTINUOUS
10
89.3776319999999913
20
-44.7450909999999951
11
89.3183859999999896
21
-44.5239799999999946
0
LINE
8
User.Drawings
6
CONTINUOUS
10
89.3183859999999896
20
-44.5239799999999946
11
89.2885069999999956
21
-44.2970269999999999
0
LINE
8
User.Drawings
6
CONTINUOUS
10
89.2885069999999956
20
-44.2970269999999999
11
89.2885069999999956
21
-44.0681170000000009
0
LINE
8
User.Drawings
6
CONTINUOUS
10
89.2885069999999956
20
-44.0681170000000009
11
89.3183859999999896
21
-43.8411639999999991
0
LINE
8
User.Drawings
6
CONTINUOUS
10
89.3183859999999896
20
-43.8411639999999991
11
89.3776319999999913
21
-43.6200529999999986
0
LINE
8
User.Drawings
6
CONTINUOUS
10
89.3776319999999913
20
-43.6200529999999986
11
89.4652329999999978
21
-43.4085669999999979
0
LINE
8
User.Drawings
6
CONTINUOUS
10
89.4652329999999978
20
-43.4085669999999979
11
89.5796879999999902
21
-43.210324
0
LINE
8
User.Drawings
6
CONTINUOUS
10
89.5796879999999902
20
-43.210324
11
89.7190399999999926
21
-43.0287170000000003
0
LINE
8
User.Drawings
6
CONTINUOUS
10
89.7190399999999926
20
-43.0287170000000003
11
89.8809049999999985
21
-42.8668520000000015
0
LINE
8
User.Drawings
6
CONTINUOUS
10
89.8809049999999985
20
-42.8668520000000015
11
90.0625119999999981
21
-42.7274999999999991
0
LINE
8
User.Drawings
6
CONTINUOUS
10
90.0625119999999981
20
-42.7274999999999991
11
90.260754999999989
21
-42.6130449999999996
0
LINE
8
User.Drawings
6
CONTINUOUS
10
90.260754999999989
20
-42.6130449999999996
11
90.4722409999999968
21
-42.5254440000000002
0
LINE
8
User.Drawings
6
CONTINUOUS
10
90.4722409999999968
20
-42.5254440000000002
11
90.6933519999999902
21
-42.4661979999999986
0
LINE
8
User.Drawings
6
CONTINUOUS
10
90.6933519999999902
20
-42.4661979999999986
11
90.920304999999999
21
-42.4363189999999975
0
LINE
8
User.Drawings
6
CONTINUOUS
10
90.920304999999999
20
-42.4363189999999975
11
91.0347599999999915
21
-42.4325720000000004
0
LINE
8
User.Drawings
6
CONTINUOUS
10
91.0347599999999915
20
-42.4325720000000004
11
93.8647599999999898
21
-42.4325720000000004
0
LINE
8
User.Drawings
6
CONTINUOUS
10
93.8647599999999898
20
-42.4325720000000004
11
93.9792149999999964
21
-42.4363189999999975
0
LINE
8
User.Drawings
6
CONTINUOUS
10
93.9792149999999964
20
-164.9399319999999989
11
94.206167999999991
21
-164.9698109999999929
0
LINE
8
User.Drawings
6
CONTINUOUS
10
94.206167999999991
20
-164.9698109999999929
11
94.4272789999999986
21
-165.0290569999999946
0
LINE
8
User.Drawings
6
CONTINUOUS
10
94.4272789999999986
20
-165.0290569999999946
11
94.6387649999999923
21
-165.116658000000001
0
LINE
8
User.Drawings
6
CONTINUOUS
10
94.6387649999999923
20
-165.116658000000001
11
94.8370079999999973
21
-165.2311129999999935
0
LINE
8
User.Drawings
6
CONTINUOUS
10
94.8370079999999973
20
-165.2311129999999935
11
95.0186149999999969
21
-165.3704649999999958
0
LINE
8
User.Drawings
6
CONTINUOUS
10
95.0186149999999969
20
-165.3704649999999958
11
95.1804799999999886
21
-165.5323300000000017
0
LINE
8
User.Drawings
6
CONTINUOUS
10
95.1804799999999886
20
-165.5323300000000017
11
95.319831999999991
21
-165.7139369999999872
0
LINE
8
User.Drawings
6
CONTINUOUS
10
95.319831999999991
20
-165.7139369999999872
11
95.4342869999999976
21
-165.9121800000000064
0
LINE
8
User.Drawings
6
CONTINUOUS
10
95.4342869999999976
20
-165.9121800000000064
11
95.5218879999999899
21
-166.1236659999999858
0
LINE
8
User.Drawings
6
CONTINUOUS
10
95.5218879999999899
20
-166.1236659999999858
11
95.5811339999999916
21
-166.3447769999999934
0
LINE
8
User.Drawings
6
CONTINUOUS
10
95.5811339999999916
20
-166.3447769999999934
11
95.6110129999999998
21
-166.5717300000000023
0
LINE
8
User.Drawings
6
CONTINUOUS
10
95.6110129999999998
20
-166.5717300000000023
11
95.6110129999999998
21
-166.8006399999999871
0
LINE
8
User.Drawings
6
CONTINUOUS
10
95.6110129999999998
20
-166.8006399999999871
11
95.5811339999999916
21
-167.027592999999996
0
LINE
8
User.Drawings
6
CONTINUOUS
10
95.5811339999999916
20
-167.027592999999996
11
95.5218879999999899
21
-167.2487040000000036
0
LINE
8
User.Drawings
6
CONTINUOUS
10
95.5218879999999899
20
-167.2487040000000036
11
95.4342869999999976
21
-167.460189999999983
0
LINE
8
User.Drawings
6
CONTINUOUS
10
95.4342869999999976
20
-167.460189999999983
11
95.319831999999991
21
-167.6584330000000023
0
LINE
8
User.Drawings
6
CONTINUOUS
10
95.319831999999991
20
-167.6584330000000023
11
95.1804799999999886
21
-167.8400399999999877
0
LINE
8
User.Drawings
6
CONTINUOUS
10
95.1804799999999886
20
-167.8400399999999877
11
95.0186149999999969
21
-168.0019049999999936
0
LINE
8
User.Drawings
6
CONTINUOUS
10
95.0186149999999969
20
-168.0019049999999936
11
94.8370079999999973
21
-168.141256999999996
0
LINE
8
User.Drawings
6
CONTINUOUS
10
94.8370079999999973
20
-168.141256999999996
11
94.6387649999999923
21
-168.2557119999999884
0
LINE
8
User.Drawings
6
CONTINUOUS
10
94.6387649999999923
20
-168.2557119999999884
11
94.4272789999999986
21
-168.3433129999999949
0
LINE
8
User.Drawings
6
CONTINUOUS
10
94.4272789999999986
20
-168.3433129999999949
11
94.206167999999991
21
-168.4025589999999966
0
LINE
8
User.Drawings
6
CONTINUOUS
10
94.206167999999991
20
-168.4025589999999966
11
93.9792149999999964
21
-168.4324379999999906
0
LINE
8
User.Drawings
6
CONTINUOUS
10
93.9792149999999964
20
-168.4324379999999906
11
93.8647599999999898
21
-168.4361849999999947
0
LINE
8
User.Drawings
6
CONTINUOUS
10
93.8647599999999898
20
-168.4361849999999947
11
91.0347599999999915
21
-168.4361849999999947
0
LINE
8
User.Drawings
6
CONTINUOUS
10
91.0347599999999915
20
-168.4361849999999947
11
90.920304999999999
21
-168.4324379999999906
0
LINE
8
User.Drawings
6
CONTINUOUS
10
90.920304999999999
20
-168.4324379999999906
11
90.6933519999999902
21
-168.4025589999999966
0
LINE
8
User.Drawings
6
CONTINUOUS
10
90.6933519999999902
20
-168.4025589999999966
11
90.4722409999999968
21
-168.3433129999999949
0
LINE
8
User.Drawings
6
CONTINUOUS
10
90.4722409999999968
20
-168.3433129999999949
11
90.260754999999989
21
-168.2557119999999884
0
LINE
8
User.Drawings
6
CONTINUOUS
10
90.260754999999989
20
-168.2557119999999884
11
90.0625119999999981
21
-168.141256999999996
0
LINE
8
User.Drawings
6
CONTINUOUS
10
90.0625119999999981
20
-168.141256999999996
11
89.8809049999999985
21
-168.0019049999999936
0
LINE
8
User.Drawings
6
CONTINUOUS
10
89.8809049999999985
20
-168.0019049999999936
11
89.7190399999999926
21
-167.8400399999999877
0
LINE
8
User.Drawings
6
CONTINUOUS
10
89.7190399999999926
20
-167.8400399999999877
11
89.5796879999999902
21
-167.6584330000000023
0
LINE
8
User.Drawings
6
CONTINUOUS
10
89.5796879999999902
20
-167.6584330000000023
11
89.4652329999999978
21
-167.460189999999983
0
LINE
8
User.Drawings
6
CONTINUOUS
10
89.4652329999999978
20
-167.460189999999983
11
89.3776319999999913
21
-167.2487040000000036
0
LINE
8
User.Drawings
6
CONTINUOUS
10
89.3776319999999913
20
-167.2487040000000036
11
89.3183859999999896
21
-167.027592999999996
0
LINE
8
User.Drawings
6
CONTINUOUS
10
89.3183859999999896
20
-167.027592999999996
11
89.2885069999999956
21
-166.8006399999999871
0
LINE
8
User.Drawings
6
CONTINUOUS
10
89.2885069999999956
20
-166.8006399999999871
11
89.2885069999999956
21
-166.5717300000000023
0
LINE
8
User.Drawings
6
CONTINUOUS
10
89.2885069999999956
20
-166.5717300000000023
11
89.3183859999999896
21
-166.3447769999999934
0
LINE
8
User.Drawings
6
CONTINUOUS
10
89.3183859999999896
20
-166.3447769999999934
11
89.3776319999999913
21
-166.1236659999999858
0
LINE
8
User.Drawings
6
CONTINUOUS
10
89.3776319999999913
20
-166.1236659999999858
11
89.4652329999999978
21
-165.9121800000000064
0
LINE
8
User.Drawings
6
CONTINUOUS
10
89.4652329999999978
20
-165.9121800000000064
11
89.5796879999999902
21
-165.7139369999999872
0
LINE
8
User.Drawings
6
CONTINUOUS
10
89.5796879999999902
20
-165.7139369999999872
11
89.7190399999999926
21
-165.5323300000000017
0
LINE
8
User.Drawings
6
CONTINUOUS
10
89.7190399999999926
20
-165.5323300000000017
11
89.8809049999999985
21
-165.3704649999999958
0
LINE
8
User.Drawings
6
CONTINUOUS
10
89.8809049999999985
20
-165.3704649999999958
11
90.0625119999999981
21
-165.2311129999999935
0
LINE
8
User.Drawings
6
CONTINUOUS
10
90.0625119999999981
20
-165.2311129999999935
11
90.260754999999989
21
-165.116658000000001
0
LINE
8
User.Drawings
6
CONTINUOUS
10
90.260754999999989
20
-165.116658000000001
11
90.4722409999999968
21
-165.0290569999999946
0
LINE
8
User.Drawings
6
CONTINUOUS
10
90.4722409999999968
20
-165.0290569999999946
11
90.6933519999999902
21
-164.9698109999999929
0
LINE
8
User.Drawings
6
CONTINUOUS
10
90.6933519999999902
20
-164.9698109999999929
11
90.920304999999999
21
-164.9399319999999989
0
LINE
8
User.Drawings
6
CONTINUOUS
10
90.920304999999999
20
-164.9399319999999989
11
91.0347599999999915
21
-164.9361849999999947
0
LINE
8
User.Drawings
6
CONTINUOUS
10
91.0347599999999915
20
-164.9361849999999947
11
93.8647599999999898
21
-164.9361849999999947
0
LINE
8
User.Drawings
6
CONTINUOUS
10
93.8647599999999898
20
-164.9361849999999947
11
93.9792149999999964
21
-164.9399319999999989
0
CIRCLE
8
User.Drawings
10
72.2121999999999957
20
-133.2915999999999883
40
2.6000000000000001
0
CIRCLE
8
User.Drawings
10
92.4497499999999945
20
-52.2655999999999992
40
1.5
0
CIRCLE
8
User.Drawings
10
54.6595099999999974
20
-74.6175999999999959
40
3.1749999999999998
0
CIRCLE
8
User.Drawings
10
95.5027099999999933
20
-87.96159999999999
40
3.1749999999999998
0
CIRCLE
8
User.Drawings
10
85.2919100000000014
20
-59.6950999999999965
40
3.1749999999999998
0
LINE
8
User.Drawings
6
CONTINUOUS
10
52.2234410000000011
20
-106.3996999999999957
11
75.7184409999999986
21
-106.3996999999999957
0
LINE
8
User.Drawings
6
CONTINUOUS
10
75.7184409999999986
20
-106.3996999999999957
11
75.7184409999999986
21
-121.6396999999999906
0
LINE
8
User.Drawings
6
CONTINUOUS
10
75.7184409999999986
20
-121.6396999999999906
11
52.2234410000000011
21
-121.6396999999999906
0
LINE
8
User.Drawings
6
CONTINUOUS
10
52.2234410000000011
20
-121.6396999999999906
11
52.2234410000000011
21
-106.3996999999999957
0
CIRCLE
8
User.Drawings
10
54.4321999999999946
20
-155.5165999999999826
40
2.6000000000000001
0
LINE
8
User.Drawings
6
CONTINUOUS
10
99.3821999999999974
20
-122.7975999999999885
11
99.3821999999999974
21
-112.7975999999999885
  0
ENDSEC
  0
EOF
