  0
SECTION
  2
HEADER
  9
$ANGBASE
  50
0.0
  9
$ANGDIR
  70
1
  9
$MEASUREMENT
  70
1
  0
ENDSEC
  0
SECTION
  2
TABLES
  0
TABLE
  2
LTYPE
  70
4
  0
LTYPE
  5
40F
  2
CONTINUOUS
  70
0
  3
Solid line
  72
65
  73
0
  40
0.0
  0
LTYPE
  5
410
  2
DASHDOT
 70
0
  3
Dash Dot ____ _ ____ _
 72
65
 73
4
 40
2.0
 49
1.25
 49
-0.25
 49
0.25
 49
-0.25
  0
LTYPE
  5
411
  2
DASHED
 70
0
  3
Dashed __ __ __ __ __
 72
65
 73
2
 40
0.75
 49
0.5
 49
-0.25
  0
LTYPE
  5
43B
  2
DOTTED
 70
0
  3
Dotted .  .  .  .
 72
65
 73
2
 40
0.2
 49
0.0
 49
-0.2
  0
ENDTAB
  0
TABLE
  2
STYLE
  70
4
  0
STYLE
  2
KICAD
  70
0
  40
0
  41
1
  42
1
  50
0
  71
0
  3
isocp.shx
  0
STYLE
  2
KICADB
  70
0
  40
0
  41
1
  42
1
  50
0
  71
0
  3
isocp.shx
  0
STYLE
  2
KICADI
  70
0
  40
0
  41
1
  42
1
  50
15
  71
0
  3
isocp.shx
  0
STYLE
  2
KICADBI
  70
0
  40
0
  41
1
  42
1
  50
15
  71
0
  3
isocp.shx
  0
ENDTAB
  0
TABLE
  2
LAYER
  70
1
  0
LAYER
  2
BLACK
  70
0
  62
7
  6
CONTINUOUS
  0
ENDTAB
  0
ENDSEC
  0
SECTION
  2
ENTITIES
0
LINE
8
BLACK
6
CONTINUOUS
10
112.0775000000000006
20
-60.8189999999999955
11
115.2524999999999977
21
-60.8189999999999955
0
LINE
8
BLACK
6
CONTINUOUS
10
115.2524999999999977
20
-60.8189999999999955
11
115.2524999999999977
21
-88.2509999999999906
0
LINE
8
BLACK
6
CONTINUOUS
10
115.2524999999999977
20
-88.2509999999999906
11
112.0775000000000006
21
-88.2509999999999906
0
LINE
8
BLACK
6
CONTINUOUS
10
112.0775000000000006
20
-88.2509999999999906
11
112.0775000000000006
21
-60.8189999999999955
0
CIRCLE
8
BLACK
10
124.4599999999999937
20
-126.171999999999997
40
3.25
0
LINE
8
BLACK
6
CONTINUOUS
10
94.2339999999999947
20
-51.7524999999999977
11
121.6659999999999968
21
-51.7524999999999977
0
LINE
8
BLACK
6
CONTINUOUS
10
121.6659999999999968
20
-51.7524999999999977
11
121.6659999999999968
21
-48.5775000000000006
0
LINE
8
BLACK
6
CONTINUOUS
10
121.6659999999999968
20
-48.5775000000000006
11
94.2339999999999947
21
-48.5775000000000006
0
LINE
8
BLACK
6
CONTINUOUS
10
94.2339999999999947
20
-48.5775000000000006
11
94.2339999999999947
21
-51.7524999999999977
0
CIRCLE
8
BLACK
10
113.0300000000000011
20
-121.0919999999999987
40
3.25
0
CIRCLE
8
BLACK
10
124.4529999999999887
20
-115.188999999999993
40
3.25
0
LINE
8
BLACK
6
CONTINUOUS
10
86.6574999999999989
20
-60.8189999999999955
11
89.832499999999996
21
-60.8189999999999955
0
LINE
8
BLACK
6
CONTINUOUS
10
89.832499999999996
20
-60.8189999999999955
11
89.832499999999996
21
-88.2509999999999906
0
LINE
8
BLACK
6
CONTINUOUS
10
89.832499999999996
20
-88.2509999999999906
11
86.6574999999999989
21
-88.2509999999999906
0
LINE
8
BLACK
6
CONTINUOUS
10
86.6574999999999989
20
-88.2509999999999906
11
86.6574999999999989
21
-60.8189999999999955
0
CIRCLE
8
BLACK
10
86.9949999999999903
20
-108.3919999999999959
40
3.25
0
CIRCLE
8
BLACK
10
129.5661999999999807
20
-50.1649999999999991
40
1.5
0
CIRCLE
8
BLACK
10
86.9949999999999903
20
-133.7920000000000016
40
3.25
0
LINE
8
BLACK
6
CONTINUOUS
10
99.3774999999999977
20
-60.8189999999999955
11
102.5524999999999949
21
-60.8189999999999955
0
LINE
8
BLACK
6
CONTINUOUS
10
102.5524999999999949
20
-60.8189999999999955
11
102.5524999999999949
21
-88.2509999999999906
0
LINE
8
BLACK
6
CONTINUOUS
10
102.5524999999999949
20
-88.2509999999999906
11
99.3774999999999977
21
-88.2509999999999906
0
LINE
8
BLACK
6
CONTINUOUS
10
99.3774999999999977
20
-88.2509999999999906
11
99.3774999999999977
21
-60.8189999999999955
0
CIRCLE
8
BLACK
10
98.4249999999999972
20
-126.171999999999997
40
3.25
0
CIRCLE
8
BLACK
10
101.5600000000000023
20
-98.4249999999999972
40
2.54
0
CIRCLE
8
BLACK
10
113.0300000000000011
20
-133.7920000000000016
40
3.25
0
CIRCLE
8
BLACK
10
86.9949999999999903
20
-121.0919999999999987
40
3.25
0
CIRCLE
8
BLACK
10
88.2249999999999943
20
-98.4249999999999972
40
2.54
0
CIRCLE
8
BLACK
10
86.9949999999999903
20
-146.5849999999999795
40
3.25
0
CIRCLE
8
BLACK
10
98.4249999999999972
20
-149.2249999999999943
40
3.25
0
CIRCLE
8
BLACK
10
114.894999999999996
20
-98.4249999999999972
40
2.54
0
CIRCLE
8
BLACK
10
124.4599999999999937
20
-138.2369999999999948
40
3.25
0
CIRCLE
8
BLACK
10
113.0300000000000011
20
-146.5849999999999795
40
3.25
0
CIRCLE
8
BLACK
10
112.9922499999999985
20
-108.3919999999999959
40
3.25
0
LINE
8
BLACK
6
CONTINUOUS
10
81.9607999999999919
20
-34.8183999999999969
11
132.6407999999999845
21
-34.8183999999999969
0
LINE
8
BLACK
6
CONTINUOUS
10
81.9607999999999919
20
-163.3183999999999969
11
81.9607999999999919
21
-34.8183999999999969
0
LINE
8
BLACK
6
CONTINUOUS
10
132.6407999999999845
20
-34.8183999999999969
11
132.6407999999999845
21
-163.3183999999999969
0
LINE
8
BLACK
6
CONTINUOUS
10
132.6407999999999845
20
-163.3183999999999969
11
81.9607999999999919
21
-163.3183999999999969
0
CIRCLE
8
BLACK
10
89.4607999999999919
20
-37.8183999999999969
40
1.5999999999999999
0
CIRCLE
8
BLACK
10
89.4607999999999919
20
-160.3183999999999969
40
1.5999999999999999
0
CIRCLE
8
BLACK
10
125.1407999999999987
20
-37.8183999999999969
40
1.5999999999999999
0
CIRCLE
8
BLACK
10
125.1407999999999987
20
-160.3183999999999969
40
1.5999999999999999
0
CIRCLE
8
BLACK
10
98.4699999999999989
20
-114.7419999999999902
40
3.25
0
CIRCLE
8
BLACK
10
124.4599999999999937
20
-149.2249999999999943
40
3.25
0
CIRCLE
8
BLACK
10
98.4249999999999972
20
-138.2369999999999948
40
3.25
0
CIRCLE
8
BLACK
10
127.3810000000000002
20
-96.6469999999999914
40
2.6000000000000001
0
LINE
8
BLACK
6
CONTINUOUS
10
124.7774999999999892
20
-60.8189999999999955
11
127.9525000000000006
21
-60.8189999999999955
0
LINE
8
BLACK
6
CONTINUOUS
10
127.9525000000000006
20
-60.8189999999999955
11
127.9525000000000006
21
-88.2509999999999906
0
LINE
8
BLACK
6
CONTINUOUS
10
127.9525000000000006
20
-88.2509999999999906
11
124.7774999999999892
21
-88.2509999999999906
0
LINE
8
BLACK
6
CONTINUOUS
10
124.7774999999999892
20
-88.2509999999999906
11
124.7774999999999892
21
-60.8189999999999955
0
LINE
8
BLACK
6
CONTINUOUS
10
82.6007999999999925
20
-44.5683999999999969
11
82.6007999999999925
21
-153.5683999999999969
0
LINE
8
BLACK
6
CONTINUOUS
10
82.6007999999999925
20
-153.5683999999999969
11
83.8708000000000027
21
-153.5683999999999969
0
LINE
8
BLACK
6
CONTINUOUS
10
83.8708000000000027
20
-44.5683999999999969
11
82.6007999999999925
21
-44.5683999999999969
0
LINE
8
BLACK
6
CONTINUOUS
10
83.8708000000000027
20
-153.5683999999999969
11
132.0007999999999981
21
-153.5683999999999969
0
LINE
8
BLACK
6
CONTINUOUS
10
132.0007999999999981
20
-44.5683999999999969
11
83.8708000000000027
21
-44.5683999999999969
0
LINE
8
BLACK
6
CONTINUOUS
10
132.0007999999999981
20
-153.5683999999999969
11
132.0007999999999981
21
-44.5683999999999969
0
LINE
8
BLACK
6
CONTINUOUS
10
130.728999999999985
20
-100.2099999999999937
11
132.9139999999999873
21
-100.2099999999999937
0
LINE
8
BLACK
6
CONTINUOUS
10
130.728999999999985
20
-109.9799999999999898
11
130.728999999999985
21
-100.2099999999999937
0
LINE
8
BLACK
6
CONTINUOUS
10
132.9139999999999873
20
-100.2099999999999937
11
132.9139999999999873
21
-109.9799999999999898
0
LINE
8
BLACK
6
CONTINUOUS
10
132.9139999999999873
20
-109.9799999999999898
11
130.728999999999985
21
-109.9799999999999898
  0
ENDSEC
  0
EOF
