<svg width="31.115mm" height="97.155mm">
<g transform="scale(1,-1)"><circle cx="20.32mm" cy="-97.155mm" r="3.4mm" stroke-width="1"/>
<circle cx="40.005mm" cy="-97.155mm" r="3.4mm" stroke-width="1"/>
<circle cx="10.16mm" cy="-95.25mm" r="3.4mm" stroke-width="1"/>
<circle cx="29.845mm" cy="-95.25mm" r="3.4mm" stroke-width="1"/>
<circle cx="13.6525mm" cy="-89.2175mm" r="1.5mm" stroke-width="1"/>
<circle cx="20.32mm" cy="-84.455mm" r="3.4mm" stroke-width="1"/>
<circle cx="40.005mm" cy="-84.455mm" r="3.4mm" stroke-width="1"/>
<circle cx="10.16mm" cy="-81.915mm" r="3.4mm" stroke-width="1"/>
<circle cx="29.845mm" cy="-81.915mm" r="3.4mm" stroke-width="1"/>
<circle cx="13.6525mm" cy="-76.2mm" r="1.5mm" stroke-width="1"/>
<circle cx="40.005mm" cy="-70.8025mm" r="3.4mm" stroke-width="1"/>
<circle cx="10.16mm" cy="-68.58mm" r="3.4mm" stroke-width="1"/>
<circle cx="29.845mm" cy="-68.58mm" r="3.4mm" stroke-width="1"/>
<circle cx="13.6525mm" cy="-62.865mm" r="1.5mm" stroke-width="1"/>
<circle cx="20.32mm" cy="-60.6425mm" r="3.4mm" stroke-width="1"/>
<circle cx="40.005mm" cy="-57.785mm" r="3.4mm" stroke-width="1"/>
<circle cx="10.16mm" cy="-55.245mm" r="3.4mm" stroke-width="1"/>
<circle cx="23.8125mm" cy="-54.9275mm" r="1.5mm" stroke-width="1"/>
<circle cx="13.6525mm" cy="-49.2125mm" r="1.5mm" stroke-width="1"/>
<circle cx="13.335mm" cy="-44.45mm" r="2.54mm" stroke-width="1"/>
<circle cx="40.005mm" cy="-42.545mm" r="2.667mm" stroke-width="1"/>
<circle cx="12.065mm" cy="-33.02mm" r="2.54mm" stroke-width="1"/>
<circle cx="13.335mm" cy="-21.59mm" r="2.54mm" stroke-width="1"/>
<circle cx="35.56mm" cy="-17.145mm" r="3.6195mm" stroke-width="1"/>
<circle cx="12.065mm" cy="-10.16mm" r="2.54mm" stroke-width="1"/>
<circle cx="10.795mm" cy="-3.175mm" r="1.5mm" stroke-width="1"/>
<circle cx="15.875mm" cy="-3.175mm" r="1.5mm" stroke-width="1"/>
<circle cx="20.955mm" cy="-3.175mm" r="1.5mm" stroke-width="1"/>
<circle cx="26.035mm" cy="-3.175mm" r="1.5mm" stroke-width="1"/>
<circle cx="31.115mm" cy="-3.175mm" r="1.5mm" stroke-width="1"/>
<circle cx="36.195mm" cy="-3.175mm" r="1.5mm" stroke-width="1"/>
<circle cx="41.275mm" cy="-3.175mm" r="1.5mm" stroke-width="1"/>
<circle cx="13.335mm" cy="0mm" r="1.5mm" stroke-width="1"/>
<circle cx="18.415mm" cy="0mm" r="1.5mm" stroke-width="1"/>
<circle cx="28.575mm" cy="0mm" r="1.5mm" stroke-width="1"/>
<circle cx="33.655mm" cy="0mm" r="1.5mm" stroke-width="1"/>
<circle cx="38.735mm" cy="0mm" r="1.5mm" stroke-width="1"/>
</g>
</svg>
