  0
SECTION
  2
HEADER
  9
$ACADVER
  1
AC1009
  9
$FILLMODE
 70
0
  9
$EXTMIN
 10
0.24
 20
0
 30
0
  9
$EXTMAX
 10
30.24
 20
128.5
 30
0
  0
ENDSEC
  0
SECTION
  2
TABLES
  0
TABLE
  2
LTYPE
 70
1
  0
LTYPE
  2
CONTINUOUS
 70
64
  3
Solid line
 72
65
 73
0
 40
0
  0
ENDTAB
  0
TABLE
  2
LAYER
 70
255
  0
LAYER
  2
20
 70
64
 62
0
  6
CONTINUOUS
  0
ENDTAB
  0
ENDSEC
  0
SECTION
  2
BLOCKS
  0
ENDSEC
  0
SECTION
  2
ENTITIES
  0
LINE
  8
20
 10
0.24
 20
128.5
 30
0
 11
0.24
 21
0
 31
0
  0
LINE
  8
20
 10
0.24
 20
0
 30
0
 11
30.24
 21
0
 31
0
  0
LINE
  8
20
 10
30.24
 20
0
 30
0
 11
30.24
 21
128.5
 31
0
  0
LINE
  8
20
 10
30.24
 20
128.5
 30
0
 11
0.24
 21
128.5
 31
0
  0
CIRCLE
  8
20
 10
7.499528054
 20
125.4986
 30
0
 40
1.6
  0
CIRCLE
  8
20
 10
7.499528054
 20
2.99885
 30
0
 40
1.6
  0
CIRCLE
  8
20
 10
22.739528054
 20
125.4986
 30
0
 40
1.6
  0
CIRCLE
  8
20
 10
22.739528054
 20
2.99885
 30
0
 40
1.6
  0
CIRCLE
  8
20
 10
7.61999988555908
 20
46.850998626709
 30
0
 40
3.175
  0
CIRCLE
  8
20
 10
7.61999988555908
 20
36.6910006866455
 30
0
 40
3.175
  0
CIRCLE
  8
20
 10
7.61999988555908
 20
68.4409987792969
 30
0
 40
3.175
  0
CIRCLE
  8
20
 10
22.8600006103516
 20
68.4409987792969
 30
0
 40
3.175
  0
CIRCLE
  8
20
 10
22.8600006103516
 20
46.850998626709
 30
0
 40
3.175
  0
CIRCLE
  8
20
 10
22.8600006103516
 20
36.6910006866455
 30
0
 40
3.175
  0
CIRCLE
  8
20
 10
22.8600006103516
 20
26.5309998855591
 30
0
 40
3.175
  0
CIRCLE
  8
20
 10
22.8600006103516
 20
16.371000038147
 30
0
 40
3.175
  0
CIRCLE
  8
20
 10
15.2399997711182
 20
44.3110015258789
 30
0
 40
1.5
  0
CIRCLE
  8
20
 10
15.2399997711182
 20
34.1509997711182
 30
0
 40
1.5
  0
CIRCLE
  8
20
 10
15.2399997711182
 20
23.9909999237061
 30
0
 40
1.5
  0
CIRCLE
  8
20
 10
15.2399997711182
 20
13.8310000762939
 30
0
 40
1.5
  0
CIRCLE
  8
20
 10
7.61999988555908
 20
26.5309998855591
 30
0
 40
3.175
  0
CIRCLE
  8
20
 10
7.61999988555908
 20
16.371000038147
 30
0
 40
3.175
  0
CIRCLE
  8
20
 10
7.61999988555908
 20
58.2809989318848
 30
0
 40
3.175
  0
CIRCLE
  8
20
 10
22.8600006103516
 20
58.2809989318848
 30
0
 40
3.175
  0
CIRCLE
  8
20
 10
21.5900001525879
 20
109.080998168945
 30
0
 40
3.6195
  0
CIRCLE
  8
20
 10
6.34999990463257
 20
112.891003356934
 30
0
 40
2.667
  0
CIRCLE
  8
20
 10
6.34999990463257
 20
102.730999694824
 30
0
 40
2.667
  0
CIRCLE
  8
20
 10
6.34999990463257
 20
82.411
 30
0
 40
2.667
  0
CIRCLE
  8
20
 10
6.34999990463257
 20
92.5710036621094
 30
0
 40
2.667
  0
CIRCLE
  8
20
 10
24.1299991607666
 20
81.1410033569336
 30
0
 40
2.54
  0
CIRCLE
  8
20
 10
25.3999996185303
 20
92.5710036621094
 30
0
 40
2.667
  0
CIRCLE
  8
20
 10
13.9700002670288
 20
114.161
 30
0
 40
1.5
  0
CIRCLE
  8
20
 10
13.9700002670288
 20
104.000996337891
 30
0
 40
1.5
  0
CIRCLE
  8
20
 10
13.9700002670288
 20
83.6809966430664
 30
0
 40
1.5
  0
CIRCLE
  8
20
 10
13.9700002670288
 20
93.8410003051758
 30
0
 40
1.5
  0
ENDSEC
  0
EOF
