<svg width="30mm" height="128.5mm">
<g transform="scale(1,-1)"><circle cx="7.739528054mm" cy="-125.50115mm" r="1.6mm" stroke-width="1"/>
<circle cx="22.979528054mm" cy="-125.50115mm" r="1.6mm" stroke-width="1"/>
<circle cx="5.31999992370605mm" cy="-111.239999866486mm" r="3.4mm" stroke-width="1"/>
<circle cx="25.6399996185303mm" cy="-111.239999866486mm" r="3.4mm" stroke-width="1"/>
<circle cx="15.4799997711182mm" cy="-102.985000228882mm" r="3.4mm" stroke-width="1"/>
<circle cx="25.6399996185303mm" cy="-101.714999771118mm" r="1.5mm" stroke-width="1"/>
<circle cx="5.31999992370605mm" cy="-89.0150009155273mm" r="3.4mm" stroke-width="1"/>
<circle cx="25.6399996185303mm" cy="-89.0150009155273mm" r="3.4mm" stroke-width="1"/>
<circle cx="15.4799997711182mm" cy="-80.1250015258789mm" r="3.4mm" stroke-width="1"/>
<circle cx="25.6399996185303mm" cy="-79.4899993896484mm" r="1.5mm" stroke-width="1"/>
<circle cx="5.31999992370605mm" cy="-66.789998626709mm" r="3.4mm" stroke-width="1"/>
<circle cx="25.6399996185303mm" cy="-66.789998626709mm" r="3.4mm" stroke-width="1"/>
<circle cx="15.4799997711182mm" cy="-58.535001373291mm" r="3.4mm" stroke-width="1"/>
<circle cx="25.6399996185303mm" cy="-57.2650009155273mm" r="1.5mm" stroke-width="1"/>
<circle cx="5.31999992370605mm" cy="-44.5649963378906mm" r="3.4mm" stroke-width="1"/>
<circle cx="25.6399996185303mm" cy="-44.5649963378906mm" r="3.4mm" stroke-width="1"/>
<circle cx="15.4799997711182mm" cy="-36.3099990844727mm" r="3.4mm" stroke-width="1"/>
<circle cx="25.6399996185303mm" cy="-35.0400024414062mm" r="1.5mm" stroke-width="1"/>
<circle cx="5.31999992370605mm" cy="-25.515000915527mm" r="2.54mm" stroke-width="1"/>
<circle cx="25.6399996185303mm" cy="-25.515000915527mm" r="2.54mm" stroke-width="1"/>
<circle cx="5.31999992370605mm" cy="-15.354997253418mm" r="2.54mm" stroke-width="1"/>
<circle cx="25.6399996185303mm" cy="-15.354997253418mm" r="2.54mm" stroke-width="1"/>
<circle cx="7.739528054mm" cy="-3.0014mm" r="1.6mm" stroke-width="1"/>
<circle cx="22.979528054mm" cy="-3.0014mm" r="1.6mm" stroke-width="1"/>
</g>
</svg>
