<svg width="50.5mm" height="128.5mm">
<g transform="scale(1,-1)"><circle cx="7.649528054mm" cy="-125.50115mm" r="1.6mm" stroke-width="1"/>
<circle cx="43.209528054mm" cy="-125.50115mm" r="1.6mm" stroke-width="1"/>
<circle cx="7.1350001335144mm" cy="-113.779999828339mm" r="3.4mm" stroke-width="1"/>
<circle cx="31.9mm" cy="-113.779999828339mm" r="3.4mm" stroke-width="1"/>
<circle cx="19.1999992370605mm" cy="-110.605000114441mm" r="3.4mm" stroke-width="1"/>
<circle cx="43.964998626709mm" cy="-110.605000114441mm" r="3.4mm" stroke-width="1"/>
<circle cx="7.1350001335144mm" cy="-100.444999313355mm" r="3.4mm" stroke-width="1"/>
<circle cx="31.9mm" cy="-100.444999313355mm" r="3.4mm" stroke-width="1"/>
<circle cx="19.1999992370605mm" cy="-97.2700000762939mm" r="3.4mm" stroke-width="1"/>
<circle cx="43.964998626709mm" cy="-97.2700000762939mm" r="3.4mm" stroke-width="1"/>
<circle cx="7.1350001335144mm" cy="-87.1100002288818mm" r="3.4mm" stroke-width="1"/>
<circle cx="31.9mm" cy="-87.1100002288818mm" r="3.4mm" stroke-width="1"/>
<circle cx="19.1999992370605mm" cy="-83.9349990844727mm" r="3.4mm" stroke-width="1"/>
<circle cx="43.964998626709mm" cy="-83.9349990844727mm" r="3.4mm" stroke-width="1"/>
<circle cx="7.1350001335144mm" cy="-71.8700004577637mm" r="3.4mm" stroke-width="1"/>
<circle cx="26.1849998474121mm" cy="-67.4250007629395mm" r="2.54mm" stroke-width="1"/>
<circle cx="43.964998626709mm" cy="-67.4250007629395mm" r="2.54mm" stroke-width="1"/>
<circle cx="7.1350001335144mm" cy="-64.2500015258789mm" r="1.5mm" stroke-width="1"/>
<circle cx="17.9300006866455mm" cy="-45.8350006103516mm" r="4.5mm" stroke-width="1"/>
<circle cx="40.7899993896484mm" cy="-45.8350006103516mm" r="4.5mm" stroke-width="1"/>
<circle cx="11.5800003051758mm" cy="-33.7699981689453mm" r="1.5mm" stroke-width="1"/>
<circle cx="21.1049999237061mm" cy="-33.7699981689453mm" r="1.5mm" stroke-width="1"/>
<circle cx="30.3125003814697mm" cy="-33.7699981689453mm" r="1.5mm" stroke-width="1"/>
<circle cx="39.5199989318848mm" cy="-33.7699981689453mm" r="1.5mm" stroke-width="1"/>
<circle cx="11.5800003051758mm" cy="-26.848497009277mm" r="1.5mm" stroke-width="1"/>
<circle cx="21.1049999237061mm" cy="-26.848497009277mm" r="1.5mm" stroke-width="1"/>
<circle cx="30.3125003814697mm" cy="-26.848497009277mm" r="1.5mm" stroke-width="1"/>
<circle cx="39.5199989318848mm" cy="-26.848497009277mm" r="1.5mm" stroke-width="1"/>
<circle cx="45.8700012207031mm" cy="-24.244996643066mm" r="2.667mm" stroke-width="1"/>
<circle cx="10.3099998474121mm" cy="-15.354997253418mm" r="4.5mm" stroke-width="1"/>
<circle cx="33.1700004577637mm" cy="-15.354997253418mm" r="4.5mm" stroke-width="1"/>
<circle cx="7.649528054mm" cy="-3.0014mm" r="1.6mm" stroke-width="1"/>
<circle cx="43.209528054mm" cy="-3.0014mm" r="1.6mm" stroke-width="1"/>
</g>
</svg>
