  0
SECTION
  2
HEADER
  9
$ANGBASE
  50
0.0
  9
$ANGDIR
  70
1
  9
$MEASUREMENT
  70
1
  9
$INSUNITS
  70
4
  0
ENDSEC
  0
SECTION
  2
TABLES
  0
TABLE
  2
LTYPE
  70
4
  0
LTYPE
  5
40F
  2
CONTINUOUS
  70
0
  3
Solid line
  72
65
  73
0
  40
0.0
  0
LTYPE
  5
410
  2
DASHDOT
 70
0
  3
Dash Dot ____ _ ____ _
 72
65
 73
4
 40
2.0
 49
1.25
 49
-0.25
 49
0.25
 49
-0.25
  0
LTYPE
  5
411
  2
DASHED
 70
0
  3
Dashed __ __ __ __ __
 72
65
 73
2
 40
0.75
 49
0.5
 49
-0.25
  0
LTYPE
  5
43B
  2
DOTTED
 70
0
  3
Dotted .  .  .  .
 72
65
 73
2
 40
0.2
 49
0.0
 49
-0.2
  0
ENDTAB
  0
TABLE
  2
STYLE
  70
4
  0
STYLE
  2
KICAD
  70
0
  40
0
  41
1
  42
1
  50
0
  71
0
  3
isocp.shx
  0
STYLE
  2
KICADB
  70
0
  40
0
  41
1
  42
1
  50
0
  71
0
  3
isocp.shx
  0
STYLE
  2
KICADI
  70
0
  40
0
  41
1
  42
1
  50
15
  71
0
  3
isocp.shx
  0
STYLE
  2
KICADBI
  70
0
  40
0
  41
1
  42
1
  50
15
  71
0
  3
isocp.shx
  0
ENDTAB
  0
TABLE
  2
LAYER
  70
1
  0
LAYER
  2
User.Drawings
  70
0
  62
9
  420
12763842
  6
CONTINUOUS
  0
ENDTAB
  0
ENDSEC
  0
SECTION
  2
ENTITIES
0
CIRCLE
8
User.Drawings
10
139.5615899999999954
20
-106.7815999999999974
40
3.1749999999999998
0
CIRCLE
8
User.Drawings
10
157.3415899999999965
20
-137.3885999999999967
40
3.1749999999999998
0
CIRCLE
8
User.Drawings
10
157.3415899999999965
20
-122.1485999999999876
40
3.1749999999999998
0
CIRCLE
8
User.Drawings
10
139.5615899999999954
20
-137.2615999999999872
40
3.1749999999999998
0
CIRCLE
8
User.Drawings
10
157.3415899999999965
20
-106.9085999999999927
40
3.1749999999999998
0
CIRCLE
8
User.Drawings
10
139.5615899999999954
20
-151.8666000000000054
40
3.1749999999999998
0
CIRCLE
8
User.Drawings
10
154.2160999999999831
20
-145.6435999999999922
40
1.5
0
CIRCLE
8
User.Drawings
10
139.647989999999993
20
-122.0215999999999923
40
3.1749999999999998
0
CIRCLE
8
User.Drawings
10
154.2160999999999831
20
-130.4035999999999831
40
1.5
0
CIRCLE
8
User.Drawings
10
154.2160999999999831
20
-115.1635999999999882
40
1.5
0
CIRCLE
8
User.Drawings
10
142.7861000000000047
20
-115.0365999999999929
40
1.5
0
LINE
8
User.Drawings
6
CONTINUOUS
10
133.4231000000000051
20
-40.2286000000000001
11
163.4430999999999869
21
-40.2286000000000001
0
LINE
8
User.Drawings
6
CONTINUOUS
10
133.4231000000000051
20
-168.7286000000000001
11
133.4231000000000051
21
-40.2286000000000001
0
LINE
8
User.Drawings
6
CONTINUOUS
10
163.4430999999999869
20
-40.2286000000000001
11
163.4430999999999869
21
-168.7286000000000001
0
LINE
8
User.Drawings
6
CONTINUOUS
10
163.4430999999999869
20
-168.7286000000000001
11
133.4231000000000051
21
-168.7286000000000001
0
LINE
8
User.Drawings
6
CONTINUOUS
10
142.5055999999999869
20
-41.4823469999999972
11
142.7325529999999958
21
-41.5122259999999983
0
LINE
8
User.Drawings
6
CONTINUOUS
10
142.7325529999999958
20
-41.5122259999999983
11
142.9536640000000034
21
-41.571472
0
LINE
8
User.Drawings
6
CONTINUOUS
10
142.9536640000000034
20
-41.571472
11
143.1651499999999828
21
-41.6590729999999994
0
LINE
8
User.Drawings
6
CONTINUOUS
10
143.1651499999999828
20
-41.6590729999999994
11
143.3633930000000021
21
-41.7735279999999989
0
LINE
8
User.Drawings
6
CONTINUOUS
10
143.3633930000000021
20
-41.7735279999999989
11
143.5449999999999875
21
-41.9128800000000012
0
LINE
8
User.Drawings
6
CONTINUOUS
10
143.5449999999999875
20
-41.9128800000000012
11
143.7068649999999934
21
-42.0747450000000001
0
LINE
8
User.Drawings
6
CONTINUOUS
10
143.7068649999999934
20
-42.0747450000000001
11
143.8462169999999958
21
-42.2563519999999997
0
LINE
8
User.Drawings
6
CONTINUOUS
10
143.8462169999999958
20
-42.2563519999999997
11
143.9606719999999882
21
-42.4545949999999976
0
LINE
8
User.Drawings
6
CONTINUOUS
10
143.9606719999999882
20
-42.4545949999999976
11
144.0482729999999947
21
-42.6660809999999984
0
LINE
8
User.Drawings
6
CONTINUOUS
10
144.0482729999999947
20
-42.6660809999999984
11
144.1075189999999964
21
-42.8871919999999989
0
LINE
8
User.Drawings
6
CONTINUOUS
10
144.1075189999999964
20
-42.8871919999999989
11
144.1373979999999904
21
-43.1141450000000006
0
LINE
8
User.Drawings
6
CONTINUOUS
10
144.1373979999999904
20
-43.1141450000000006
11
144.1373979999999904
21
-43.3430549999999997
0
LINE
8
User.Drawings
6
CONTINUOUS
10
144.1373979999999904
20
-43.3430549999999997
11
144.1075189999999964
21
-43.5700080000000014
0
LINE
8
User.Drawings
6
CONTINUOUS
10
144.1075189999999964
20
-43.5700080000000014
11
144.0482729999999947
21
-43.7911189999999948
0
LINE
8
User.Drawings
6
CONTINUOUS
10
144.0482729999999947
20
-43.7911189999999948
11
143.9606719999999882
21
-44.0026049999999955
0
LINE
8
User.Drawings
6
CONTINUOUS
10
143.9606719999999882
20
-44.0026049999999955
11
143.8462169999999958
21
-44.2008480000000006
0
LINE
8
User.Drawings
6
CONTINUOUS
10
143.8462169999999958
20
-44.2008480000000006
11
143.7068649999999934
21
-44.3824550000000002
0
LINE
8
User.Drawings
6
CONTINUOUS
10
143.7068649999999934
20
-44.3824550000000002
11
143.5449999999999875
21
-44.544319999999999
0
LINE
8
User.Drawings
6
CONTINUOUS
10
143.5449999999999875
20
-44.544319999999999
11
143.3633930000000021
21
-44.6836720000000014
0
LINE
8
User.Drawings
6
CONTINUOUS
10
143.3633930000000021
20
-44.6836720000000014
11
143.1651499999999828
21
-44.7981270000000009
0
LINE
8
User.Drawings
6
CONTINUOUS
10
143.1651499999999828
20
-44.7981270000000009
11
142.9536640000000034
21
-44.8857280000000003
0
LINE
8
User.Drawings
6
CONTINUOUS
10
142.9536640000000034
20
-44.8857280000000003
11
142.7325529999999958
21
-44.9449739999999949
0
LINE
8
User.Drawings
6
CONTINUOUS
10
142.7325529999999958
20
-44.9449739999999949
11
142.5055999999999869
21
-44.974852999999996
0
LINE
8
User.Drawings
6
CONTINUOUS
10
142.5055999999999869
20
-44.974852999999996
11
142.3911449999999945
21
-44.9786000000000001
0
LINE
8
User.Drawings
6
CONTINUOUS
10
142.3911449999999945
20
-44.9786000000000001
11
139.561144999999982
21
-44.9786000000000001
0
LINE
8
User.Drawings
6
CONTINUOUS
10
139.561144999999982
20
-44.9786000000000001
11
139.4466899999999896
21
-44.974852999999996
0
LINE
8
User.Drawings
6
CONTINUOUS
10
139.4466899999999896
20
-44.974852999999996
11
139.2197369999999808
21
-44.9449739999999949
0
LINE
8
User.Drawings
6
CONTINUOUS
10
139.2197369999999808
20
-44.9449739999999949
11
138.9986260000000016
21
-44.8857280000000003
0
LINE
8
User.Drawings
6
CONTINUOUS
10
138.9986260000000016
20
-44.8857280000000003
11
138.7871399999999937
21
-44.7981270000000009
0
LINE
8
User.Drawings
6
CONTINUOUS
10
138.7871399999999937
20
-44.7981270000000009
11
138.5888970000000029
21
-44.6836720000000014
0
LINE
8
User.Drawings
6
CONTINUOUS
10
138.5888970000000029
20
-44.6836720000000014
11
138.407289999999989
21
-44.544319999999999
0
LINE
8
User.Drawings
6
CONTINUOUS
10
138.407289999999989
20
-44.544319999999999
11
138.2454249999999831
21
-44.3824550000000002
0
LINE
8
User.Drawings
6
CONTINUOUS
10
138.2454249999999831
20
-44.3824550000000002
11
138.1060729999999808
21
-44.2008480000000006
0
LINE
8
User.Drawings
6
CONTINUOUS
10
138.1060729999999808
20
-44.2008480000000006
11
137.9916179999999883
21
-44.0026049999999955
0
LINE
8
User.Drawings
6
CONTINUOUS
10
137.9916179999999883
20
-44.0026049999999955
11
137.9040169999999819
21
-43.7911189999999948
0
LINE
8
User.Drawings
6
CONTINUOUS
10
137.9040169999999819
20
-43.7911189999999948
11
137.8447709999999802
21
-43.5700080000000014
0
LINE
8
User.Drawings
6
CONTINUOUS
10
137.8447709999999802
20
-43.5700080000000014
11
137.8148919999999862
21
-43.3430549999999997
0
LINE
8
User.Drawings
6
CONTINUOUS
10
137.8148919999999862
20
-43.3430549999999997
11
137.8148919999999862
21
-43.1141450000000006
0
LINE
8
User.Drawings
6
CONTINUOUS
10
137.8148919999999862
20
-43.1141450000000006
11
137.8447709999999802
21
-42.8871919999999989
0
LINE
8
User.Drawings
6
CONTINUOUS
10
137.8447709999999802
20
-42.8871919999999989
11
137.9040169999999819
21
-42.6660809999999984
0
LINE
8
User.Drawings
6
CONTINUOUS
10
137.9040169999999819
20
-42.6660809999999984
11
137.9916179999999883
21
-42.4545949999999976
0
LINE
8
User.Drawings
6
CONTINUOUS
10
137.9916179999999883
20
-42.4545949999999976
11
138.1060729999999808
21
-42.2563519999999997
0
LINE
8
User.Drawings
6
CONTINUOUS
10
138.1060729999999808
20
-42.2563519999999997
11
138.2454249999999831
21
-42.0747450000000001
0
LINE
8
User.Drawings
6
CONTINUOUS
10
138.2454249999999831
20
-42.0747450000000001
11
138.407289999999989
21
-41.9128800000000012
0
LINE
8
User.Drawings
6
CONTINUOUS
10
138.407289999999989
20
-41.9128800000000012
11
138.5888970000000029
21
-41.7735279999999989
0
LINE
8
User.Drawings
6
CONTINUOUS
10
138.5888970000000029
20
-41.7735279999999989
11
138.7871399999999937
21
-41.6590729999999994
0
LINE
8
User.Drawings
6
CONTINUOUS
10
138.7871399999999937
20
-41.6590729999999994
11
138.9986260000000016
21
-41.571472
0
LINE
8
User.Drawings
6
CONTINUOUS
10
138.9986260000000016
20
-41.571472
11
139.2197369999999808
21
-41.5122259999999983
0
LINE
8
User.Drawings
6
CONTINUOUS
10
139.2197369999999808
20
-41.5122259999999983
11
139.4466899999999896
21
-41.4823469999999972
0
LINE
8
User.Drawings
6
CONTINUOUS
10
139.4466899999999896
20
-41.4823469999999972
11
139.561144999999982
21
-41.4786000000000001
0
LINE
8
User.Drawings
6
CONTINUOUS
10
139.561144999999982
20
-41.4786000000000001
11
142.3911449999999945
21
-41.4786000000000001
0
LINE
8
User.Drawings
6
CONTINUOUS
10
142.3911449999999945
20
-41.4786000000000001
11
142.5055999999999869
21
-41.4823469999999972
0
LINE
8
User.Drawings
6
CONTINUOUS
10
142.5055999999999869
20
-163.9823470000000043
11
142.7325529999999958
21
-164.0122259999999983
0
LINE
8
User.Drawings
6
CONTINUOUS
10
142.7325529999999958
20
-164.0122259999999983
11
142.9536640000000034
21
-164.071472
0
LINE
8
User.Drawings
6
CONTINUOUS
10
142.9536640000000034
20
-164.071472
11
143.1651499999999828
21
-164.1590730000000065
0
LINE
8
User.Drawings
6
CONTINUOUS
10
143.1651499999999828
20
-164.1590730000000065
11
143.3633930000000021
21
-164.2735279999999989
0
LINE
8
User.Drawings
6
CONTINUOUS
10
143.3633930000000021
20
-164.2735279999999989
11
143.5449999999999875
21
-164.4128800000000012
0
LINE
8
User.Drawings
6
CONTINUOUS
10
143.5449999999999875
20
-164.4128800000000012
11
143.7068649999999934
21
-164.5747449999999787
0
LINE
8
User.Drawings
6
CONTINUOUS
10
143.7068649999999934
20
-164.5747449999999787
11
143.8462169999999958
21
-164.7563519999999926
0
LINE
8
User.Drawings
6
CONTINUOUS
10
143.8462169999999958
20
-164.7563519999999926
11
143.9606719999999882
21
-164.9545949999999834
0
LINE
8
User.Drawings
6
CONTINUOUS
10
143.9606719999999882
20
-164.9545949999999834
11
144.0482729999999947
21
-165.1660809999999913
0
LINE
8
User.Drawings
6
CONTINUOUS
10
144.0482729999999947
20
-165.1660809999999913
11
144.1075189999999964
21
-165.3871919999999989
0
LINE
8
User.Drawings
6
CONTINUOUS
10
144.1075189999999964
20
-165.3871919999999989
11
144.1373979999999904
21
-165.6141449999999793
0
LINE
8
User.Drawings
6
CONTINUOUS
10
144.1373979999999904
20
-165.6141449999999793
11
144.1373979999999904
21
-165.8430549999999926
0
LINE
8
User.Drawings
6
CONTINUOUS
10
144.1373979999999904
20
-165.8430549999999926
11
144.1075189999999964
21
-166.0700080000000014
0
LINE
8
User.Drawings
6
CONTINUOUS
10
144.1075189999999964
20
-166.0700080000000014
11
144.0482729999999947
21
-166.2911189999999806
0
LINE
8
User.Drawings
6
CONTINUOUS
10
144.0482729999999947
20
-166.2911189999999806
11
143.9606719999999882
21
-166.5026049999999884
0
LINE
8
User.Drawings
6
CONTINUOUS
10
143.9606719999999882
20
-166.5026049999999884
11
143.8462169999999958
21
-166.7008479999999793
0
LINE
8
User.Drawings
6
CONTINUOUS
10
143.8462169999999958
20
-166.7008479999999793
11
143.7068649999999934
21
-166.8824549999999931
0
LINE
8
User.Drawings
6
CONTINUOUS
10
143.7068649999999934
20
-166.8824549999999931
11
143.5449999999999875
21
-167.044319999999999
0
LINE
8
User.Drawings
6
CONTINUOUS
10
143.5449999999999875
20
-167.044319999999999
11
143.3633930000000021
21
-167.1836720000000014
0
LINE
8
User.Drawings
6
CONTINUOUS
10
143.3633930000000021
20
-167.1836720000000014
11
143.1651499999999828
21
-167.2981269999999938
0
LINE
8
User.Drawings
6
CONTINUOUS
10
143.1651499999999828
20
-167.2981269999999938
11
142.9536640000000034
21
-167.3857280000000003
0
LINE
8
User.Drawings
6
CONTINUOUS
10
142.9536640000000034
20
-167.3857280000000003
11
142.7325529999999958
21
-167.444974000000002
0
LINE
8
User.Drawings
6
CONTINUOUS
10
142.7325529999999958
20
-167.444974000000002
11
142.5055999999999869
21
-167.474852999999996
0
LINE
8
User.Drawings
6
CONTINUOUS
10
142.5055999999999869
20
-167.474852999999996
11
142.3911449999999945
21
-167.4786000000000001
0
LINE
8
User.Drawings
6
CONTINUOUS
10
142.3911449999999945
20
-167.4786000000000001
11
139.561144999999982
21
-167.4786000000000001
0
LINE
8
User.Drawings
6
CONTINUOUS
10
139.561144999999982
20
-167.4786000000000001
11
139.4466899999999896
21
-167.474852999999996
0
LINE
8
User.Drawings
6
CONTINUOUS
10
139.4466899999999896
20
-167.474852999999996
11
139.2197369999999808
21
-167.444974000000002
0
LINE
8
User.Drawings
6
CONTINUOUS
10
139.2197369999999808
20
-167.444974000000002
11
138.9986260000000016
21
-167.3857280000000003
0
LINE
8
User.Drawings
6
CONTINUOUS
10
138.9986260000000016
20
-167.3857280000000003
11
138.7871399999999937
21
-167.2981269999999938
0
LINE
8
User.Drawings
6
CONTINUOUS
10
138.7871399999999937
20
-167.2981269999999938
11
138.5888970000000029
21
-167.1836720000000014
0
LINE
8
User.Drawings
6
CONTINUOUS
10
138.5888970000000029
20
-167.1836720000000014
11
138.407289999999989
21
-167.044319999999999
0
LINE
8
User.Drawings
6
CONTINUOUS
10
138.407289999999989
20
-167.044319999999999
11
138.2454249999999831
21
-166.8824549999999931
0
LINE
8
User.Drawings
6
CONTINUOUS
10
138.2454249999999831
20
-166.8824549999999931
11
138.1060729999999808
21
-166.7008479999999793
0
LINE
8
User.Drawings
6
CONTINUOUS
10
138.1060729999999808
20
-166.7008479999999793
11
137.9916179999999883
21
-166.5026049999999884
0
LINE
8
User.Drawings
6
CONTINUOUS
10
137.9916179999999883
20
-166.5026049999999884
11
137.9040169999999819
21
-166.2911189999999806
0
LINE
8
User.Drawings
6
CONTINUOUS
10
137.9040169999999819
20
-166.2911189999999806
11
137.8447709999999802
21
-166.0700080000000014
0
LINE
8
User.Drawings
6
CONTINUOUS
10
137.8447709999999802
20
-166.0700080000000014
11
137.8148919999999862
21
-165.8430549999999926
0
LINE
8
User.Drawings
6
CONTINUOUS
10
137.8148919999999862
20
-165.8430549999999926
11
137.8148919999999862
21
-165.6141449999999793
0
LINE
8
User.Drawings
6
CONTINUOUS
10
137.8148919999999862
20
-165.6141449999999793
11
137.8447709999999802
21
-165.3871919999999989
0
LINE
8
User.Drawings
6
CONTINUOUS
10
137.8447709999999802
20
-165.3871919999999989
11
137.9040169999999819
21
-165.1660809999999913
0
LINE
8
User.Drawings
6
CONTINUOUS
10
137.9040169999999819
20
-165.1660809999999913
11
137.9916179999999883
21
-164.9545949999999834
0
LINE
8
User.Drawings
6
CONTINUOUS
10
137.9916179999999883
20
-164.9545949999999834
11
138.1060729999999808
21
-164.7563519999999926
0
LINE
8
User.Drawings
6
CONTINUOUS
10
138.1060729999999808
20
-164.7563519999999926
11
138.2454249999999831
21
-164.5747449999999787
0
LINE
8
User.Drawings
6
CONTINUOUS
10
138.2454249999999831
20
-164.5747449999999787
11
138.407289999999989
21
-164.4128800000000012
0
LINE
8
User.Drawings
6
CONTINUOUS
10
138.407289999999989
20
-164.4128800000000012
11
138.5888970000000029
21
-164.2735279999999989
0
LINE
8
User.Drawings
6
CONTINUOUS
10
138.5888970000000029
20
-164.2735279999999989
11
138.7871399999999937
21
-164.1590730000000065
0
LINE
8
User.Drawings
6
CONTINUOUS
10
138.7871399999999937
20
-164.1590730000000065
11
138.9986260000000016
21
-164.071472
0
LINE
8
User.Drawings
6
CONTINUOUS
10
138.9986260000000016
20
-164.071472
11
139.2197369999999808
21
-164.0122259999999983
0
LINE
8
User.Drawings
6
CONTINUOUS
10
139.2197369999999808
20
-164.0122259999999983
11
139.4466899999999896
21
-163.9823470000000043
0
LINE
8
User.Drawings
6
CONTINUOUS
10
139.4466899999999896
20
-163.9823470000000043
11
139.561144999999982
21
-163.9786000000000001
0
LINE
8
User.Drawings
6
CONTINUOUS
10
139.561144999999982
20
-163.9786000000000001
11
142.3911449999999945
21
-163.9786000000000001
0
LINE
8
User.Drawings
6
CONTINUOUS
10
142.3911449999999945
20
-163.9786000000000001
11
142.5055999999999869
21
-163.9823470000000043
0
CIRCLE
8
User.Drawings
10
149.2911000000000001
20
-92.9881099999999918
40
3.1749999999999998
0
CIRCLE
8
User.Drawings
10
157.3415899999999965
20
-151.9935999999999865
40
3.1749999999999998
0
CIRCLE
8
User.Drawings
10
138.3410999999999831
20
-61.823599999999999
40
1.5
0
CIRCLE
8
User.Drawings
10
154.2160999999999831
20
-99.9235999999999933
40
1.5
0
CIRCLE
8
User.Drawings
10
142.7861000000000047
20
-145.5165999999999826
40
1.5
0
CIRCLE
8
User.Drawings
10
142.7861000000000047
20
-130.276600000000002
40
1.5
0
LINE
8
User.Drawings
6
CONTINUOUS
10
142.2510999999999797
20
-52.9185999999999979
11
154.7510999999999797
21
-52.9185999999999979
0
LINE
8
User.Drawings
6
CONTINUOUS
10
154.7510999999999797
20
-52.9185999999999979
11
154.7510999999999797
21
-64.6685999999999979
0
LINE
8
User.Drawings
6
CONTINUOUS
10
154.7510999999999797
20
-64.6685999999999979
11
142.2510999999999797
21
-64.6685999999999979
0
LINE
8
User.Drawings
6
CONTINUOUS
10
142.2510999999999797
20
-64.6685999999999979
11
142.2510999999999797
21
-52.9185999999999979
0
CIRCLE
8
User.Drawings
10
142.7861000000000047
20
-99.796599999999998
40
1.5
0
CIRCLE
8
User.Drawings
10
147.0711000000000013
20
-80.2881100000000032
40
3.1749999999999998
  0
ENDSEC
  0
EOF
