<svg width="50.5mm" height="128.5mm">
<g transform="scale(1,-1)"><circle cx="7.649528054mm" cy="-125.50115mm" r="1.6mm" stroke-width="1"/>
<circle cx="43.209528054mm" cy="-125.50115mm" r="1.6mm" stroke-width="1"/>
<circle cx="5.22999992370605mm" cy="-111.239999866486mm" r="3.4mm" stroke-width="1"/>
<circle cx="18.5650009155273mm" cy="-111.239999866486mm" r="3.4mm" stroke-width="1"/>
<circle cx="31.9mm" cy="-111.239999866486mm" r="3.4mm" stroke-width="1"/>
<circle cx="44.6000007629395mm" cy="-111.239999866486mm" r="3.4mm" stroke-width="1"/>
<circle cx="5.22999992370605mm" cy="-97.2700000762939mm" r="3.4mm" stroke-width="1"/>
<circle cx="18.5650009155273mm" cy="-97.2700000762939mm" r="3.4mm" stroke-width="1"/>
<circle cx="31.9mm" cy="-97.2700000762939mm" r="3.4mm" stroke-width="1"/>
<circle cx="44.6000007629395mm" cy="-97.2700000762939mm" r="3.4mm" stroke-width="1"/>
<circle cx="5.22999992370605mm" cy="-83.3000007629395mm" r="3.4mm" stroke-width="1"/>
<circle cx="18.5650009155273mm" cy="-83.3000007629395mm" r="3.4mm" stroke-width="1"/>
<circle cx="31.9mm" cy="-83.3000007629395mm" r="3.4mm" stroke-width="1"/>
<circle cx="44.6000007629395mm" cy="-83.3000007629395mm" r="3.4mm" stroke-width="1"/>
<circle cx="26.1849998474121mm" cy="-69.3299995422363mm" r="2.667mm" stroke-width="1"/>
<circle cx="8.40500011444092mm" cy="-67.4250007629395mm" r="2.54mm" stroke-width="1"/>
<circle cx="43.3300003051758mm" cy="-60.4400001525879mm" r="4.5mm" stroke-width="1"/>
<circle cx="8.40500011444092mm" cy="-57.8999992370605mm" r="2.54mm" stroke-width="1"/>
<circle cx="25.1689990997314mm" cy="-49.3275009155273mm" r="4.5mm" stroke-width="1"/>
<circle cx="7.76999988555908mm" cy="-39.4850021362305mm" r="4.5mm" stroke-width="1"/>
<circle cx="43.3300003051758mm" cy="-39.4850021362305mm" r="4.5mm" stroke-width="1"/>
<circle cx="25.1689990997314mm" cy="-28.6899963378906mm" r="4.5mm" stroke-width="1"/>
<circle cx="17.2950004577637mm" cy="-19.799996948242mm" r="1.5mm" stroke-width="1"/>
<circle cx="22.3750003814697mm" cy="-19.799996948242mm" r="1.5mm" stroke-width="1"/>
<circle cx="29.3599990844727mm" cy="-19.799996948242mm" r="1.5mm" stroke-width="1"/>
<circle cx="34.4400009155273mm" cy="-19.799996948242mm" r="1.5mm" stroke-width="1"/>
<circle cx="7.76999988555908mm" cy="-18.530000305176mm" r="4.5mm" stroke-width="1"/>
<circle cx="43.3300003051758mm" cy="-18.530000305176mm" r="4.5mm" stroke-width="1"/>
<circle cx="7.649528054mm" cy="-3.0014mm" r="1.6mm" stroke-width="1"/>
<circle cx="43.209528054mm" cy="-3.0014mm" r="1.6mm" stroke-width="1"/>
</g>
</svg>
