  0
SECTION
  2
HEADER
  9
$ACADVER
  1
AC1009
  9
$FILLMODE
 70
0
  9
$EXTMIN
 10
0.170000381469727
 20
0
 30
0
  9
$EXTMAX
 10
40.4699996185303
 20
128.5
 30
0
  0
ENDSEC
  0
SECTION
  2
TABLES
  0
TABLE
  2
LTYPE
 70
1
  0
LTYPE
  2
CONTINUOUS
 70
64
  3
Solid line
 72
65
 73
0
 40
0
  0
ENDTAB
  0
TABLE
  2
LAYER
 70
255
  0
LAYER
  2
20
 70
64
 62
0
  6
CONTINUOUS
  0
ENDTAB
  0
ENDSEC
  0
SECTION
  2
BLOCKS
  0
ENDSEC
  0
SECTION
  2
ENTITIES
  0
LINE
  8
20
 10
0.170000381469727
 20
128.5
 30
0
 11
0.170000381469727
 21
0
 31
0
  0
LINE
  8
20
 10
0.170000381469727
 20
0
 30
0
 11
40.4699996185303
 21
0
 31
0
  0
LINE
  8
20
 10
40.4699996185303
 20
0
 30
0
 11
40.4699996185303
 21
128.5
 31
0
  0
LINE
  8
20
 10
40.4699996185303
 20
128.5
 30
0
 11
0.170000381469727
 21
128.5
 31
0
  0
CIRCLE
  8
20
 10
7.499528054
 20
125.4986
 30
0
 40
1.6
  0
CIRCLE
  8
20
 10
7.499528054
 20
2.99885
 30
0
 40
1.6
  0
CIRCLE
  8
20
 10
32.899528054
 20
125.4986
 30
0
 40
1.6
  0
CIRCLE
  8
20
 10
32.899528054
 20
2.99885
 30
0
 40
1.6
  0
CIRCLE
  8
20
 10
20.3199996948242
 20
75.6800009155273
 30
0
 40
3.4
  0
CIRCLE
  8
20
 10
7.61999988555908
 20
86.1575018310547
 30
0
 40
3.4
  0
CIRCLE
  8
20
 10
7.61999988555908
 20
75.9974981689453
 30
0
 40
3.4
  0
CIRCLE
  8
20
 10
7.61999988555908
 20
65.8374983215332
 30
0
 40
3.4
  0
CIRCLE
  8
20
 10
7.61999988555908
 20
55.6774984741211
 30
0
 40
3.4
  0
CIRCLE
  8
20
 10
7.61999988555908
 20
45.517498626709
 30
0
 40
3.4
  0
CIRCLE
  8
20
 10
7.61999988555908
 20
35.3575006866455
 30
0
 40
3.4
  0
CIRCLE
  8
20
 10
7.61999988555908
 20
25.1974998855591
 30
0
 40
3.4
  0
CIRCLE
  8
20
 10
7.61999988555908
 20
15.037500038147
 30
0
 40
3.4
  0
CIRCLE
  8
20
 10
20.3199996948242
 20
18.5300003433228
 30
0
 40
3.4
  0
CIRCLE
  8
20
 10
20.3199996948242
 20
45.200001373291
 30
0
 40
3.4
  0
CIRCLE
  8
20
 10
8.25500011444092
 20
114.732498779297
 30
0
 40
2.667
  0
CIRCLE
  8
20
 10
19.6849994659424
 20
104.25499786377
 30
0
 40
2.54
  0
CIRCLE
  8
20
 10
26.9874992370606
 20
89.6500021362305
 30
0
 40
1.5
  0
CIRCLE
  8
20
 10
26.9874992370606
 20
79.4899984741211
 30
0
 40
1.5
  0
CIRCLE
  8
20
 10
26.9874992370606
 20
69.329998626709
 30
0
 40
1.5
  0
CIRCLE
  8
20
 10
26.9874992370606
 20
59.1699987792969
 30
0
 40
1.5
  0
CIRCLE
  8
20
 10
26.9874992370606
 20
49.0099989318848
 30
0
 40
1.5
  0
CIRCLE
  8
20
 10
26.9874992370606
 20
38.8499990844727
 30
0
 40
1.5
  0
CIRCLE
  8
20
 10
26.9874992370606
 20
28.6899992370605
 30
0
 40
1.5
  0
CIRCLE
  8
20
 10
26.9874992370606
 20
18.5300003433228
 30
0
 40
1.5
  0
CIRCLE
  8
20
 10
33.0200004577637
 20
86.1575018310547
 30
0
 40
3.4
  0
CIRCLE
  8
20
 10
33.0200004577637
 20
75.9974981689453
 30
0
 40
3.4
  0
CIRCLE
  8
20
 10
33.0200004577637
 20
65.8374983215332
 30
0
 40
3.4
  0
CIRCLE
  8
20
 10
33.0200004577637
 20
55.6774984741211
 30
0
 40
3.4
  0
CIRCLE
  8
20
 10
33.0200004577637
 20
45.517498626709
 30
0
 40
3.4
  0
CIRCLE
  8
20
 10
33.0200004577637
 20
35.3575006866455
 30
0
 40
3.4
  0
CIRCLE
  8
20
 10
33.0200004577637
 20
25.1974998855591
 30
0
 40
3.4
  0
CIRCLE
  8
20
 10
33.0200004577637
 20
15.037500038147
 30
0
 40
3.4
  0
CIRCLE
  8
20
 10
36.1949996948242
 20
103.937500610352
 30
0
 40
2.54
  0
CIRCLE
  8
20
 10
8.57250022888184
 20
103.620003356934
 30
0
 40
3.6195
  0
CIRCLE
  8
20
 10
34.2900009155273
 20
114.732498779297
 30
0
 40
2.667
  0
CIRCLE
  8
20
 10
27.9400005340576
 20
104.25499786377
 30
0
 40
2.54
  0
CIRCLE
  8
20
 10
3.80999994277954
 20
94.0950018310547
 30
0
 40
1.5
  0
ENDSEC
  0
EOF
