<svg width="177.059249790192mm" height="128.5mm">
<g transform="scale(1,-1)"><circle cx="-29.2524995803833mm" cy="-81.3949981689453mm" r="1.2mm" stroke-width="1"/>
<circle cx="-19.0924992561341mm" cy="-81.3949981689453mm" r="1.2mm" stroke-width="1"/>
<circle cx="-12.0862498283386mm" cy="-11.544999694824mm" r="1.5mm" stroke-width="1"/>
<circle cx="-9.5462498664856mm" cy="-111.875000095367mm" r="2.54mm" stroke-width="1"/>
<circle cx="-8.93249940872195mm" cy="-81.3949981689453mm" r="1.2mm" stroke-width="1"/>
<circle cx="-9.5462498664856mm" cy="-47.9939971923828mm" r="2.667mm" stroke-width="1"/>
<circle cx="-9.5462498664856mm" cy="-41.3900009155273mm" r="1.5mm" stroke-width="1"/>
<circle cx="-9.5462498664856mm" cy="-31.8649993896484mm" r="3.4mm" stroke-width="1"/>
<circle cx="-9.5462498664856mm" cy="-19.165002441406mm" r="3.4mm" stroke-width="1"/>
<circle cx="-7.12672173619165mm" cy="-125.50115mm" r="1.6mm" stroke-width="1"/>
<circle cx="-7.00624990463257mm" cy="-11.544999694824mm" r="1.5mm" stroke-width="1"/>
<circle cx="-7.12672173619165mm" cy="-3.0014mm" r="1.6mm" stroke-width="1"/>
<circle cx="-1.92624998092655mm" cy="-11.544999694824mm" r="1.5mm" stroke-width="1"/>
<circle cx="0.613749980926549mm" cy="-111.875000095367mm" r="2.54mm" stroke-width="1"/>
<circle cx="1.22749853134155mm" cy="-81.3949981689453mm" r="1.2mm" stroke-width="1"/>
<circle cx="0.613749980926549mm" cy="-47.9939971923828mm" r="2.667mm" stroke-width="1"/>
<circle cx="0.613749980926549mm" cy="-41.3900009155273mm" r="1.5mm" stroke-width="1"/>
<circle cx="0.613749980926549mm" cy="-31.8649993896484mm" r="3.4mm" stroke-width="1"/>
<circle cx="0.613749980926549mm" cy="-19.165002441406mm" r="3.4mm" stroke-width="1"/>
<circle cx="3.15375089645385mm" cy="-11.544999694824mm" r="1.5mm" stroke-width="1"/>
<circle cx="8.23375082015995mm" cy="-11.544999694824mm" r="1.5mm" stroke-width="1"/>
<circle cx="10.7737498283386mm" cy="-111.875000095367mm" r="2.54mm" stroke-width="1"/>
<circle cx="11.3874983787536mm" cy="-81.3949981689453mm" r="1.2mm" stroke-width="1"/>
<circle cx="11.7475004196167mm" cy="-81.3949981689453mm" r="1.2mm" stroke-width="1"/>
<circle cx="10.7737498283386mm" cy="-47.9939971923828mm" r="2.667mm" stroke-width="1"/>
<circle cx="10.7737498283386mm" cy="-41.3900009155273mm" r="1.5mm" stroke-width="1"/>
<circle cx="10.7737498283386mm" cy="-31.8649993896484mm" r="3.4mm" stroke-width="1"/>
<circle cx="10.7737498283386mm" cy="-19.165002441406mm" r="3.4mm" stroke-width="1"/>
<circle cx="13.3137507438659mm" cy="-11.544999694824mm" r="1.5mm" stroke-width="1"/>
<circle cx="18.3937506675721mm" cy="-11.544999694824mm" r="1.5mm" stroke-width="1"/>
<circle cx="20.9337515830994mm" cy="-111.875000095367mm" r="2.54mm" stroke-width="1"/>
<circle cx="21.907500743866mm" cy="-81.3949981689453mm" r="1.2mm" stroke-width="1"/>
<circle cx="21.5475020408631mm" cy="-81.3949981689453mm" r="1.2mm" stroke-width="1"/>
<circle cx="20.9337515830994mm" cy="-47.9939971923828mm" r="2.667mm" stroke-width="1"/>
<circle cx="20.9337515830994mm" cy="-41.3900009155273mm" r="1.5mm" stroke-width="1"/>
<circle cx="20.9337515830994mm" cy="-31.8649993896484mm" r="3.4mm" stroke-width="1"/>
<circle cx="20.9337515830994mm" cy="-19.165002441406mm" r="3.4mm" stroke-width="1"/>
<circle cx="23.4737486839295mm" cy="-11.544999694824mm" r="1.5mm" stroke-width="1"/>
<circle cx="28.5537505149842mm" cy="-11.544999694824mm" r="1.5mm" stroke-width="1"/>
<circle cx="31.0937514305114mm" cy="-111.875000095367mm" r="2.54mm" stroke-width="1"/>
<circle cx="31.7074980735779mm" cy="-81.3949981689453mm" r="1.2mm" stroke-width="1"/>
<circle cx="32.067500591278mm" cy="-81.3949981689453mm" r="1.2mm" stroke-width="1"/>
<circle cx="31.0937514305114mm" cy="-47.9939971923828mm" r="2.667mm" stroke-width="1"/>
<circle cx="31.0937514305114mm" cy="-41.3900009155273mm" r="1.5mm" stroke-width="1"/>
<circle cx="31.0937514305114mm" cy="-31.8649993896484mm" r="3.4mm" stroke-width="1"/>
<circle cx="31.0937514305114mm" cy="-19.165002441406mm" r="3.4mm" stroke-width="1"/>
<circle cx="33.6337485313416mm" cy="-11.544999694824mm" r="1.5mm" stroke-width="1"/>
<circle cx="38.7137503623962mm" cy="-11.544999694824mm" r="1.5mm" stroke-width="1"/>
<circle cx="41.2537512779235mm" cy="-111.875000095367mm" r="2.54mm" stroke-width="1"/>
<circle cx="42.2274985313416mm" cy="-81.3949981689453mm" r="1.2mm" stroke-width="1"/>
<circle cx="41.8675017356873mm" cy="-81.3949981689453mm" r="1.2mm" stroke-width="1"/>
<circle cx="41.2537512779235mm" cy="-47.9939971923828mm" r="2.667mm" stroke-width="1"/>
<circle cx="41.2537512779235mm" cy="-41.3900009155273mm" r="1.5mm" stroke-width="1"/>
<circle cx="41.2537512779235mm" cy="-31.8649993896484mm" r="3.4mm" stroke-width="1"/>
<circle cx="41.2537512779235mm" cy="-19.165002441406mm" r="3.4mm" stroke-width="1"/>
<circle cx="43.7937483787536mm" cy="-11.544999694824mm" r="1.5mm" stroke-width="1"/>
<circle cx="48.8737502098084mm" cy="-11.544999694824mm" r="1.5mm" stroke-width="1"/>
<circle cx="51.4137511253357mm" cy="-111.875000095367mm" r="2.54mm" stroke-width="1"/>
<circle cx="52.3874983787536mm" cy="-81.3949981689453mm" r="1.2mm" stroke-width="1"/>
<circle cx="51.4137511253357mm" cy="-47.9939971923828mm" r="2.667mm" stroke-width="1"/>
<circle cx="51.4137511253357mm" cy="-41.3900009155273mm" r="1.5mm" stroke-width="1"/>
<circle cx="51.4137511253357mm" cy="-31.8649993896484mm" r="3.4mm" stroke-width="1"/>
<circle cx="51.4137511253357mm" cy="-19.165002441406mm" r="3.4mm" stroke-width="1"/>
<circle cx="53.9537520408631mm" cy="-11.544999694824mm" r="1.5mm" stroke-width="1"/>
<circle cx="59.0337538719178mm" cy="-11.544999694824mm" r="1.5mm" stroke-width="1"/>
<circle cx="61.5737471580506mm" cy="-111.875000095367mm" r="2.54mm" stroke-width="1"/>
<circle cx="62.5475020408631mm" cy="-81.3949981689453mm" r="1.2mm" stroke-width="1"/>
<circle cx="61.5737471580506mm" cy="-47.9939971923828mm" r="2.667mm" stroke-width="1"/>
<circle cx="61.5737471580506mm" cy="-41.3900009155273mm" r="1.5mm" stroke-width="1"/>
<circle cx="61.5737471580506mm" cy="-31.8649993896484mm" r="3.4mm" stroke-width="1"/>
<circle cx="61.5737471580506mm" cy="-19.165002441406mm" r="3.4mm" stroke-width="1"/>
<circle cx="64.1137480735779mm" cy="-11.544999694824mm" r="1.5mm" stroke-width="1"/>
<circle cx="71.0987486839294mm" cy="-11.544999694824mm" r="1.5mm" stroke-width="1"/>
<circle cx="73.6387495994567mm" cy="-111.875000095367mm" r="2.54mm" stroke-width="1"/>
<circle cx="73.6387495994567mm" cy="-104.254999732971mm" r="1.5mm" stroke-width="1"/>
<circle cx="72.7074980735779mm" cy="-81.3949981689453mm" r="1.2mm" stroke-width="1"/>
<circle cx="73.6387495994567mm" cy="-47.9939971923828mm" r="2.667mm" stroke-width="1"/>
<circle cx="73.6387495994567mm" cy="-41.3900009155273mm" r="1.5mm" stroke-width="1"/>
<circle cx="73.6387495994567mm" cy="-31.8649993896484mm" r="3.4mm" stroke-width="1"/>
<circle cx="73.6387495994567mm" cy="-19.165002441406mm" r="3.4mm" stroke-width="1"/>
<circle cx="76.1787505149841mm" cy="-11.544999694824mm" r="1.5mm" stroke-width="1"/>
<circle cx="81.2587523460388mm" cy="-11.544999694824mm" r="1.5mm" stroke-width="1"/>
<circle cx="83.7987532615661mm" cy="-111.875000095367mm" r="2.54mm" stroke-width="1"/>
<circle cx="83.7987532615661mm" cy="-104.254999732971mm" r="1.5mm" stroke-width="1"/>
<circle cx="82.8675017356873mm" cy="-81.3949981689453mm" r="1.2mm" stroke-width="1"/>
<circle cx="83.7987532615661mm" cy="-47.9939971923828mm" r="2.667mm" stroke-width="1"/>
<circle cx="83.7987532615661mm" cy="-41.3900009155273mm" r="1.5mm" stroke-width="1"/>
<circle cx="83.7987532615661mm" cy="-31.8649993896484mm" r="3.4mm" stroke-width="1"/>
<circle cx="83.7987532615661mm" cy="-19.165002441406mm" r="3.4mm" stroke-width="1"/>
<circle cx="86.3387465476993mm" cy="-77.5850006103516mm" r="3.6195mm" stroke-width="1"/>
<circle cx="86.3387465476993mm" cy="-11.544999694824mm" r="1.5mm" stroke-width="1"/>
<circle cx="97.7687468528743mm" cy="-61.0749984741211mm" r="2.667mm" stroke-width="1"/>
<circle cx="97.7687468528743mm" cy="-52.1849990844727mm" r="1.5mm" stroke-width="1"/>
<circle cx="100.943749904632mm" cy="-35.6749969482422mm" r="3.175mm" stroke-width="1"/>
<circle cx="100.943749904632mm" cy="-24.244996643066mm" r="3.175mm" stroke-width="1"/>
<circle cx="100.943749904632mm" cy="-17.260003662109mm" r="1.5mm" stroke-width="1"/>
<circle cx="105.388749599456mm" cy="-105.842500305176mm" r="3.6195mm" stroke-width="1"/>
<circle cx="112.691247463226mm" cy="-89.6499992370605mm" r="2.667mm" stroke-width="1"/>
<circle cx="116.818757534027mm" cy="-11.544999694824mm" r="1.5mm" stroke-width="1"/>
<circle cx="119.35875082016mm" cy="-31.8649993896484mm" r="3.4mm" stroke-width="1"/>
<circle cx="119.35875082016mm" cy="-19.165002441406mm" r="3.4mm" stroke-width="1"/>
<circle cx="121.898744106292mm" cy="-11.544999694824mm" r="1.5mm" stroke-width="1"/>
<circle cx="127.613755702972mm" cy="-11.544999694824mm" r="1.5mm" stroke-width="1"/>
<circle cx="130.788743495941mm" cy="-105.842500305176mm" r="3.6195mm" stroke-width="1"/>
<circle cx="130.153748989105mm" cy="-31.8649993896484mm" r="3.4mm" stroke-width="1"/>
<circle cx="130.153748989105mm" cy="-19.165002441406mm" r="3.4mm" stroke-width="1"/>
<circle cx="132.693757534027mm" cy="-11.544999694824mm" r="1.5mm" stroke-width="1"/>
<circle cx="136.503755092621mm" cy="-89.6499992370605mm" r="2.667mm" stroke-width="1"/>
<circle cx="138.408753871917mm" cy="-11.544999694824mm" r="1.5mm" stroke-width="1"/>
<circle cx="140.193278263808mm" cy="-125.50115mm" r="1.6mm" stroke-width="1"/>
<circle cx="140.94874715805mm" cy="-31.8649993896484mm" r="3.4mm" stroke-width="1"/>
<circle cx="140.94874715805mm" cy="-19.165002441406mm" r="3.4mm" stroke-width="1"/>
<circle cx="140.193278263808mm" cy="-3.0014mm" r="1.6mm" stroke-width="1"/>
<circle cx="143.488755702972mm" cy="-11.544999694824mm" r="1.5mm" stroke-width="1"/>
</g>
</svg>
