<svg width="30mm" height="128.5mm">
<g transform="scale(1,-1)"><circle cx="7.739528054mm" cy="-125.50115mm" r="1.6mm" stroke-width="1"/>
<circle cx="22.979528054mm" cy="-125.50115mm" r="1.6mm" stroke-width="1"/>
<circle cx="3.7325000667572mm" cy="-116.510500049591mm" r="1.5mm" stroke-width="1"/>
<circle cx="15.4799997711182mm" cy="-116.32000002861mm" r="1.5mm" stroke-width="1"/>
<circle cx="7.98700021743774mm" cy="-111.557499980927mm" r="2.54mm" stroke-width="1"/>
<circle cx="15.4799997711182mm" cy="-111.239999866486mm" r="1.5mm" stroke-width="1"/>
<circle cx="23.2269995117188mm" cy="-109.334999656677mm" r="4.5mm" stroke-width="1"/>
<circle cx="7.98700021743774mm" cy="-97.9050003051758mm" r="4.5mm" stroke-width="1"/>
<circle cx="23.2269995117188mm" cy="-97.9050003051758mm" r="2.54mm" stroke-width="1"/>
<circle cx="7.98700021743774mm" cy="-85.5225006103516mm" r="2.54mm" stroke-width="1"/>
<circle cx="23.2269995117188mm" cy="-83.9349990844727mm" r="4.5mm" stroke-width="1"/>
<circle cx="7.98700021743774mm" cy="-72.1875015258789mm" r="4.5mm" stroke-width="1"/>
<circle cx="23.1000006103516mm" cy="-72.6320014953613mm" r="2.54mm" stroke-width="1"/>
<circle cx="7.98700021743774mm" cy="-58.535001373291mm" r="3.4mm" stroke-width="1"/>
<circle cx="22.9095003509521mm" cy="-58.535001373291mm" r="3.4mm" stroke-width="1"/>
<circle cx="7.98700021743774mm" cy="-47.104997253418mm" r="3.4mm" stroke-width="1"/>
<circle cx="22.9095003509521mm" cy="-47.104997253418mm" r="3.4mm" stroke-width="1"/>
<circle cx="7.98700021743774mm" cy="-36.6274963378906mm" r="3.4mm" stroke-width="1"/>
<circle cx="22.9095003509521mm" cy="-36.6274963378906mm" r="3.4mm" stroke-width="1"/>
<circle cx="7.98700021743774mm" cy="-26.150003051758mm" r="3.4mm" stroke-width="1"/>
<circle cx="22.9095003509521mm" cy="-26.150003051758mm" r="3.4mm" stroke-width="1"/>
<circle cx="7.98700021743774mm" cy="-15.67250213623mm" r="3.4mm" stroke-width="1"/>
<circle cx="22.9095003509521mm" cy="-15.67250213623mm" r="3.4mm" stroke-width="1"/>
<circle cx="7.739528054mm" cy="-3.0014mm" r="1.6mm" stroke-width="1"/>
<circle cx="22.979528054mm" cy="-3.0014mm" r="1.6mm" stroke-width="1"/>
</g>
</svg>
